<svg width="4551" height="3744" xmlns="http://www.w3.org/2000/svg" xmlns:xlink="http://www.w3.org/1999/xlink" overflow="hidden"><g><rect x="0" y="0" width="4551" height="3743.92" fill="#FFFFFF"/><path d="M134 1516.8C134 1460.56 179.593 1414.97 235.835 1414.97L643.165 1414.97C699.407 1414.97 745 1460.56 745 1516.8L745 2257.12C745 2313.36 699.407 2358.95 643.165 2358.95L235.835 2358.95C179.593 2358.95 134 2313.36 134 2257.12Z" stroke="#000000" stroke-width="8.00088" stroke-miterlimit="8" fill="#F6C6AD" fill-rule="evenodd"/><text fill="#13501B" font-family="Arial Nova,Arial Nova_MSFontService,sans-serif" font-weight="700" font-size="88.0078" transform="matrix(1 0 0 0.999979 264.413 1510)">Network</text><path d="M614 1890.96C614 1872.18 629.222 1856.96 648 1856.96 666.778 1856.96 682 1872.18 682 1890.96 682 1909.74 666.778 1924.96 648 1924.96 629.222 1924.96 614 1909.74 614 1890.96Z" stroke="#042433" stroke-width="2.00022" stroke-miterlimit="8" fill="#FFFFFF" fill-rule="evenodd"/><path d="M614 2052.96C614 2034.18 629.222 2018.96 648 2018.96 666.778 2018.96 682 2034.18 682 2052.96 682 2071.73 666.778 2086.96 648 2086.96 629.222 2086.96 614 2071.73 614 2052.96Z" stroke="#042433" stroke-width="2.00022" stroke-miterlimit="8" fill="#FFFFFF" fill-rule="evenodd"/><path d="M478 1797.96C478 1779.19 493.222 1763.96 512 1763.96 530.778 1763.96 546 1779.19 546 1797.96 546 1816.74 530.778 1831.96 512 1831.96 493.222 1831.96 478 1816.74 478 1797.96Z" stroke="#042433" stroke-width="2.00022" stroke-miterlimit="8" fill="#FFFFFF" fill-rule="evenodd"/><path d="M478 1958.96C478 1940.18 493.222 1924.96 512 1924.96 530.778 1924.96 546 1940.18 546 1958.96 546 1977.74 530.778 1992.96 512 1992.96 493.222 1992.96 478 1977.74 478 1958.96Z" stroke="#042433" stroke-width="2.00022" stroke-miterlimit="8" fill="#FFFFFF" fill-rule="evenodd"/><path d="M478 1877.96C478 1859.18 493.222 1843.96 512 1843.96 530.778 1843.96 546 1859.18 546 1877.96 546 1896.74 530.778 1911.96 512 1911.96 493.222 1911.96 478 1896.74 478 1877.96Z" stroke="#042433" stroke-width="2.00022" stroke-miterlimit="8" fill="#FFFFFF" fill-rule="evenodd"/><path d="M478 2038.96C478 2020.18 493.222 2004.96 512 2004.96 530.778 2004.96 546 2020.18 546 2038.96 546 2057.73 530.778 2072.96 512 2072.96 493.222 2072.96 478 2057.73 478 2038.96Z" stroke="#042433" stroke-width="2.00022" stroke-miterlimit="8" fill="#FFFFFF" fill-rule="evenodd"/><path d="M478 2119.96C478 2101.18 493.222 2085.96 512 2085.96 530.778 2085.96 546 2101.18 546 2119.96 546 2138.73 530.778 2153.96 512 2153.96 493.222 2153.96 478 2138.73 478 2119.96Z" stroke="#042433" stroke-width="2.00022" stroke-miterlimit="8" fill="#FFFFFF" fill-rule="evenodd"/><path d="M343 1797.96C343 1779.19 358.222 1763.96 377 1763.96 395.778 1763.96 411 1779.19 411 1797.96 411 1816.74 395.778 1831.96 377 1831.96 358.222 1831.96 343 1816.74 343 1797.96Z" stroke="#042433" stroke-width="2.00022" stroke-miterlimit="8" fill="#FFFFFF" fill-rule="evenodd"/><path d="M343 1958.96C343 1940.18 358.222 1924.96 377 1924.96 395.778 1924.96 411 1940.18 411 1958.96 411 1977.74 395.778 1992.96 377 1992.96 358.222 1992.96 343 1977.74 343 1958.96Z" stroke="#042433" stroke-width="2.00022" stroke-miterlimit="8" fill="#FFFFFF" fill-rule="evenodd"/><path d="M343 1877.96C343 1859.18 358.222 1843.96 377 1843.96 395.778 1843.96 411 1859.18 411 1877.96 411 1896.74 395.778 1911.96 377 1911.96 358.222 1911.96 343 1896.74 343 1877.96Z" stroke="#042433" stroke-width="2.00022" stroke-miterlimit="8" fill="#FFFFFF" fill-rule="evenodd"/><path d="M343 2038.96C343 2020.18 358.222 2004.96 377 2004.96 395.778 2004.96 411 2020.18 411 2038.96 411 2057.73 395.778 2072.96 377 2072.96 358.222 2072.96 343 2057.73 343 2038.96Z" stroke="#042433" stroke-width="2.00022" stroke-miterlimit="8" fill="#FFFFFF" fill-rule="evenodd"/><path d="M343 2119.96C343 2101.18 358.222 2085.96 377 2085.96 395.778 2085.96 411 2101.18 411 2119.96 411 2138.73 395.778 2153.96 377 2153.96 358.222 2153.96 343 2138.73 343 2119.96Z" stroke="#042433" stroke-width="2.00022" stroke-miterlimit="8" fill="#FFFFFF" fill-rule="evenodd"/><path d="M187 1958.96C187 1940.18 202.222 1924.96 221 1924.96 239.778 1924.96 255 1940.18 255 1958.96 255 1977.74 239.778 1992.96 221 1992.96 202.222 1992.96 187 1977.74 187 1958.96Z" stroke="#042433" stroke-width="2.00022" stroke-miterlimit="8" fill="#FFFFFF" fill-rule="evenodd"/><path d="M187 1877.96C187 1859.18 202.222 1843.96 221 1843.96 239.778 1843.96 255 1859.18 255 1877.96 255 1896.74 239.778 1911.96 221 1911.96 202.222 1911.96 187 1896.74 187 1877.96Z" stroke="#042433" stroke-width="2.00022" stroke-miterlimit="8" fill="#FFFFFF" fill-rule="evenodd"/><path d="M187 2038.96C187 2020.18 202.222 2004.96 221 2004.96 239.778 2004.96 255 2020.18 255 2038.96 255 2057.73 239.778 2072.96 221 2072.96 202.222 2072.96 187 2057.73 187 2038.96Z" stroke="#042433" stroke-width="2.00022" stroke-miterlimit="8" fill="#FFFFFF" fill-rule="evenodd"/><path d="M0.674018-0.738836 83.7248 75.0259 82.3767 76.5035-0.674018 0.738836ZM84.7618 71.9108 87.9764 80.2583 79.3697 77.8215Z" transform="matrix(1.00002 0 0 -1 255 1878.22)"/><path d="M0.674018-0.738836 83.7248 75.0259 82.3767 76.5035-0.674018 0.738836ZM84.7618 71.9108 87.9764 80.2583 79.3697 77.8215Z" transform="matrix(1.00002 0 0 -1 255 1960.22)"/><path d="M0.686467-0.727284 83.8142 77.7352 82.4413 79.1897-0.686467 0.727284ZM84.904 74.6381 87.9764 83.039 79.4123 80.4564Z" transform="matrix(1.00002 0 0 -1 255 2042)"/><path d="M255 1876.96 336.311 1876.96 336.311 1878.96 255 1878.96ZM334.977 1873.96 342.978 1877.96 334.977 1881.96Z"/><path d="M255.677 1877.22 338.749 1953.67 337.395 1955.14 254.323 1878.7ZM339.8 1950.56 342.978 1958.92 334.382 1956.45Z"/><path d="M0.877882-0.479063 85.6606 154.885 83.9049 155.843-0.877882 0.479063ZM87.6555 152.277 87.9764 161.216 80.6324 156.11Z" transform="matrix(1.00002 0 0 -1 255 1959.18)"/><path d="M255.012 1957.96 336.323 1958.92 336.299 1960.92 254.988 1959.96ZM335.025 1955.91 342.978 1960 334.931 1963.91Z"/><path d="M255.675 1958.22 338.732 2034.15 337.382 2035.63 254.325 1959.7ZM339.772 2031.04 342.978 2039.39 334.374 2036.94Z"/><path d="M255.877 1958.48 340.656 2113.49 338.901 2114.45 254.123 1959.44ZM342.649 2110.88 342.978 2119.82 335.629 2114.72Z"/><path d="M255.675 2038.22 338.732 2114.15 337.382 2115.63 254.325 2039.7ZM339.772 2111.04 342.978 2119.39 334.374 2116.94Z"/><path d="M255.03 2037.96 336.343 2040.37 336.284 2042.37 254.97 2039.96ZM335.1 2037.33 342.978 2041.57 334.862 2045.33Z"/><path d="M0.939745-0.342136 86.6355 235.039 84.756 235.723-0.939745 0.342136ZM88.9983 232.759 87.9764 241.645 81.4804 235.496Z" transform="matrix(1.00002 0 0 -1 255 2039.61)"/><path d="M255.878 1877.48 340.665 2033.02 338.909 2033.97 254.122 1878.44ZM342.661 2030.41 342.978 2039.35 335.636 2034.24Z"/><path d="M411 1796.96 471.891 1796.96 471.891 1798.96 411 1798.96ZM470.557 1793.96 478.558 1797.96 470.557 1801.96Z"/><path d="M411.765 1797.32 475.029 1872.48 473.499 1873.76 410.235 1798.61ZM476.466 1869.52 478.558 1878.22 470.345 1874.68Z"/><path d="M411.963 1797.69 477.726 2032.92 475.8 2033.46 410.037 1798.23ZM480.257 2030.83 478.558 2039.61 472.551 2032.98Z"/><path d="M0.765117-0.644029 64.0281 74.5134 62.4979 75.8015-0.765117 0.644029ZM65.4648 71.5612 67.5566 80.2583 59.3439 76.7134Z" transform="matrix(1.00002 0 0 -1 411 1878.22)"/><path d="M0.930607-0.366262 59.7585 149.105 57.8973 149.838-0.930607 0.366262ZM62.062 146.766 61.2697 155.676 54.6172 149.696Z" transform="matrix(1.00002 0 0 -1 411 1958.64)"/><path d="M411.768 1877.32 475.054 1953.16 473.518 1954.44 410.232 1878.6ZM476.503 1950.21 478.558 1958.92 470.36 1955.34Z"/><path d="M411 1876.96 471.891 1876.96 471.891 1878.96 411 1878.96ZM470.557 1873.96 478.558 1877.96 470.557 1881.96Z"/><path d="M411.766 1958.32 475.035 2033.64 473.504 2034.93 410.234 1959.6ZM476.475 2030.69 478.558 2039.39 470.349 2035.83Z"/><path d="M0.76579-0.64323 64.0341 74.6801 62.5025 75.9666-0.76579 0.64323ZM65.4739 71.7294 67.5566 80.4287 59.3476 76.8753Z" transform="matrix(1.00002 0 0 -1 411 2039.39)"/><path d="M0.964755-0.263488 66.7645 240.661 64.835 241.188-0.964755 0.263488ZM69.3077 238.585 67.5566 247.357 61.5896 240.693Z" transform="matrix(1.00002 0 0 -1 411 2119.32)"/><path d="M411.922 1958.57 476.898 2113.28 475.054 2114.06 410.078 1959.35ZM479.148 2110.89 478.558 2119.82 471.772 2113.99Z"/><path d="M411 2037.96 471.891 2037.96 471.891 2039.96 411 2039.96ZM470.557 2034.96 478.558 2038.96 470.557 2042.96Z"/><path d="M413 2119.96 473.891 2119.96 473.891 2121.96 413 2121.96ZM472.557 2116.96 480.558 2120.96 472.557 2124.96Z"/><path d="M0.782038-0.623373 61.963 76.1297 60.3989 77.3765-0.782038 0.623373ZM63.4779 73.2169 65.3367 81.9667 57.2216 78.2038Z" transform="matrix(1.00002 0 0 -1 413 2120.92)"/><path d="M0.978789-0.205305 67.1668 315.345 65.2093 315.756-0.978789 0.205305ZM69.8293 313.423 67.5566 322.075 61.999 315.066Z" transform="matrix(1.00002 0 0 -1 411 2120.04)"/><path d="M546.967 1797.71 612.818 2046.41 610.885 2046.92 545.033 1798.22ZM615.377 2044.35 613.558 2053.11 607.643 2046.4Z"/><path d="M546.933 1877.6 612.088 2046.27 610.223 2046.99 545.067 1878.32ZM614.407 2043.94 613.558 2052.85 606.943 2046.83Z"/><path d="M548.82 1958.39 610.82 2047.11 609.18 2048.26 547.18 1959.53ZM612.515 2044.3 613.819 2053.15 605.957 2048.89Z"/><path d="M546.196 2037.98 607.216 2050.17 606.824 2052.13 545.804 2039.94ZM606.496 2046.97 613.558 2052.46 604.928 2054.81Z"/><path d="M0.70386-0.710464 63.524 61.5258 62.1163 62.9468-0.70386 0.710464ZM64.6883 58.456 67.5566 66.9287 59.0574 64.1397Z" transform="matrix(1.00002 0 0 -1 546 2119.89)"/><path d="M0.959185-0.283095 66.6285 222.218 64.7102 222.785-0.959185 0.283095ZM69.1285 220.09 67.5566 228.896 61.4551 222.355Z" transform="matrix(1.00002 0 0 -1 546 2119.86)"/><path d="M0.910282-0.414203 65.7055 141.984 63.8849 142.813-0.910282 0.414203ZM67.8841 139.528 67.5566 148.467 60.6018 142.842Z" transform="matrix(1.00002 0 0 -1 546 2039.43)"/><path d="M0.709673-0.704658 63.5685 62.6015 62.1492 64.0108-0.709673 0.704658ZM64.758 59.5413 67.5566 68.0373 59.0806 65.1786Z" transform="matrix(1.00002 0 0 -1 546 1959)"/><path d="M546.188 1876.98 607.197 1888.65 606.821 1890.61 545.812 1878.94ZM606.451 1885.45 613.558 1890.88 604.948 1893.31Z"/><path d="M546.81 1797.38 610.454 1885.16 608.835 1886.33 545.19 1798.55ZM612.1 1882.32 613.558 1891.14 605.623 1887.01Z"/><path d="M965 1543.8C965 1472.65 1022.68 1414.97 1093.84 1414.97L1609.16 1414.97C1680.32 1414.97 1738 1472.65 1738 1543.8L1738 2230.12C1738 2301.27 1680.32 2358.95 1609.16 2358.95L1093.84 2358.95C1022.68 2358.95 965 2301.27 965 2230.12Z" stroke="#000000" stroke-width="8.00088" stroke-miterlimit="8" fill="#F6C6AD" fill-rule="evenodd"/><text fill="#13501B" font-family="Arial Nova,Arial Nova_MSFontService,sans-serif" font-weight="700" font-size="88.0078" transform="matrix(1 0 0 0.999979 1044.07 1514)">Prefetch Queue</text><path d="M1106 1673.97C1106 1664.02 1114.06 1655.97 1124 1655.97L1595 1655.97C1604.94 1655.97 1613 1664.02 1613 1673.97L1613 1745.96C1613 1755.9 1604.94 1763.96 1595 1763.96L1124 1763.96C1114.06 1763.96 1106 1755.9 1106 1745.96Z" stroke="#042433" stroke-width="8.00088" stroke-miterlimit="8" fill="#FBE3D6" fill-rule="evenodd"/><path d="M1106 1812.96C1106 1803.02 1114.06 1794.96 1124 1794.96L1595 1794.96C1604.94 1794.96 1613 1803.02 1613 1812.96L1613 1884.96C1613 1894.9 1604.94 1902.96 1595 1902.96L1124 1902.96C1114.06 1902.96 1106 1894.9 1106 1884.96Z" stroke="#042433" stroke-width="8.00088" stroke-miterlimit="8" fill="#FBE3D6" fill-rule="evenodd"/><path d="M1106 1951.96C1106 1942.02 1114.06 1933.96 1124 1933.96L1595 1933.96C1604.94 1933.96 1613 1942.02 1613 1951.96L1613 2023.96C1613 2033.9 1604.94 2041.96 1595 2041.96L1124 2041.96C1114.06 2041.96 1106 2033.9 1106 2023.96Z" stroke="#000000" stroke-width="8.00088" stroke-miterlimit="8" fill="#FBE3D6" fill-rule="evenodd"/><path d="M1103 2192.95C1103 2183.01 1111.06 2174.95 1121 2174.95L1592 2174.95C1601.94 2174.95 1610 2183.01 1610 2192.95L1610 2264.95C1610 2274.89 1601.94 2282.95 1592 2282.95L1121 2282.95C1111.06 2282.95 1103 2274.89 1103 2264.95Z" stroke="#042433" stroke-width="8.00088" stroke-miterlimit="8" fill="#FBE3D6" fill-rule="evenodd"/><path d="M1350 2081.46C1350 2076.76 1353.81 2072.96 1358.5 2072.96 1363.19 2072.96 1367 2076.76 1367 2081.46 1367 2086.15 1363.19 2089.96 1358.5 2089.96 1353.81 2089.96 1350 2086.15 1350 2081.46Z" stroke="#042433" stroke-width="2.00022" stroke-miterlimit="8" fill="#FBE3D6" fill-rule="evenodd"/><path d="M1350 2108.46C1350 2103.76 1353.81 2099.96 1358.5 2099.96 1363.19 2099.96 1367 2103.76 1367 2108.46 1367 2113.15 1363.19 2116.96 1358.5 2116.96 1353.81 2116.96 1350 2113.15 1350 2108.46Z" stroke="#042433" stroke-width="2.00022" stroke-miterlimit="8" fill="#FBE3D6" fill-rule="evenodd"/><path d="M1350 2134.46C1350 2129.76 1353.81 2125.96 1358.5 2125.96 1363.19 2125.96 1367 2129.76 1367 2134.46 1367 2139.15 1363.19 2142.96 1358.5 2142.96 1353.81 2142.96 1350 2139.15 1350 2134.46Z" stroke="#042433" stroke-width="2.00022" stroke-miterlimit="8" fill="#FBE3D6" fill-rule="evenodd"/><text fill="#13501B" font-family="Arial Nova,Arial Nova_MSFontService,sans-serif" font-weight="400" font-size="37.3367" transform="matrix(1 0 0 0.999979 1137.57 1717)">Batch 1</text><text fill="#13501B" font-family="Arial Nova,Arial Nova_MSFontService,sans-serif" font-weight="400" font-size="37.3367" transform="matrix(1 0 0 0.999979 1137.57 1858)">Batch 2</text><text fill="#13501B" font-family="Arial Nova,Arial Nova_MSFontService,sans-serif" font-weight="400" font-size="37.3367" transform="matrix(1 0 0 0.999979 1137.57 1997)">Batch 3</text><text fill="#13501B" font-family="Arial Nova,Arial Nova_MSFontService,sans-serif" font-weight="400" font-size="37.3367" transform="matrix(1 0 0 0.999979 1137.57 2241)">Batch M</text><path d="M5.09712e-06-10.6676 166.406-10.6675 166.406 10.6677-5.09712e-06 10.6676ZM155.738-32.0028 219.744 0.000104996 155.738 32.0029Z" fill="#0D3512" transform="matrix(-1.00002 0 0 1 965.248 1887.46)"/><path d="M1956 1516.14C1956 1460.26 2001.29 1414.97 2057.17 1414.97L2461.83 1414.97C2517.71 1414.97 2563 1460.26 2563 1516.14L2563 2257.78C2563 2313.66 2517.71 2358.95 2461.83 2358.95L2057.17 2358.95C2001.29 2358.95 1956 2313.66 1956 2257.78Z" stroke="#000000" stroke-width="8.00088" stroke-miterlimit="8" fill="#F2AA84" fill-rule="evenodd"/><path d="M0 0 5.8884 385.606" stroke="#0B3041" stroke-width="21.3352" stroke-miterlimit="8" stroke-dasharray="85.3409 64.0057" fill="none" fill-rule="evenodd" transform="matrix(1.00002 0 0 -1 434.5 2745.06)"/><path d="M435.5 2745.44 1357.25 2745.44" stroke="#0B3041" stroke-width="21.3357" stroke-miterlimit="8" stroke-dasharray="85.3427 64.007" fill="none" fill-rule="evenodd"/><path d="M10.6675-0.0437134 11.0172 85.2965-10.3178 85.3839-10.6675 0.0437134ZM11.2795 149.302 11.6292 234.642-9.70583 234.729-10.0555 149.389ZM11.8915 298.647 12.0572 339.08-9.27787 339.167-9.44355 298.734ZM33.3485 328.325 1.60823 392.461-30.6566 328.587Z" fill="#0B3041" transform="matrix(1.00002 0 0 -1 1350.5 2751.91)"/><rect x="1970" y="1535.97" width="580" height="60.9987" fill="#F2AA84"/><text fill="#0D3512" font-family="Arial Nova,Arial Nova_MSFontService,sans-serif" font-weight="400" font-size="42.6705" transform="matrix(1 0 0 0.999979 2017.06 1583)">Buffer/generated samples</text><text fill="#13501B" font-family="Arial Nova,Arial Nova_MSFontService,sans-serif" font-weight="400" font-size="42.6705" transform="matrix(1 0 0 0.999979 1190.51 1578)">Preloaded batches</text><text fill="#13501B" font-family="Arial Nova,Arial Nova_MSFontService,sans-serif" font-weight="400" font-size="42.6705" transform="matrix(1 0 0 0.999979 1206.19 1629)">ready for training</text><text fill="#13501B" font-family="Arial Nova,Arial Nova_MSFontService,sans-serif" font-weight="400" font-size="42.6838" transform="matrix(1 0 0 0.999979 168.148 1575)">Consumes prefetched batch</text><path d="M3662 1704.96C3662 1696.13 3669.16 1688.96 3678 1688.96 3686.84 1688.96 3694 1696.13 3694 1704.96 3694 1713.8 3686.84 1720.96 3678 1720.96 3669.16 1720.96 3662 1713.8 3662 1704.96Z" stroke="#5A8A50" stroke-width="2.00022" stroke-miterlimit="8" fill="#D9F2D0" fill-rule="evenodd"/><path d="M3662 1821.96C3662 1813.13 3669.16 1805.96 3678 1805.96 3686.84 1805.96 3694 1813.13 3694 1821.96 3694 1830.8 3686.84 1837.96 3678 1837.96 3669.16 1837.96 3662 1830.8 3662 1821.96Z" stroke="#5A8A50" stroke-width="2.00022" stroke-miterlimit="8" fill="#D9F2D0" fill-rule="evenodd"/><path d="M3662 1946.96C3662 1938.12 3669.16 1930.96 3678 1930.96 3686.84 1930.96 3694 1938.12 3694 1946.96 3694 1955.8 3686.84 1962.96 3678 1962.96 3669.16 1962.96 3662 1955.8 3662 1946.96Z" stroke="#5A8A50" stroke-width="2.00022" stroke-miterlimit="8" fill="#D9F2D0" fill-rule="evenodd"/><path d="M2940 778.32C2940 688.666 3012.68 615.987 3102.34 615.987L4254.66 615.987C4344.32 615.987 4417 688.666 4417 778.32L4417 1427.63C4417 1517.29 4344.32 1589.97 4254.66 1589.97L3102.34 1589.97C3012.68 1589.97 2940 1517.29 2940 1427.63Z" stroke="#000000" stroke-width="8.00088" stroke-miterlimit="8" fill="#D9F2D0" fill-rule="evenodd"/><text fill="#13501B" font-family="Arial Nova,Arial Nova_MSFontService,sans-serif" font-weight="700" font-size="88.0078" transform="matrix(1 0 0 0.999979 3062.65 716)">Worker 1</text><path d="M2997 803.817C2997 770.773 3023.79 743.984 3056.83 743.984L4025.17 743.984C4058.21 743.984 4085 770.773 4085 803.817L4085 1043.14C4085 1076.19 4058.21 1102.98 4025.17 1102.98L3056.83 1102.98C3023.79 1102.98 2997 1076.19 2997 1043.14Z" stroke="#000000" stroke-width="8.00088" stroke-miterlimit="8" fill="#D9F2D0" fill-rule="evenodd"/><g><g><g><path d="M73.625 17.4375C73.625 21.7177 61.4807 25.1875 46.5 25.1875 31.5193 25.1875 19.375 21.7177 19.375 17.4375 19.375 13.1573 31.5193 9.6875 46.5 9.6875 61.4807 9.6875 73.625 13.1573 73.625 17.4375Z" transform="matrix(1 0 0 1.02148 1504 1662.97)"/><path d="M65.875 36.8125C64.7125 36.8125 63.9375 36.0375 63.9375 34.875 63.9375 33.7125 64.7125 32.9375 65.875 32.9375 67.0375 32.9375 67.8125 33.7125 67.8125 34.875 67.8125 36.0375 67.0375 36.8125 65.875 36.8125ZM46.5 29.0625C31.5813 29.0625 19.375 25.575 19.375 21.3125L19.375 36.8125C19.375 41.075 31.5813 44.5625 46.5 44.5625 61.4188 44.5625 73.625 41.075 73.625 36.8125L73.625 21.3125C73.625 25.575 61.4188 29.0625 46.5 29.0625Z" transform="matrix(1 0 0 1.02148 1504 1662.97)"/><path d="M65.875 56.1875C64.7125 56.1875 63.9375 55.4125 63.9375 54.25 63.9375 53.0875 64.7125 52.3125 65.875 52.3125 67.0375 52.3125 67.8125 53.0875 67.8125 54.25 67.8125 55.4125 67.0375 56.1875 65.875 56.1875ZM46.5 48.4375C31.5813 48.4375 19.375 44.95 19.375 40.6875L19.375 56.1875C19.375 60.45 31.5813 63.9375 46.5 63.9375 61.4188 63.9375 73.625 60.45 73.625 56.1875L73.625 40.6875C73.625 44.95 61.4188 48.4375 46.5 48.4375Z" transform="matrix(1 0 0 1.02148 1504 1662.97)"/><path d="M65.875 75.5625C64.7125 75.5625 63.9375 74.7875 63.9375 73.625 63.9375 72.4625 64.7125 71.6875 65.875 71.6875 67.0375 71.6875 67.8125 72.4625 67.8125 73.625 67.8125 74.7875 67.0375 75.5625 65.875 75.5625ZM46.5 67.8125C31.5813 67.8125 19.375 64.325 19.375 60.0625L19.375 75.5625C19.375 79.825 31.5813 83.3125 46.5 83.3125 61.4188 83.3125 73.625 79.825 73.625 75.5625L73.625 60.0625C73.625 64.325 61.4188 67.8125 46.5 67.8125Z" transform="matrix(1 0 0 1.02148 1504 1662.97)"/></g></g></g><g><g><g><path d="M73.625 17.4375C73.625 21.7177 61.4807 25.1875 46.5 25.1875 31.5193 25.1875 19.375 21.7177 19.375 17.4375 19.375 13.1573 31.5193 9.6875 46.5 9.6875 61.4807 9.6875 73.625 13.1573 73.625 17.4375Z" transform="matrix(1 0 0 1.02148 1504 1796.96)"/><path d="M65.875 36.8125C64.7125 36.8125 63.9375 36.0375 63.9375 34.875 63.9375 33.7125 64.7125 32.9375 65.875 32.9375 67.0375 32.9375 67.8125 33.7125 67.8125 34.875 67.8125 36.0375 67.0375 36.8125 65.875 36.8125ZM46.5 29.0625C31.5813 29.0625 19.375 25.575 19.375 21.3125L19.375 36.8125C19.375 41.075 31.5813 44.5625 46.5 44.5625 61.4188 44.5625 73.625 41.075 73.625 36.8125L73.625 21.3125C73.625 25.575 61.4188 29.0625 46.5 29.0625Z" transform="matrix(1 0 0 1.02148 1504 1796.96)"/><path d="M65.875 56.1875C64.7125 56.1875 63.9375 55.4125 63.9375 54.25 63.9375 53.0875 64.7125 52.3125 65.875 52.3125 67.0375 52.3125 67.8125 53.0875 67.8125 54.25 67.8125 55.4125 67.0375 56.1875 65.875 56.1875ZM46.5 48.4375C31.5813 48.4375 19.375 44.95 19.375 40.6875L19.375 56.1875C19.375 60.45 31.5813 63.9375 46.5 63.9375 61.4188 63.9375 73.625 60.45 73.625 56.1875L73.625 40.6875C73.625 44.95 61.4188 48.4375 46.5 48.4375Z" transform="matrix(1 0 0 1.02148 1504 1796.96)"/><path d="M65.875 75.5625C64.7125 75.5625 63.9375 74.7875 63.9375 73.625 63.9375 72.4625 64.7125 71.6875 65.875 71.6875 67.0375 71.6875 67.8125 72.4625 67.8125 73.625 67.8125 74.7875 67.0375 75.5625 65.875 75.5625ZM46.5 67.8125C31.5813 67.8125 19.375 64.325 19.375 60.0625L19.375 75.5625C19.375 79.825 31.5813 83.3125 46.5 83.3125 61.4188 83.3125 73.625 79.825 73.625 75.5625L73.625 60.0625C73.625 64.325 61.4188 67.8125 46.5 67.8125Z" transform="matrix(1 0 0 1.02148 1504 1796.96)"/></g></g></g><g><g><g><path d="M72.8334 17.25C72.8334 21.4842 60.8197 24.9167 46 24.9167 31.1804 24.9167 19.1667 21.4842 19.1667 17.25 19.1667 13.0158 31.1804 9.58334 46 9.58334 60.8197 9.58334 72.8334 13.0158 72.8334 17.25Z" transform="matrix(1 0 0 1.03259 1507 1937.96)"/><path d="M65.1667 36.4167C64.0167 36.4167 63.25 35.65 63.25 34.5 63.25 33.35 64.0167 32.5833 65.1667 32.5833 66.3167 32.5833 67.0834 33.35 67.0834 34.5 67.0834 35.65 66.3167 36.4167 65.1667 36.4167ZM46 28.75C31.2417 28.75 19.1667 25.3 19.1667 21.0833L19.1667 36.4167C19.1667 40.6333 31.2417 44.0833 46 44.0833 60.7584 44.0833 72.8334 40.6333 72.8334 36.4167L72.8334 21.0833C72.8334 25.3 60.7584 28.75 46 28.75Z" transform="matrix(1 0 0 1.03259 1507 1937.96)"/><path d="M65.1667 55.5834C64.0167 55.5834 63.25 54.8167 63.25 53.6667 63.25 52.5167 64.0167 51.75 65.1667 51.75 66.3167 51.75 67.0834 52.5167 67.0834 53.6667 67.0834 54.8167 66.3167 55.5834 65.1667 55.5834ZM46 47.9167C31.2417 47.9167 19.1667 44.4667 19.1667 40.25L19.1667 55.5834C19.1667 59.8 31.2417 63.25 46 63.25 60.7584 63.25 72.8334 59.8 72.8334 55.5834L72.8334 40.25C72.8334 44.4667 60.7584 47.9167 46 47.9167Z" transform="matrix(1 0 0 1.03259 1507 1937.96)"/><path d="M65.1667 74.75C64.0167 74.75 63.25 73.9834 63.25 72.8334 63.25 71.6834 64.0167 70.9167 65.1667 70.9167 66.3167 70.9167 67.0834 71.6834 67.0834 72.8334 67.0834 73.9834 66.3167 74.75 65.1667 74.75ZM46 67.0834C31.2417 67.0834 19.1667 63.6334 19.1667 59.4167L19.1667 74.75C19.1667 78.9667 31.2417 82.4167 46 82.4167 60.7584 82.4167 72.8334 78.9667 72.8334 74.75L72.8334 59.4167C72.8334 63.6334 60.7584 67.0834 46 67.0834Z" transform="matrix(1 0 0 1.03259 1507 1937.96)"/></g></g></g><g><g><g><path d="M73.625 17.4375C73.625 21.7177 61.4807 25.1875 46.5 25.1875 31.5193 25.1875 19.375 21.7177 19.375 17.4375 19.375 13.1573 31.5193 9.6875 46.5 9.6875 61.4807 9.6875 73.625 13.1573 73.625 17.4375Z" transform="matrix(1 0 0 1.02148 1504 2180.95)"/><path d="M65.875 36.8125C64.7125 36.8125 63.9375 36.0375 63.9375 34.875 63.9375 33.7125 64.7125 32.9375 65.875 32.9375 67.0375 32.9375 67.8125 33.7125 67.8125 34.875 67.8125 36.0375 67.0375 36.8125 65.875 36.8125ZM46.5 29.0625C31.5813 29.0625 19.375 25.575 19.375 21.3125L19.375 36.8125C19.375 41.075 31.5813 44.5625 46.5 44.5625 61.4188 44.5625 73.625 41.075 73.625 36.8125L73.625 21.3125C73.625 25.575 61.4188 29.0625 46.5 29.0625Z" transform="matrix(1 0 0 1.02148 1504 2180.95)"/><path d="M65.875 56.1875C64.7125 56.1875 63.9375 55.4125 63.9375 54.25 63.9375 53.0875 64.7125 52.3125 65.875 52.3125 67.0375 52.3125 67.8125 53.0875 67.8125 54.25 67.8125 55.4125 67.0375 56.1875 65.875 56.1875ZM46.5 48.4375C31.5813 48.4375 19.375 44.95 19.375 40.6875L19.375 56.1875C19.375 60.45 31.5813 63.9375 46.5 63.9375 61.4188 63.9375 73.625 60.45 73.625 56.1875L73.625 40.6875C73.625 44.95 61.4188 48.4375 46.5 48.4375Z" transform="matrix(1 0 0 1.02148 1504 2180.95)"/><path d="M65.875 75.5625C64.7125 75.5625 63.9375 74.7875 63.9375 73.625 63.9375 72.4625 64.7125 71.6875 65.875 71.6875 67.0375 71.6875 67.8125 72.4625 67.8125 73.625 67.8125 74.7875 67.0375 75.5625 65.875 75.5625ZM46.5 67.8125C31.5813 67.8125 19.375 64.325 19.375 60.0625L19.375 75.5625C19.375 79.825 31.5813 83.3125 46.5 83.3125 61.4188 83.3125 73.625 79.825 73.625 75.5625L73.625 60.0625C73.625 64.325 61.4188 67.8125 46.5 67.8125Z" transform="matrix(1 0 0 1.02148 1504 2180.95)"/></g></g></g><g><g><g><path d="M82.2483 46.999 104.279 46.999 104.279 49.9364 82.2483 49.9364Z" stroke="#000000" stroke-width="4.9185" transform="matrix(1.00002 0 0 1 3046 841.982)"/><path d="M82.2483 55.8113 104.279 55.8113 104.279 58.7488 82.2483 58.7488Z" stroke="#000000" stroke-width="4.9185" transform="matrix(1.00002 0 0 1 3046 841.982)"/><path d="M82.2483 64.6236 96.9354 64.6236 96.9354 67.5611 82.2483 67.5611Z" stroke="#000000" stroke-width="4.9185" transform="matrix(1.00002 0 0 1 3046 841.982)"/><path d="M127.779 35.2493 118.966 35.2493 118.966 28.7869C118.966 28.1596 118.568 27.6013 117.975 27.3975 102.576 22.257 85.9322 22.2003 70.4985 27.2359 55.0649 22.1998 38.4215 22.2559 23.0222 27.396 22.4284 27.6 22.0299 28.159 22.0308 28.7869L22.0308 35.2493 13.2185 35.2493C12.4073 35.2493 11.7498 35.9068 11.7498 36.718L11.7498 107.216C11.7498 108.028 12.4073 108.685 13.2185 108.685L60.3643 108.685C60.9805 111.269 63.2894 113.092 65.9455 113.091L75.0515 113.091C77.7076 113.092 80.0165 111.269 80.6327 108.685L127.779 108.685C128.59 108.685 129.247 108.028 129.247 107.216L129.247 36.718C129.247 35.9068 128.59 35.2493 127.779 35.2493ZM116.029 29.8444 116.029 97.2586C101.664 92.9053 86.3319 92.9053 71.9672 97.2586L71.9672 29.8444C86.3031 25.301 101.693 25.301 116.029 29.8444ZM24.9682 29.8444C39.3041 25.301 54.6939 25.301 69.0298 29.8444L69.0298 97.2586C54.6651 92.9053 39.3329 92.9053 24.9682 97.2586ZM126.31 105.748 79.3108 105.748C78.4996 105.748 77.8421 106.405 77.8421 107.216L77.8421 107.363C77.8421 108.904 76.5927 110.154 75.0515 110.154L65.9455 110.154C64.4044 110.154 63.1549 108.904 63.1549 107.363L63.1549 107.216C63.1549 106.405 62.4974 105.748 61.6862 105.748L14.6872 105.748 14.6872 38.1867 22.0308 38.1867 22.0308 99.2854C22.0305 100.097 22.6879 100.754 23.4991 100.755 23.6616 100.755 23.8231 100.728 23.9768 100.675 38.9203 95.691 55.0777 95.691 70.0212 100.675 70.0454 100.68 70.0699 100.684 70.0946 100.687 70.2031 100.718 70.3151 100.737 70.428 100.742 70.4515 100.742 70.475 100.754 70.4985 100.754 70.522 100.754 70.5352 100.747 70.5528 100.745 70.6646 100.742 70.7755 100.725 70.8833 100.695 70.9068 100.695 70.9318 100.687 70.9567 100.679L70.9758 100.679C85.9193 95.6954 102.077 95.6954 117.02 100.679 117.174 100.73 117.335 100.755 117.498 100.754 118.309 100.754 118.966 100.097 118.966 99.2854L118.966 38.1867 126.31 38.1867Z" stroke="#000000" stroke-width="4.9185" transform="matrix(1.00002 0 0 1 3046 841.982)"/></g></g></g><g><g><g><path d="M117.81 99.0812 97.1329 66.1246C96.7628 65.5207 96.1041 65.1541 95.3959 65.158 94.6845 65.1577 94.0228 65.5228 93.6439 66.1246L87.6023 75.8213 100.561 96.7855C101.658 98.4439 101.894 100.527 101.196 102.389L115.847 102.389C117.046 102.449 118.067 101.525 118.127 100.325 118.149 99.8881 118.039 99.4546 117.81 99.0812Z" transform="matrix(1.00692 0 0 1 3236 839.982)"/><path d="M95.3053 99.2776 62.4544 45.8251C62.0329 45.2806 61.3755 44.9716 60.6873 44.9944L60.4154 44.9944 60.1435 44.9944C59.4552 44.9716 58.7979 45.2806 58.3764 45.8251L25.5255 99.2776C25.0602 99.9287 24.9961 100.785 25.3594 101.498 25.7258 102.144 26.4521 102.498 27.1869 102.389L93.6439 102.389C94.3787 102.498 95.105 102.144 95.4714 101.498 95.8347 100.785 95.7706 99.9287 95.3053 99.2776ZM65.9132 70.8673 60.6873 75.5192 55.4613 70.8673 46.8219 76.0932 60.4154 54.0567 73.6464 75.5192Z" transform="matrix(1.00692 0 0 1 3236 839.982)"/><path d="M45.3115 48.3323C45.3115 50.8348 43.2829 52.8635 40.7804 52.8635 38.2779 52.8635 36.2492 50.8348 36.2492 48.3323 36.2492 45.8298 38.2779 43.8012 40.7804 43.8012 43.2829 43.8012 45.3115 45.8298 45.3115 48.3323Z" transform="matrix(1.00692 0 0 1 3236 839.982)"/><path d="M21.1454 111.768 21.1454 36.2492 123.852 36.2492 123.852 111.768ZM132.914 120.831 132.914 27.1869 12.0831 27.1869 12.0831 120.831Z" transform="matrix(1.00692 0 0 1 3236 839.982)"/></g></g></g><text fill="#13501B" font-family="Arial Nova,Arial Nova_MSFontService,sans-serif" font-weight="400" font-size="37.35" transform="matrix(1 0 0 0.999979 3068.52 1017)">Atlas</text><text fill="#13501B" font-family="Arial Nova,Arial Nova_MSFontService,sans-serif" font-weight="400" font-size="37.35" transform="matrix(1 0 0 0.999979 3208.36 1019)">Background</text><text fill="#13501B" font-family="Arial Nova,Arial Nova_MSFontService,sans-serif" font-weight="400" font-size="48.0309" transform="matrix(1 0 0 0.999979 3106.37 830)">Resources</text><path d="M3454 821.817C3454 793.19 3477.21 769.984 3505.83 769.984L4003.17 769.984C4031.79 769.984 4055 793.19 4055 821.817L4055 1029.14C4055 1057.77 4031.79 1080.98 4003.17 1080.98L3505.83 1080.98C3477.21 1080.98 3454 1057.77 3454 1029.14Z" stroke="#000000" stroke-width="8.00088" stroke-miterlimit="8" fill="#D9F2D0" fill-rule="evenodd"/><text fill="#13501B" font-family="Arial Nova,Arial Nova_MSFontService,sans-serif" font-weight="400" font-size="48.0309" transform="matrix(1 0 0 0.999979 3603.18 830)">Real data pools</text><g><g><g><path d="M101.333 24C101.333 29.891 84.6186 34.6667 64 34.6667 43.3814 34.6667 26.6667 29.891 26.6667 24 26.6667 18.109 43.3814 13.3333 64 13.3333 84.6186 13.3333 101.333 18.109 101.333 24Z" transform="matrix(1 0 0 1.02342 3518 851.982)"/><path d="M90.6667 50.6667C89.0667 50.6667 88 49.6 88 48 88 46.4 89.0667 45.3333 90.6667 45.3333 92.2667 45.3333 93.3333 46.4 93.3333 48 93.3333 49.6 92.2667 50.6667 90.6667 50.6667ZM64 40C43.4667 40 26.6667 35.2 26.6667 29.3333L26.6667 50.6667C26.6667 56.5333 43.4667 61.3333 64 61.3333 84.5333 61.3333 101.333 56.5333 101.333 50.6667L101.333 29.3333C101.333 35.2 84.5333 40 64 40Z" transform="matrix(1 0 0 1.02342 3518 851.982)"/><path d="M90.6667 77.3333C89.0667 77.3333 88 76.2667 88 74.6667 88 73.0667 89.0667 72 90.6667 72 92.2667 72 93.3333 73.0667 93.3333 74.6667 93.3333 76.2667 92.2667 77.3333 90.6667 77.3333ZM64 66.6667C43.4667 66.6667 26.6667 61.8667 26.6667 56L26.6667 77.3333C26.6667 83.2 43.4667 88 64 88 84.5333 88 101.333 83.2 101.333 77.3333L101.333 56C101.333 61.8667 84.5333 66.6667 64 66.6667Z" transform="matrix(1 0 0 1.02342 3518 851.982)"/><path d="M90.6667 104C89.0667 104 88 102.933 88 101.333 88 99.7333 89.0667 98.6667 90.6667 98.6667 92.2667 98.6667 93.3333 99.7333 93.3333 101.333 93.3333 102.933 92.2667 104 90.6667 104ZM64 93.3333C43.4667 93.3333 26.6667 88.5333 26.6667 82.6667L26.6667 104C26.6667 109.867 43.4667 114.667 64 114.667 84.5333 114.667 101.333 109.867 101.333 104L101.333 82.6667C101.333 88.5333 84.5333 93.3333 64 93.3333Z" transform="matrix(1 0 0 1.02342 3518 851.982)"/></g></g></g><g><g><g><path d="M101.333 24C101.333 29.8911 84.6187 34.6667 64 34.6667 43.3814 34.6667 26.6667 29.8911 26.6667 24 26.6667 18.109 43.3814 13.3333 64 13.3333 84.6187 13.3333 101.333 18.109 101.333 24Z" transform="matrix(1 0 0 1.02342 3820 851.982)"/><path d="M90.6667 50.6667C89.0667 50.6667 88.0001 49.6 88.0001 48 88.0001 46.4 89.0667 45.3334 90.6667 45.3334 92.2667 45.3334 93.3334 46.4 93.3334 48 93.3334 49.6 92.2667 50.6667 90.6667 50.6667ZM64 40C43.4667 40 26.6667 35.2 26.6667 29.3334L26.6667 50.6667C26.6667 56.5334 43.4667 61.3334 64 61.3334 84.5334 61.3334 101.333 56.5334 101.333 50.6667L101.333 29.3334C101.333 35.2 84.5334 40 64 40Z" transform="matrix(1 0 0 1.02342 3820 851.982)"/><path d="M90.6667 77.3334C89.0667 77.3334 88.0001 76.2667 88.0001 74.6667 88.0001 73.0667 89.0667 72.0001 90.6667 72.0001 92.2667 72.0001 93.3334 73.0667 93.3334 74.6667 93.3334 76.2667 92.2667 77.3334 90.6667 77.3334ZM64 66.6667C43.4667 66.6667 26.6667 61.8667 26.6667 56L26.6667 77.3334C26.6667 83.2001 43.4667 88.0001 64 88.0001 84.5334 88.0001 101.333 83.2001 101.333 77.3334L101.333 56C101.333 61.8667 84.5334 66.6667 64 66.6667Z" transform="matrix(1 0 0 1.02342 3820 851.982)"/><path d="M90.6667 104C89.0667 104 88.0001 102.933 88.0001 101.333 88.0001 99.7334 89.0667 98.6667 90.6667 98.6667 92.2667 98.6667 93.3334 99.7334 93.3334 101.333 93.3334 102.933 92.2667 104 90.6667 104ZM64 93.3334C43.4667 93.3334 26.6667 88.5334 26.6667 82.6667L26.6667 104C26.6667 109.867 43.4667 114.667 64 114.667 84.5334 114.667 101.333 109.867 101.333 104L101.333 82.6667C101.333 88.5334 84.5334 93.3334 64 93.3334Z" transform="matrix(1 0 0 1.02342 3820 851.982)"/></g></g></g><text fill="#13501B" font-family="Arial Nova,Arial Nova_MSFontService,sans-serif" font-weight="400" font-size="37.35" transform="matrix(1 0 0 0.999979 3500.48 1013)">Annotated</text><text fill="#13501B" font-family="Arial Nova,Arial Nova_MSFontService,sans-serif" font-weight="400" font-size="37.35" transform="matrix(1 0 0 0.999979 3549.74 1058)">data</text><text fill="#13501B" font-family="Arial Nova,Arial Nova_MSFontService,sans-serif" font-weight="400" font-size="37.35" transform="matrix(1 0 0 0.999979 3796.91 1010)">Self</text><text fill="#13501B" font-family="Arial Nova,Arial Nova_MSFontService,sans-serif" font-weight="400" font-size="37.35" transform="matrix(1 0 0 0.999979 3860.59 1010)">-</text><text fill="#13501B" font-family="Arial Nova,Arial Nova_MSFontService,sans-serif" font-weight="400" font-size="37.35" transform="matrix(1 0 0 0.999979 3873.73 1010)">training</text><text fill="#13501B" font-family="Arial Nova,Arial Nova_MSFontService,sans-serif" font-weight="400" font-size="37.35" transform="matrix(1 0 0 0.999979 3795.17 1055)">pseudo data</text><path d="M2987 1187.64C2987 1149.17 3018.19 1117.98 3056.67 1117.98L4309.33 1117.98C4347.81 1117.98 4379 1149.17 4379 1187.64L4379 1466.3C4379 1504.78 4347.81 1535.97 4309.33 1535.97L3056.67 1535.97C3018.19 1535.97 2987 1504.78 2987 1466.3Z" stroke="#000000" stroke-width="8.00088" stroke-miterlimit="8" fill="#D9F2D0" fill-rule="evenodd"/><path d="M3041 1265.64C3041 1245.94 3056.97 1229.97 3076.67 1229.97L3219.33 1229.97C3239.03 1229.97 3255 1245.94 3255 1265.64L3255 1449.3C3255 1469 3239.03 1484.97 3219.33 1484.97L3076.67 1484.97C3056.97 1484.97 3041 1469 3041 1449.3Z" stroke="#000000" stroke-width="8.00088" stroke-miterlimit="8" fill="#D9F2D0" fill-rule="evenodd"/><path d="M3309 1265.47C3309 1245.87 3324.89 1229.97 3344.5 1229.97L3486.5 1229.97C3506.11 1229.97 3522 1245.87 3522 1265.47L3522 1449.47C3522 1469.08 3506.11 1484.97 3486.5 1484.97L3344.5 1484.97C3324.89 1484.97 3309 1469.08 3309 1449.47Z" stroke="#000000" stroke-width="8.00088" stroke-miterlimit="8" fill="#D9F2D0" fill-rule="evenodd"/><path d="M3576 1265.64C3576 1245.94 3591.97 1229.97 3611.67 1229.97L3754.33 1229.97C3774.03 1229.97 3790 1245.94 3790 1265.64L3790 1449.3C3790 1469 3774.03 1484.97 3754.33 1484.97L3611.67 1484.97C3591.97 1484.97 3576 1469 3576 1449.3Z" stroke="#000000" stroke-width="8.00088" stroke-miterlimit="8" fill="#D9F2D0" fill-rule="evenodd"/><path d="M3844 1265.47C3844 1245.87 3859.89 1229.97 3879.5 1229.97L4021.5 1229.97C4041.11 1229.97 4057 1245.87 4057 1265.47L4057 1449.47C4057 1469.08 4041.11 1484.97 4021.5 1484.97L3879.5 1484.97C3859.89 1484.97 3844 1469.08 3844 1449.47Z" stroke="#000000" stroke-width="8.00088" stroke-miterlimit="8" fill="#D9F2D0" fill-rule="evenodd"/><path d="M4111 1269.31C4111 1247.58 4128.61 1229.97 4150.33 1229.97L4307.67 1229.97C4329.39 1229.97 4347 1247.58 4347 1269.31L4347 1445.64C4347 1467.36 4329.39 1484.97 4307.67 1484.97L4150.33 1484.97C4128.61 1484.97 4111 1467.36 4111 1445.64Z" stroke="#000000" stroke-width="8.00088" stroke-miterlimit="8" fill="#D9F2D0" fill-rule="evenodd"/><text fill="#13501B" font-family="Arial Nova,Arial Nova_MSFontService,sans-serif" font-weight="400" font-size="48.0309" transform="matrix(1 0 0 0.999979 3463.23 1174)">Data generation flow</text><path d="M3254.15 1350.97 3283.6 1351.85 3283.3 1361.85 3253.85 1360.97ZM3278.9 1341.71 3308.44 1357.6 3278 1371.7Z"/><path d="M3522.15 1348.97 3551.6 1349.85 3551.3 1359.85 3521.85 1358.97ZM3546.9 1339.71 3576.44 1355.6 3546 1369.7Z"/><path d="M3790.15 1354.97 3819.6 1355.85 3819.3 1365.85 3789.85 1364.97ZM3814.9 1345.71 3844.44 1361.6 3814 1375.7Z"/><path d="M4057.15 1354.97 4086.6 1355.85 4086.3 1365.85 4056.85 1364.97ZM4081.9 1345.71 4111.44 1361.6 4081 1375.7Z"/><text fill="#13501B" font-family="Arial Nova,Arial Nova_MSFontService,sans-serif" font-weight="400" font-size="32.0028" transform="matrix(1 0 0 0.999979 3074.32 1272)">1. Sample</text><text fill="#13501B" font-family="Arial Nova,Arial Nova_MSFontService,sans-serif" font-weight="400" font-size="32.0028" transform="matrix(1 0 0 0.999979 3082.86 1311)">&amp; Layout</text><g><g><g><path d="M41.4999 1.35 20.0365 24.75 21.1515 25.865 20.257 26.7C16.35 30.5999 13.4365 31.6544 12.6455 31.8844L12.073 32.0239 12.029 32.3529C11.403 36.1889 9.88958 39.8257 7.60949 42.9734L7.33049 43.3234 10.677 46.6694 11.027 46.3904C14.175 44.1107 17.8116 42.5973 21.6475 41.9704L21.9975 41.9154 22.0615 41.5654C22.0675 41.5334 22.699 38.3444 27.301 33.7344L28.1555 32.8649 29.2845 33.9999 41.4999 20.8145 41.4999 19.3435 29.2575 32.5564 21.4205 24.7195 41.4999 2.8295ZM26.5895 33.0329C22.598 37.0329 21.4545 40.0419 21.165 41.0369 17.4237 41.6922 13.8719 43.1609 10.7605 45.3394L10.0605 44.6394 16.35 38.3499C17.0316 38.6411 17.8201 38.3245 18.1112 37.6429 18.4024 36.9613 18.0858 36.1728 17.4042 35.8817 16.7227 35.5905 15.9341 35.9071 15.643 36.5887 15.4992 36.9254 15.4992 37.3062 15.643 37.6429L9.35398 43.9329 8.66049 43.2394C10.8422 40.1238 12.3121 36.5664 12.966 32.8194 14.2495 32.4804 17.266 31.0979 20.9515 27.4195L21.859 26.573 27.45 32.1604Z" stroke="#000000" stroke-width="0.333333" transform="matrix(1 0 0 1.02081 3410 1394.97)"/></g></g></g><g><g><g><path d="M110.638 14.3229 14.2839 14.3229 14.2839 110.677 110.638 110.677ZM108.034 108.073 16.888 108.073 16.888 16.9271 108.034 16.9271Z" transform="matrix(1 0 0 1.23197 3354 1314.97)"/></g></g></g><g><g><g><path d="M15.4163 112.539 132.581 112.539 132.581 33.916 15.4163 33.916ZM18.4996 109.456 18.4996 87.8732 53.9572 87.8732 53.9572 109.456ZM90.9564 63.207 90.9564 84.7899 57.0405 84.7899 57.0405 63.207ZM57.0405 60.1237 57.0405 36.9992 90.9564 36.9992 90.9564 60.1237ZM94.0397 63.207 129.497 63.207 129.497 84.7899 94.0397 84.7899ZM53.9572 84.7899 18.4996 84.7899 18.4996 63.207 53.9572 63.207ZM57.0405 109.456 57.0405 87.8732 90.9564 87.8732 90.9564 109.456ZM94.0397 109.456 94.0397 87.8732 129.497 87.8732 129.497 109.456ZM129.497 60.1237 94.0397 60.1237 94.0397 36.9992 129.497 36.9992ZM53.9572 36.9992 53.9572 60.1237 18.4996 60.1237 18.4996 36.9992Z" fill="#13501B" transform="matrix(1.00002 0 0 1 3071 1335.97)"/></g></g></g><text fill="#13501B" font-family="Arial Nova,Arial Nova_MSFontService,sans-serif" font-weight="400" font-size="32.0028" transform="matrix(1 0 0 0.999979 3327.51 1272)">2. Geometry</text><text fill="#13501B" font-family="Arial Nova,Arial Nova_MSFontService,sans-serif" font-weight="400" font-size="32.0028" transform="matrix(1 0 0 0.999979 3324.76 1311)">&amp; Placement</text><text font-family="Yu Gothic,Yu Gothic_MSFontService,sans-serif" font-weight="700" font-size="23.9755" transform="matrix(1 0 0 0.999979 3373.7 1363)">空木</text><text font-family="Yu Gothic,Yu Gothic_MSFontService,sans-serif" font-weight="700" font-size="23.9755" transform="matrix(1 0 0 0.999979 3396.37 1412)">鬱</text><text font-family="Yu Gothic,Yu Gothic_MSFontService,sans-serif" font-weight="700" font-size="23.9755" transform="matrix(1 0 0 0.999979 3396.37 1441)">鑷</text><g><g><g><path d="M117.81 99.0812 97.1329 66.1246C96.7628 65.5207 96.1041 65.1541 95.3959 65.158 94.6845 65.1577 94.0228 65.5228 93.6439 66.1246L87.6023 75.8213 100.561 96.7855C101.658 98.4439 101.894 100.527 101.196 102.389L115.847 102.389C117.046 102.449 118.067 101.525 118.127 100.325 118.149 99.8881 118.039 99.4546 117.81 99.0812Z" stroke="#000000" stroke-width="0.333327" transform="matrix(1.00692 0 0 1 3608 1329.97)"/><path d="M95.3053 99.2776 62.4544 45.8251C62.0329 45.2806 61.3755 44.9716 60.6873 44.9944L60.4154 44.9944 60.1435 44.9944C59.4552 44.9716 58.7979 45.2806 58.3764 45.8251L25.5255 99.2776C25.0602 99.9287 24.9961 100.785 25.3594 101.498 25.7258 102.144 26.4521 102.498 27.1869 102.389L93.6439 102.389C94.3787 102.498 95.105 102.144 95.4714 101.498 95.8347 100.785 95.7706 99.9287 95.3053 99.2776ZM65.9132 70.8673 60.6873 75.5192 55.4613 70.8673 46.8219 76.0932 60.4154 54.0567 73.6464 75.5192Z" stroke="#000000" stroke-width="0.333327" transform="matrix(1.00692 0 0 1 3608 1329.97)"/><path d="M45.3115 48.3323C45.3115 50.8348 43.2829 52.8635 40.7804 52.8635 38.2779 52.8635 36.2492 50.8348 36.2492 48.3323 36.2492 45.8298 38.2779 43.8012 40.7804 43.8012 43.2829 43.8012 45.3115 45.8298 45.3115 48.3323Z" stroke="#000000" stroke-width="0.333327" transform="matrix(1.00692 0 0 1 3608 1329.97)"/><path d="M21.1454 111.768 21.1454 36.2492 123.852 36.2492 123.852 111.768ZM132.914 120.831 132.914 27.1869 12.0831 27.1869 12.0831 120.831Z" stroke="#000000" stroke-width="0.333327" transform="matrix(1.00692 0 0 1 3608 1329.97)"/></g></g></g><text fill="#13501B" font-family="Arial Nova,Arial Nova_MSFontService,sans-serif" font-weight="400" font-size="32.0028" transform="matrix(1 0 0 0.999979 3615.33 1272)">3. Render</text><text fill="#13501B" font-family="Arial Nova,Arial Nova_MSFontService,sans-serif" font-weight="400" font-size="32.0028" transform="matrix(1 0 0 0.999979 3617.99 1311)">Synthetic</text><g><g><g><path d="M93.4167 22.125C93.4167 27.5558 78.0078 31.9583 59 31.9583 39.9922 31.9583 24.5833 27.5558 24.5833 22.125 24.5833 16.6942 39.9922 12.2917 59 12.2917 78.0078 12.2917 93.4167 16.6942 93.4167 22.125Z" transform="matrix(1 0 0 1.0254 3893 1351.97)"/><path d="M83.5834 46.7084C82.1084 46.7084 81.125 45.725 81.125 44.25 81.125 42.775 82.1084 41.7917 83.5834 41.7917 85.0584 41.7917 86.0417 42.775 86.0417 44.25 86.0417 45.725 85.0584 46.7084 83.5834 46.7084ZM59 36.875C40.0709 36.875 24.5833 32.45 24.5833 27.0417L24.5833 46.7084C24.5833 52.1167 40.0709 56.5417 59 56.5417 77.9292 56.5417 93.4167 52.1167 93.4167 46.7084L93.4167 27.0417C93.4167 32.45 77.9292 36.875 59 36.875Z" transform="matrix(1 0 0 1.0254 3893 1351.97)"/><path d="M83.5834 71.2917C82.1084 71.2917 81.125 70.3084 81.125 68.8334 81.125 67.3584 82.1084 66.375 83.5834 66.375 85.0584 66.375 86.0417 67.3584 86.0417 68.8334 86.0417 70.3084 85.0584 71.2917 83.5834 71.2917ZM59 61.4584C40.0709 61.4584 24.5833 57.0334 24.5833 51.625L24.5833 71.2917C24.5833 76.7 40.0709 81.125 59 81.125 77.9292 81.125 93.4167 76.7 93.4167 71.2917L93.4167 51.625C93.4167 57.0334 77.9292 61.4584 59 61.4584Z" transform="matrix(1 0 0 1.0254 3893 1351.97)"/><path d="M83.5834 95.875C82.1084 95.875 81.125 94.8917 81.125 93.4167 81.125 91.9417 82.1084 90.9584 83.5834 90.9584 85.0584 90.9584 86.0417 91.9417 86.0417 93.4167 86.0417 94.8917 85.0584 95.875 83.5834 95.875ZM59 86.0417C40.0709 86.0417 24.5833 81.6167 24.5833 76.2084L24.5833 95.875C24.5833 101.283 40.0709 105.708 59 105.708 77.9292 105.708 93.4167 101.283 93.4167 95.875L93.4167 76.2084C93.4167 81.6167 77.9292 86.0417 59 86.0417Z" transform="matrix(1 0 0 1.0254 3893 1351.97)"/></g></g></g><text fill="#13501B" font-family="Arial Nova,Arial Nova_MSFontService,sans-serif" font-weight="400" font-size="32.0028" transform="matrix(1 0 0 0.999979 3874.19 1272)">4. Mix data</text><text fill="#13501B" font-family="Arial Nova,Arial Nova_MSFontService,sans-serif" font-weight="400" font-size="32.0028" transform="matrix(1 0 0 0.999979 3913 1311)">pools</text><text fill="#13501B" font-family="Arial Nova,Arial Nova_MSFontService,sans-serif" font-weight="400" font-size="32.0028" transform="matrix(1 0 0 0.999979 4215.54 1272)">5.</text><text fill="#13501B" font-family="Arial Nova,Arial Nova_MSFontService,sans-serif" font-weight="400" font-size="32.0028" transform="matrix(1 0 0 0.999979 4122.34 1311)">Augmentations</text><g><g><g><path d="M100.448 14.0935 100.448 14.0935C99.8073 20.6277 101.857 27.1619 106.342 31.9025L106.342 31.9025C99.8073 32.2868 93.7855 35.4899 89.8137 40.7429L89.8137 40.7429C90.4543 34.2087 88.4044 27.6744 83.9201 22.9339L83.9201 22.9339C90.4543 22.4214 96.4761 19.2183 100.448 14.0935Z" transform="matrix(1.00002 0 0 1 4169 1334.97)"/><path d="M60.8581 17.6809C60.2175 26.0088 62.7799 33.6962 67.9048 38.9492L67.9048 38.9492C60.6018 39.2054 53.2989 43.0491 48.0459 49.4552L48.0459 49.4552C48.6865 41.2554 46.124 33.4399 40.9991 28.1869L40.9991 28.1869C48.3021 27.9307 55.6051 24.087 60.8581 17.6809L60.8581 17.6809Z" transform="matrix(1.00002 0 0 1 4169 1334.97)"/><path d="M99.4229 50.2239 99.4229 50.2239C98.9104 54.8363 100.448 59.3206 103.523 62.7799L103.523 62.7799C98.9104 63.0362 94.6824 65.3424 91.8637 68.9298L91.8637 68.9298C92.3762 64.3174 90.8387 59.8331 87.7638 56.3738L87.7638 56.3738C92.3762 56.1176 96.6042 53.8114 99.4229 50.2239Z" transform="matrix(1.00002 0 0 1 4169 1334.97)"/><path d="M4185.21 1437.33 4231.15 1391.4 4238.39 1398.65 4192.46 1444.58Z"/><path d="M4234.76 1387.9 4246.08 1376.58 4253.33 1383.83 4242.01 1395.15Z"/></g></g></g><path d="M5.09712e-06-10.6676 166.406-10.6675 166.406 10.6677-5.09712e-06 10.6676ZM155.738-32.0028 219.744 0.000104996 155.738 32.0029Z" fill="#0D3512" transform="matrix(-1.00002 0 0 1 1958.25 1887.46)"/><path d="M2940 2262.12C2940 2172.56 3012.61 2099.96 3102.17 2099.96L4254.83 2099.96C4344.39 2099.96 4417 2172.56 4417 2262.12L4417 2910.77C4417 3000.33 4344.39 3072.94 4254.83 3072.94L3102.17 3072.94C3012.61 3072.94 2940 3000.33 2940 2910.77Z" stroke="#000000" stroke-width="8.00088" stroke-miterlimit="8" fill="#D9F2D0" fill-rule="evenodd"/><text fill="#13501B" font-family="Arial Nova,Arial Nova_MSFontService,sans-serif" font-weight="700" font-size="88.0078" transform="matrix(1 0 0 0.999979 3062.65 2200)">Worker N</text><path d="M2997 2287.62C2997 2254.67 3023.71 2227.95 3056.67 2227.95L4025.33 2227.95C4058.29 2227.95 4085 2254.67 4085 2287.62L4085 2526.28C4085 2559.23 4058.29 2585.95 4025.33 2585.95L3056.67 2585.95C3023.71 2585.95 2997 2559.23 2997 2526.28Z" stroke="#000000" stroke-width="8.00088" stroke-miterlimit="8" fill="#D9F2D0" fill-rule="evenodd"/><g><g><g><path d="M81.6649 46.6657 103.539 46.6657 103.539 49.5823 81.6649 49.5823Z" stroke="#000000" stroke-width="4.88362" transform="matrix(1.00716 0 0 1 3046 2325.95)"/><path d="M81.6649 55.4155 103.539 55.4155 103.539 58.3321 81.6649 58.3321Z" stroke="#000000" stroke-width="4.88362" transform="matrix(1.00716 0 0 1 3046 2325.95)"/><path d="M81.6649 64.1653 96.248 64.1653 96.248 67.0819 81.6649 67.0819Z" stroke="#000000" stroke-width="4.88362" transform="matrix(1.00716 0 0 1 3046 2325.95)"/><path d="M126.872 34.9993 118.122 34.9993 118.122 28.5827C118.123 27.9599 117.727 27.4056 117.138 27.2032 101.848 22.0991 85.3228 22.0428 69.9985 27.0428 54.6744 22.0424 38.149 22.0981 22.8589 27.2017 22.2693 27.4043 21.8737 27.9593 21.8745 28.5827L21.8745 34.9993 13.1247 34.9993C12.3193 34.9993 11.6664 35.6521 11.6664 36.4576L11.6664 106.456C11.6664 107.261 12.3193 107.914 13.1247 107.914L59.9362 107.914C60.548 110.48 62.8406 112.29 65.4778 112.289L74.5192 112.289C77.1564 112.29 79.449 110.48 80.0608 107.914L126.872 107.914C127.678 107.914 128.331 107.261 128.331 106.456L128.331 36.4576C128.331 35.6521 127.678 34.9993 126.872 34.9993ZM115.206 29.6327 115.206 96.5688C100.943 92.2464 85.7196 92.2464 71.4568 96.5688L71.4568 29.6327C85.691 25.1216 100.972 25.1216 115.206 29.6327ZM24.7911 29.6327C39.0253 25.1216 54.306 25.1216 68.5402 29.6327L68.5402 96.5688C54.2774 92.2464 39.0539 92.2464 24.7911 96.5688ZM125.414 104.998 78.7483 104.998C77.9429 104.998 77.29 105.651 77.29 106.456L77.29 106.602C77.29 108.132 76.0494 109.373 74.5192 109.373L65.4778 109.373C63.9476 109.373 62.707 108.132 62.707 106.602L62.707 106.456C62.707 105.651 62.0541 104.998 61.2487 104.998L14.583 104.998 14.583 37.9159 21.8745 37.9159 21.8745 98.5812C21.8742 99.3867 22.527 100.04 23.3324 100.04 23.4938 100.04 23.6541 100.013 23.8068 99.9608 38.6443 95.0123 54.6871 95.0123 69.5246 99.9608 69.5486 99.9662 69.573 99.9701 69.5975 99.9725 69.7053 100.004 69.8164 100.023 69.9285 100.028 69.9518 100.028 69.9752 100.04 69.9985 100.04 70.0218 100.04 70.035 100.032 70.0525 100.031 70.1634 100.027 70.2735 100.011 70.3806 99.9812 70.4039 99.9812 70.4287 99.9725 70.4535 99.9652L70.4725 99.9652C85.31 95.0167 101.353 95.0167 116.19 99.9652 116.343 100.016 116.503 100.041 116.664 100.04 117.47 100.04 118.122 99.3867 118.122 98.5812L118.122 37.9159 125.414 37.9159Z" stroke="#000000" stroke-width="4.88362" transform="matrix(1.00716 0 0 1 3046 2325.95)"/></g></g></g><g><g><g><path d="M118.623 99.7646 97.8027 66.5807C97.4301 65.9725 96.7669 65.6034 96.0538 65.6074 95.3375 65.6071 94.6713 65.9746 94.2897 66.5807L88.2065 76.3442 101.255 97.453C102.359 99.1228 102.597 101.221 101.894 103.095L116.645 103.095C117.853 103.156 118.882 102.225 118.942 101.017 118.964 100.577 118.853 100.141 118.623 99.7646Z" transform="matrix(1.00002 0 0 1 3236 2322.95)"/><path d="M95.9626 99.9623 62.8851 46.1411C62.4607 45.5929 61.7988 45.2817 61.1058 45.3047L60.8321 45.3047 60.5583 45.3047C59.8653 45.2817 59.2034 45.5929 58.779 46.1411L25.7015 99.9623C25.233 100.618 25.1685 101.48 25.5343 102.198 25.9032 102.848 26.6346 103.205 27.3744 103.095L94.2897 103.095C95.0296 103.205 95.7609 102.848 96.1299 102.198 96.4956 101.48 96.4311 100.618 95.9626 99.9623ZM66.3678 71.356 61.1058 76.0401 55.8438 71.356 47.1448 76.618 60.8321 54.4295 74.1543 76.0401Z" transform="matrix(1.00002 0 0 1 3236 2322.95)"/><path d="M45.624 48.6656C45.624 51.1854 43.5814 53.2281 41.0616 53.2281 38.5419 53.2281 36.4992 51.1854 36.4992 48.6656 36.4992 46.1459 38.5419 44.1032 41.0616 44.1032 43.5814 44.1032 45.624 46.1459 45.624 48.6656Z" transform="matrix(1.00002 0 0 1 3236 2322.95)"/><path d="M21.2912 112.539 21.2912 36.4992 124.706 36.4992 124.706 112.539ZM133.831 121.664 133.831 27.3744 12.1664 27.3744 12.1664 121.664Z" transform="matrix(1.00002 0 0 1 3236 2322.95)"/></g></g></g><text fill="#13501B" font-family="Arial Nova,Arial Nova_MSFontService,sans-serif" font-weight="400" font-size="37.35" transform="matrix(1 0 0 0.999979 3068.52 2500)">Atlas</text><text fill="#13501B" font-family="Arial Nova,Arial Nova_MSFontService,sans-serif" font-weight="400" font-size="37.35" transform="matrix(1 0 0 0.999979 3208.36 2502)">Background</text><text fill="#13501B" font-family="Arial Nova,Arial Nova_MSFontService,sans-serif" font-weight="400" font-size="48.0309" transform="matrix(1 0 0 0.999979 3106.37 2313)">Resources</text><path d="M3454 2305.62C3454 2277.08 3477.13 2253.95 3505.67 2253.95L4003.33 2253.95C4031.87 2253.95 4055 2277.08 4055 2305.62L4055 2512.28C4055 2540.81 4031.87 2563.95 4003.33 2563.95L3505.67 2563.95C3477.13 2563.95 3454 2540.81 3454 2512.28Z" stroke="#000000" stroke-width="8.00088" stroke-miterlimit="8" fill="#D9F2D0" fill-rule="evenodd"/><text fill="#13501B" font-family="Arial Nova,Arial Nova_MSFontService,sans-serif" font-weight="400" font-size="48.0309" transform="matrix(1 0 0 0.999979 3603.18 2313)">Real data pools</text><g><g><g><path d="M101.333 24C101.333 29.891 84.6186 34.6667 64 34.6667 43.3814 34.6667 26.6667 29.891 26.6667 24 26.6667 18.109 43.3814 13.3333 64 13.3333 84.6186 13.3333 101.333 18.109 101.333 24Z" transform="matrix(1 0 0 1.02342 3518 2335.95)"/><path d="M90.6667 50.6667C89.0667 50.6667 88 49.6 88 48 88 46.4 89.0667 45.3333 90.6667 45.3333 92.2667 45.3333 93.3333 46.4 93.3333 48 93.3333 49.6 92.2667 50.6667 90.6667 50.6667ZM64 40C43.4667 40 26.6667 35.2 26.6667 29.3333L26.6667 50.6667C26.6667 56.5333 43.4667 61.3333 64 61.3333 84.5333 61.3333 101.333 56.5333 101.333 50.6667L101.333 29.3333C101.333 35.2 84.5333 40 64 40Z" transform="matrix(1 0 0 1.02342 3518 2335.95)"/><path d="M90.6667 77.3333C89.0667 77.3333 88 76.2667 88 74.6667 88 73.0667 89.0667 72 90.6667 72 92.2667 72 93.3333 73.0667 93.3333 74.6667 93.3333 76.2667 92.2667 77.3333 90.6667 77.3333ZM64 66.6667C43.4667 66.6667 26.6667 61.8667 26.6667 56L26.6667 77.3333C26.6667 83.2 43.4667 88 64 88 84.5333 88 101.333 83.2 101.333 77.3333L101.333 56C101.333 61.8667 84.5333 66.6667 64 66.6667Z" transform="matrix(1 0 0 1.02342 3518 2335.95)"/><path d="M90.6667 104C89.0667 104 88 102.933 88 101.333 88 99.7333 89.0667 98.6667 90.6667 98.6667 92.2667 98.6667 93.3333 99.7333 93.3333 101.333 93.3333 102.933 92.2667 104 90.6667 104ZM64 93.3333C43.4667 93.3333 26.6667 88.5333 26.6667 82.6667L26.6667 104C26.6667 109.867 43.4667 114.667 64 114.667 84.5333 114.667 101.333 109.867 101.333 104L101.333 82.6667C101.333 88.5333 84.5333 93.3333 64 93.3333Z" transform="matrix(1 0 0 1.02342 3518 2335.95)"/></g></g></g><g><g><g><path d="M101.333 24C101.333 29.8911 84.6187 34.6667 64 34.6667 43.3814 34.6667 26.6667 29.8911 26.6667 24 26.6667 18.109 43.3814 13.3333 64 13.3333 84.6187 13.3333 101.333 18.109 101.333 24Z" transform="matrix(1 0 0 1.02342 3820 2335.95)"/><path d="M90.6667 50.6667C89.0667 50.6667 88.0001 49.6 88.0001 48 88.0001 46.4 89.0667 45.3334 90.6667 45.3334 92.2667 45.3334 93.3334 46.4 93.3334 48 93.3334 49.6 92.2667 50.6667 90.6667 50.6667ZM64 40C43.4667 40 26.6667 35.2 26.6667 29.3334L26.6667 50.6667C26.6667 56.5334 43.4667 61.3334 64 61.3334 84.5334 61.3334 101.333 56.5334 101.333 50.6667L101.333 29.3334C101.333 35.2 84.5334 40 64 40Z" transform="matrix(1 0 0 1.02342 3820 2335.95)"/><path d="M90.6667 77.3334C89.0667 77.3334 88.0001 76.2667 88.0001 74.6667 88.0001 73.0667 89.0667 72.0001 90.6667 72.0001 92.2667 72.0001 93.3334 73.0667 93.3334 74.6667 93.3334 76.2667 92.2667 77.3334 90.6667 77.3334ZM64 66.6667C43.4667 66.6667 26.6667 61.8667 26.6667 56L26.6667 77.3334C26.6667 83.2001 43.4667 88.0001 64 88.0001 84.5334 88.0001 101.333 83.2001 101.333 77.3334L101.333 56C101.333 61.8667 84.5334 66.6667 64 66.6667Z" transform="matrix(1 0 0 1.02342 3820 2335.95)"/><path d="M90.6667 104C89.0667 104 88.0001 102.933 88.0001 101.333 88.0001 99.7334 89.0667 98.6667 90.6667 98.6667 92.2667 98.6667 93.3334 99.7334 93.3334 101.333 93.3334 102.933 92.2667 104 90.6667 104ZM64 93.3334C43.4667 93.3334 26.6667 88.5334 26.6667 82.6667L26.6667 104C26.6667 109.867 43.4667 114.667 64 114.667 84.5334 114.667 101.333 109.867 101.333 104L101.333 82.6667C101.333 88.5334 84.5334 93.3334 64 93.3334Z" transform="matrix(1 0 0 1.02342 3820 2335.95)"/></g></g></g><text fill="#13501B" font-family="Arial Nova,Arial Nova_MSFontService,sans-serif" font-weight="400" font-size="37.35" transform="matrix(1 0 0 0.999979 3500.48 2496)">Annotated</text><text fill="#13501B" font-family="Arial Nova,Arial Nova_MSFontService,sans-serif" font-weight="400" font-size="37.35" transform="matrix(1 0 0 0.999979 3549.74 2541)">data</text><text fill="#13501B" font-family="Arial Nova,Arial Nova_MSFontService,sans-serif" font-weight="400" font-size="37.35" transform="matrix(1 0 0 0.999979 3796.91 2493)">Self</text><text fill="#13501B" font-family="Arial Nova,Arial Nova_MSFontService,sans-serif" font-weight="400" font-size="37.35" transform="matrix(1 0 0 0.999979 3860.59 2493)">-</text><text fill="#13501B" font-family="Arial Nova,Arial Nova_MSFontService,sans-serif" font-weight="400" font-size="37.35" transform="matrix(1 0 0 0.999979 3873.73 2493)">training</text><text fill="#13501B" font-family="Arial Nova,Arial Nova_MSFontService,sans-serif" font-weight="400" font-size="37.35" transform="matrix(1 0 0 0.999979 3795.17 2538)">pseudo data</text><path d="M2987 2671.61C2987 2633.14 3018.19 2601.95 3056.67 2601.95L4309.33 2601.95C4347.81 2601.95 4379 2633.14 4379 2671.61L4379 2950.27C4379 2988.75 4347.81 3019.94 4309.33 3019.94L3056.67 3019.94C3018.19 3019.94 2987 2988.75 2987 2950.27Z" stroke="#000000" stroke-width="8.00088" stroke-miterlimit="8" fill="#D9F2D0" fill-rule="evenodd"/><path d="M3041 2748.61C3041 2728.91 3056.97 2712.94 3076.67 2712.94L3219.33 2712.94C3239.03 2712.94 3255 2728.91 3255 2748.61L3255 2933.27C3255 2952.97 3239.03 2968.94 3219.33 2968.94L3076.67 2968.94C3056.97 2968.94 3041 2952.97 3041 2933.27Z" stroke="#000000" stroke-width="8.00088" stroke-miterlimit="8" fill="#D9F2D0" fill-rule="evenodd"/><path d="M3309 2748.44C3309 2728.84 3324.89 2712.94 3344.5 2712.94L3486.5 2712.94C3506.11 2712.94 3522 2728.84 3522 2748.44L3522 2933.44C3522 2953.04 3506.11 2968.94 3486.5 2968.94L3344.5 2968.94C3324.89 2968.94 3309 2953.04 3309 2933.44Z" stroke="#000000" stroke-width="8.00088" stroke-miterlimit="8" fill="#D9F2D0" fill-rule="evenodd"/><path d="M3576 2748.61C3576 2728.91 3591.97 2712.94 3611.67 2712.94L3754.33 2712.94C3774.03 2712.94 3790 2728.91 3790 2748.61L3790 2933.27C3790 2952.97 3774.03 2968.94 3754.33 2968.94L3611.67 2968.94C3591.97 2968.94 3576 2952.97 3576 2933.27Z" stroke="#000000" stroke-width="8.00088" stroke-miterlimit="8" fill="#D9F2D0" fill-rule="evenodd"/><path d="M3844 2748.44C3844 2728.84 3859.89 2712.94 3879.5 2712.94L4021.5 2712.94C4041.11 2712.94 4057 2728.84 4057 2748.44L4057 2933.44C4057 2953.04 4041.11 2968.94 4021.5 2968.94L3879.5 2968.94C3859.89 2968.94 3844 2953.04 3844 2933.44Z" stroke="#000000" stroke-width="8.00088" stroke-miterlimit="8" fill="#D9F2D0" fill-rule="evenodd"/><path d="M4111 2752.28C4111 2730.55 4128.61 2712.94 4150.33 2712.94L4307.67 2712.94C4329.39 2712.94 4347 2730.55 4347 2752.28L4347 2929.6C4347 2951.33 4329.39 2968.94 4307.67 2968.94L4150.33 2968.94C4128.61 2968.94 4111 2951.33 4111 2929.6Z" stroke="#000000" stroke-width="8.00088" stroke-miterlimit="8" fill="#D9F2D0" fill-rule="evenodd"/><text fill="#13501B" font-family="Arial Nova,Arial Nova_MSFontService,sans-serif" font-weight="400" font-size="48.0309" transform="matrix(1 0 0 0.999979 3463.23 2658)">Data generation flow</text><path d="M3254.15 2833.94 3283.6 2834.82 3283.3 2844.82 3253.85 2843.94ZM3278.9 2824.68 3308.44 2840.57 3278 2854.67Z"/><path d="M3522.15 2832.94 3551.6 2833.82 3551.3 2843.82 3521.85 2842.94ZM3546.9 2823.68 3576.44 2839.57 3546 2853.67Z"/><path d="M3790.15 2838.94 3819.6 2839.82 3819.3 2849.82 3789.85 2848.94ZM3814.9 2829.68 3844.44 2845.57 3814 2859.67Z"/><path d="M4057.15 2838.94 4086.6 2839.82 4086.3 2849.82 4056.85 2848.94ZM4081.9 2829.68 4111.44 2845.57 4081 2859.67Z"/><text fill="#13501B" font-family="Arial Nova,Arial Nova_MSFontService,sans-serif" font-weight="400" font-size="32.0028" transform="matrix(1 0 0 0.999979 3074.32 2755)">1. Sample</text><text fill="#13501B" font-family="Arial Nova,Arial Nova_MSFontService,sans-serif" font-weight="400" font-size="32.0028" transform="matrix(1 0 0 0.999979 3082.86 2794)">&amp; Layout</text><g><g><g><path d="M41.4999 1.35 20.0365 24.75 21.1515 25.865 20.257 26.7C16.35 30.5999 13.4365 31.6544 12.6455 31.8844L12.073 32.0239 12.029 32.3529C11.403 36.1889 9.88958 39.8257 7.60949 42.9734L7.33049 43.3234 10.677 46.6694 11.027 46.3904C14.175 44.1107 17.8116 42.5973 21.6475 41.9704L21.9975 41.9154 22.0615 41.5654C22.0675 41.5334 22.699 38.3444 27.301 33.7344L28.1555 32.8649 29.2845 33.9999 41.4999 20.8145 41.4999 19.3435 29.2575 32.5564 21.4205 24.7195 41.4999 2.8295ZM26.5895 33.0329C22.598 37.0329 21.4545 40.0419 21.165 41.0369 17.4237 41.6922 13.8719 43.1609 10.7605 45.3394L10.0605 44.6394 16.35 38.3499C17.0316 38.6411 17.8201 38.3245 18.1112 37.6429 18.4024 36.9613 18.0858 36.1728 17.4042 35.8817 16.7227 35.5905 15.9341 35.9071 15.643 36.5887 15.4992 36.9254 15.4992 37.3062 15.643 37.6429L9.35398 43.9329 8.66049 43.2394C10.8422 40.1238 12.3121 36.5664 12.966 32.8194 14.2495 32.4804 17.266 31.0979 20.9515 27.4195L21.859 26.573 27.45 32.1604Z" stroke="#000000" stroke-width="0.333333" transform="matrix(1 0 0 1.02081 3410 2877.94)"/></g></g></g><g><g><g><path d="M110.638 14.3229 14.2839 14.3229 14.2839 110.677 110.638 110.677ZM108.034 108.073 16.888 108.073 16.888 16.9271 108.034 16.9271Z" transform="matrix(1 0 0 1.23197 3354 2797.94)"/></g></g></g><g><g><g><path d="M15.4163 112.539 132.581 112.539 132.581 33.916 15.4163 33.916ZM18.4996 109.456 18.4996 87.8732 53.9572 87.8732 53.9572 109.456ZM90.9564 63.207 90.9564 84.7899 57.0405 84.7899 57.0405 63.207ZM57.0405 60.1237 57.0405 36.9992 90.9564 36.9992 90.9564 60.1237ZM94.0397 63.207 129.497 63.207 129.497 84.7899 94.0397 84.7899ZM53.9572 84.7899 18.4996 84.7899 18.4996 63.207 53.9572 63.207ZM57.0405 109.456 57.0405 87.8732 90.9564 87.8732 90.9564 109.456ZM94.0397 109.456 94.0397 87.8732 129.497 87.8732 129.497 109.456ZM129.497 60.1237 94.0397 60.1237 94.0397 36.9992 129.497 36.9992ZM53.9572 36.9992 53.9572 60.1237 18.4996 60.1237 18.4996 36.9992Z" fill="#13501B" transform="matrix(1.00002 0 0 1 3071 2819.94)"/></g></g></g><text fill="#13501B" font-family="Arial Nova,Arial Nova_MSFontService,sans-serif" font-weight="400" font-size="32.0028" transform="matrix(1 0 0 0.999979 3327.51 2755)">2. Geometry</text><text fill="#13501B" font-family="Arial Nova,Arial Nova_MSFontService,sans-serif" font-weight="400" font-size="32.0028" transform="matrix(1 0 0 0.999979 3324.76 2794)">&amp; Placement</text><text font-family="Yu Gothic,Yu Gothic_MSFontService,sans-serif" font-weight="700" font-size="23.9755" transform="matrix(1 0 0 0.999979 3373.7 2846)">空木</text><text font-family="Yu Gothic,Yu Gothic_MSFontService,sans-serif" font-weight="700" font-size="23.9755" transform="matrix(1 0 0 0.999979 3396.37 2895)">鬱</text><text font-family="Yu Gothic,Yu Gothic_MSFontService,sans-serif" font-weight="700" font-size="23.9755" transform="matrix(1 0 0 0.999979 3396.37 2924)">鑷</text><g><g><g><path d="M117.81 99.0813 97.1329 66.1247C96.7629 65.5207 96.1042 65.1541 95.396 65.1581 94.6846 65.1578 94.0229 65.5228 93.6439 66.1247L87.6024 75.8214 100.562 96.7855C101.658 98.4439 101.894 100.527 101.196 102.389L115.847 102.389C117.046 102.449 118.067 101.525 118.127 100.325 118.149 99.8882 118.039 99.4547 117.81 99.0813Z" stroke="#000000" stroke-width="0.333327" transform="matrix(1.00692 0 0 1 3608 2812.94)"/><path d="M95.3054 99.2777 62.4545 45.8251C62.0329 45.2806 61.3756 44.9716 60.6873 44.9944L60.4154 44.9944 60.1436 44.9944C59.4553 44.9716 58.798 45.2806 58.3764 45.8251L25.5255 99.2777C25.0602 99.9288 24.9961 100.785 25.3594 101.498 25.7258 102.144 26.4521 102.498 27.1869 102.389L93.6439 102.389C94.3787 102.498 95.1051 102.144 95.4715 101.498 95.8347 100.785 95.7707 99.9288 95.3054 99.2777ZM65.9132 70.8673 60.6873 75.5193 55.4614 70.8673 46.822 76.0932 60.4154 54.0567 73.6464 75.5193Z" stroke="#000000" stroke-width="0.333327" transform="matrix(1.00692 0 0 1 3608 2812.94)"/><path d="M45.3116 48.3324C45.3116 50.8348 43.2829 52.8635 40.7804 52.8635 38.2779 52.8635 36.2493 50.8348 36.2493 48.3324 36.2493 45.8299 38.2779 43.8012 40.7804 43.8012 43.2829 43.8012 45.3116 45.8299 45.3116 48.3324Z" stroke="#000000" stroke-width="0.333327" transform="matrix(1.00692 0 0 1 3608 2812.94)"/><path d="M21.1454 111.769 21.1454 36.2493 123.852 36.2493 123.852 111.769ZM132.914 120.831 132.914 27.1869 12.0831 27.1869 12.0831 120.831Z" stroke="#000000" stroke-width="0.333327" transform="matrix(1.00692 0 0 1 3608 2812.94)"/></g></g></g><text fill="#13501B" font-family="Arial Nova,Arial Nova_MSFontService,sans-serif" font-weight="400" font-size="32.0028" transform="matrix(1 0 0 0.999979 3615.33 2755)">3. Render</text><text fill="#13501B" font-family="Arial Nova,Arial Nova_MSFontService,sans-serif" font-weight="400" font-size="32.0028" transform="matrix(1 0 0 0.999979 3617.99 2794)">Synthetic</text><g><g><g><path d="M93.4167 22.125C93.4167 27.5558 78.0078 31.9583 59 31.9583 39.9922 31.9583 24.5833 27.5558 24.5833 22.125 24.5833 16.6942 39.9922 12.2917 59 12.2917 78.0078 12.2917 93.4167 16.6942 93.4167 22.125Z" transform="matrix(1 0 0 1.0254 3893 2835.94)"/><path d="M83.5834 46.7084C82.1084 46.7084 81.125 45.725 81.125 44.25 81.125 42.775 82.1084 41.7917 83.5834 41.7917 85.0584 41.7917 86.0417 42.775 86.0417 44.25 86.0417 45.725 85.0584 46.7084 83.5834 46.7084ZM59 36.875C40.0709 36.875 24.5833 32.45 24.5833 27.0417L24.5833 46.7084C24.5833 52.1167 40.0709 56.5417 59 56.5417 77.9292 56.5417 93.4167 52.1167 93.4167 46.7084L93.4167 27.0417C93.4167 32.45 77.9292 36.875 59 36.875Z" transform="matrix(1 0 0 1.0254 3893 2835.94)"/><path d="M83.5834 71.2917C82.1084 71.2917 81.125 70.3084 81.125 68.8334 81.125 67.3584 82.1084 66.375 83.5834 66.375 85.0584 66.375 86.0417 67.3584 86.0417 68.8334 86.0417 70.3084 85.0584 71.2917 83.5834 71.2917ZM59 61.4584C40.0709 61.4584 24.5833 57.0334 24.5833 51.625L24.5833 71.2917C24.5833 76.7 40.0709 81.125 59 81.125 77.9292 81.125 93.4167 76.7 93.4167 71.2917L93.4167 51.625C93.4167 57.0334 77.9292 61.4584 59 61.4584Z" transform="matrix(1 0 0 1.0254 3893 2835.94)"/><path d="M83.5834 95.875C82.1084 95.875 81.125 94.8917 81.125 93.4167 81.125 91.9417 82.1084 90.9584 83.5834 90.9584 85.0584 90.9584 86.0417 91.9417 86.0417 93.4167 86.0417 94.8917 85.0584 95.875 83.5834 95.875ZM59 86.0417C40.0709 86.0417 24.5833 81.6167 24.5833 76.2084L24.5833 95.875C24.5833 101.283 40.0709 105.708 59 105.708 77.9292 105.708 93.4167 101.283 93.4167 95.875L93.4167 76.2084C93.4167 81.6167 77.9292 86.0417 59 86.0417Z" transform="matrix(1 0 0 1.0254 3893 2835.94)"/></g></g></g><text fill="#13501B" font-family="Arial Nova,Arial Nova_MSFontService,sans-serif" font-weight="400" font-size="32.0028" transform="matrix(1 0 0 0.999979 3874.19 2755)">4. Mix data</text><text fill="#13501B" font-family="Arial Nova,Arial Nova_MSFontService,sans-serif" font-weight="400" font-size="32.0028" transform="matrix(1 0 0 0.999979 3913 2794)">pools</text><text fill="#13501B" font-family="Arial Nova,Arial Nova_MSFontService,sans-serif" font-weight="400" font-size="32.0028" transform="matrix(1 0 0 0.999979 4215.54 2755)">5.</text><text fill="#13501B" font-family="Arial Nova,Arial Nova_MSFontService,sans-serif" font-weight="400" font-size="32.0028" transform="matrix(1 0 0 0.999979 4122.34 2794)">Augmentations</text><g><g><g><path d="M100.448 14.0935 100.448 14.0935C99.8073 20.6277 101.857 27.1619 106.342 31.9025L106.342 31.9025C99.8073 32.2868 93.7855 35.4899 89.8137 40.7429L89.8137 40.7429C90.4543 34.2087 88.4044 27.6744 83.9201 22.9339L83.9201 22.9339C90.4543 22.4214 96.4761 19.2183 100.448 14.0935Z" transform="matrix(1.00002 0 0 1 4169 2818.94)"/><path d="M60.8581 17.6809C60.2175 26.0088 62.7799 33.6962 67.9048 38.9492L67.9048 38.9492C60.6018 39.2054 53.2989 43.0491 48.0459 49.4552L48.0459 49.4552C48.6865 41.2554 46.124 33.4399 40.9991 28.1869L40.9991 28.1869C48.3021 27.9307 55.6051 24.087 60.8581 17.6809L60.8581 17.6809Z" transform="matrix(1.00002 0 0 1 4169 2818.94)"/><path d="M99.4229 50.2239 99.4229 50.2239C98.9104 54.8363 100.448 59.3206 103.523 62.7799L103.523 62.7799C98.9104 63.0362 94.6824 65.3424 91.8637 68.9298L91.8637 68.9298C92.3762 64.3174 90.8387 59.8331 87.7638 56.3738L87.7638 56.3738C92.3762 56.1176 96.6042 53.8114 99.4229 50.2239Z" transform="matrix(1.00002 0 0 1 4169 2818.94)"/><path d="M4185.21 2921.3 4231.15 2875.37 4238.39 2882.62 4192.46 2928.55Z"/><path d="M4234.76 2871.87 4246.08 2860.55 4253.33 2867.79 4242.01 2879.12Z"/></g></g></g><text fill="#0D3512" font-family="Arial Nova,Arial Nova_MSFontService,sans-serif" font-weight="700" font-size="88.0078" transform="matrix(1 0 0 0.999979 2021 1510)">Data loader</text><path d="M5.09712e-06-10.6676 166.406-10.6675 166.406 10.6677-5.09712e-06 10.6676ZM155.738-32.0028 219.744 0.000104996 155.738 32.0029Z" fill="#80350E" transform="matrix(-1.00002 0 0 1 2783.25 1882.46)"/><path d="M2793.5 1078.48 2793.5 2598.61" stroke="#80350E" stroke-width="21.3357" stroke-miterlimit="8" fill="none" fill-rule="evenodd"/><path d="M0 0 149.68 0.000104996" stroke="#80350E" stroke-width="21.3352" stroke-miterlimit="8" fill="none" fill-rule="evenodd" transform="matrix(-1.00002 0 0 1 2940.18 2587.45)"/><path d="M0 0 146.863 0.000104996" stroke="#80350E" stroke-width="21.3352" stroke-miterlimit="8" fill="none" fill-rule="evenodd" transform="matrix(-1.00002 0 0 1 2941.37 1089.48)"/><path d="M71.5 1392.48C71.5 1227.9 204.922 1094.48 369.506 1094.48L1561.49 1094.48C1726.08 1094.48 1859.5 1227.9 1859.5 1392.48L1859.5 2584.44C1859.5 2749.02 1726.08 2882.44 1561.49 2882.44L369.506 2882.44C204.922 2882.44 71.5 2749.02 71.5 2584.44Z" stroke="#042433" stroke-width="21.3357" stroke-miterlimit="8" stroke-dasharray="85.3427 64.007" fill="none" fill-rule="evenodd"/><path d="M1906.5 829.992C1906.5 586.71 2103.72 389.492 2347.01 389.492L4108.99 389.492C4352.28 389.492 4549.5 586.71 4549.5 829.992L4549.5 2737.93C4549.5 2981.22 4352.28 3178.43 4108.99 3178.43L2347.01 3178.43C2103.72 3178.43 1906.5 2981.22 1906.5 2737.93Z" stroke="#042433" stroke-width="21.3357" stroke-miterlimit="8" stroke-dasharray="85.3427 64.007" fill="none" fill-rule="evenodd"/><text font-family="Arial Nova,Arial Nova_MSFontService,sans-serif" font-weight="700" font-size="128.011" transform="matrix(1 0 0 0.999979 819.824 1282)">GPU</text><text font-family="Arial Nova,Arial Nova_MSFontService,sans-serif" font-weight="700" font-size="128.011" transform="matrix(1 0 0 0.999979 3079.44 530)">CPU</text><path d="M2007 1673.97C2007 1664.02 2015.06 1655.97 2025 1655.97L2496 1655.97C2505.94 1655.97 2514 1664.02 2514 1673.97L2514 1745.96C2514 1755.9 2505.94 1763.96 2496 1763.96L2025 1763.96C2015.06 1763.96 2007 1755.9 2007 1745.96Z" stroke="#000000" stroke-width="8.00088" stroke-miterlimit="8" fill="#F6C6AD" fill-rule="evenodd"/><text fill="#13501B" font-family="Arial Nova,Arial Nova_MSFontService,sans-serif" font-weight="400" font-size="37.3367" transform="matrix(1 0 0 0.999979 2038.82 1717)">Buffer</text><text fill="#13501B" font-family="Arial Nova,Arial Nova_MSFontService,sans-serif" font-weight="400" font-size="37.3367" transform="matrix(1 0 0 0.999979 2148.8 1717)">1</text><g><g><g><path d="M73.625 17.4375C73.625 21.7177 61.4807 25.1875 46.5 25.1875 31.5193 25.1875 19.375 21.7177 19.375 17.4375 19.375 13.1573 31.5193 9.6875 46.5 9.6875 61.4807 9.6875 73.625 13.1573 73.625 17.4375Z" transform="matrix(1 0 0 1.02148 2405 1662.97)"/><path d="M65.875 36.8125C64.7125 36.8125 63.9375 36.0375 63.9375 34.875 63.9375 33.7125 64.7125 32.9375 65.875 32.9375 67.0375 32.9375 67.8125 33.7125 67.8125 34.875 67.8125 36.0375 67.0375 36.8125 65.875 36.8125ZM46.5 29.0625C31.5813 29.0625 19.375 25.575 19.375 21.3125L19.375 36.8125C19.375 41.075 31.5813 44.5625 46.5 44.5625 61.4188 44.5625 73.625 41.075 73.625 36.8125L73.625 21.3125C73.625 25.575 61.4188 29.0625 46.5 29.0625Z" transform="matrix(1 0 0 1.02148 2405 1662.97)"/><path d="M65.875 56.1875C64.7125 56.1875 63.9375 55.4125 63.9375 54.25 63.9375 53.0875 64.7125 52.3125 65.875 52.3125 67.0375 52.3125 67.8125 53.0875 67.8125 54.25 67.8125 55.4125 67.0375 56.1875 65.875 56.1875ZM46.5 48.4375C31.5813 48.4375 19.375 44.95 19.375 40.6875L19.375 56.1875C19.375 60.45 31.5813 63.9375 46.5 63.9375 61.4188 63.9375 73.625 60.45 73.625 56.1875L73.625 40.6875C73.625 44.95 61.4188 48.4375 46.5 48.4375Z" transform="matrix(1 0 0 1.02148 2405 1662.97)"/><path d="M65.875 75.5625C64.7125 75.5625 63.9375 74.7875 63.9375 73.625 63.9375 72.4625 64.7125 71.6875 65.875 71.6875 67.0375 71.6875 67.8125 72.4625 67.8125 73.625 67.8125 74.7875 67.0375 75.5625 65.875 75.5625ZM46.5 67.8125C31.5813 67.8125 19.375 64.325 19.375 60.0625L19.375 75.5625C19.375 79.825 31.5813 83.3125 46.5 83.3125 61.4188 83.3125 73.625 79.825 73.625 75.5625L73.625 60.0625C73.625 64.325 61.4188 67.8125 46.5 67.8125Z" transform="matrix(1 0 0 1.02148 2405 1662.97)"/></g></g></g><path d="M2007 1812.96C2007 1803.02 2015.06 1794.96 2025 1794.96L2496 1794.96C2505.94 1794.96 2514 1803.02 2514 1812.96L2514 1884.96C2514 1894.9 2505.94 1902.96 2496 1902.96L2025 1902.96C2015.06 1902.96 2007 1894.9 2007 1884.96Z" stroke="#000000" stroke-width="8.00088" stroke-miterlimit="8" fill="#F6C6AD" fill-rule="evenodd"/><text fill="#13501B" font-family="Arial Nova,Arial Nova_MSFontService,sans-serif" font-weight="400" font-size="37.3367" transform="matrix(1 0 0 0.999979 2038.82 1856)">Buffer</text><text fill="#13501B" font-family="Arial Nova,Arial Nova_MSFontService,sans-serif" font-weight="400" font-size="37.3367" transform="matrix(1 0 0 0.999979 2148.8 1856)">2</text><g><g><g><path d="M73.625 17.4375C73.625 21.7177 61.4807 25.1875 46.5 25.1875 31.5193 25.1875 19.375 21.7177 19.375 17.4375 19.375 13.1573 31.5193 9.6875 46.5 9.6875 61.4807 9.6875 73.625 13.1573 73.625 17.4375Z" transform="matrix(1 0 0 1.02148 2405 1801.96)"/><path d="M65.875 36.8125C64.7125 36.8125 63.9375 36.0375 63.9375 34.875 63.9375 33.7125 64.7125 32.9375 65.875 32.9375 67.0375 32.9375 67.8125 33.7125 67.8125 34.875 67.8125 36.0375 67.0375 36.8125 65.875 36.8125ZM46.5 29.0625C31.5813 29.0625 19.375 25.575 19.375 21.3125L19.375 36.8125C19.375 41.075 31.5813 44.5625 46.5 44.5625 61.4188 44.5625 73.625 41.075 73.625 36.8125L73.625 21.3125C73.625 25.575 61.4188 29.0625 46.5 29.0625Z" transform="matrix(1 0 0 1.02148 2405 1801.96)"/><path d="M65.875 56.1875C64.7125 56.1875 63.9375 55.4125 63.9375 54.25 63.9375 53.0875 64.7125 52.3125 65.875 52.3125 67.0375 52.3125 67.8125 53.0875 67.8125 54.25 67.8125 55.4125 67.0375 56.1875 65.875 56.1875ZM46.5 48.4375C31.5813 48.4375 19.375 44.95 19.375 40.6875L19.375 56.1875C19.375 60.45 31.5813 63.9375 46.5 63.9375 61.4188 63.9375 73.625 60.45 73.625 56.1875L73.625 40.6875C73.625 44.95 61.4188 48.4375 46.5 48.4375Z" transform="matrix(1 0 0 1.02148 2405 1801.96)"/><path d="M65.875 75.5625C64.7125 75.5625 63.9375 74.7875 63.9375 73.625 63.9375 72.4625 64.7125 71.6875 65.875 71.6875 67.0375 71.6875 67.8125 72.4625 67.8125 73.625 67.8125 74.7875 67.0375 75.5625 65.875 75.5625ZM46.5 67.8125C31.5813 67.8125 19.375 64.325 19.375 60.0625L19.375 75.5625C19.375 79.825 31.5813 83.3125 46.5 83.3125 61.4188 83.3125 73.625 79.825 73.625 75.5625L73.625 60.0625C73.625 64.325 61.4188 67.8125 46.5 67.8125Z" transform="matrix(1 0 0 1.02148 2405 1801.96)"/></g></g></g><path d="M2004 1951.96C2004 1942.02 2012.06 1933.96 2022 1933.96L2493 1933.96C2502.94 1933.96 2511 1942.02 2511 1951.96L2511 2023.96C2511 2033.9 2502.94 2041.96 2493 2041.96L2022 2041.96C2012.06 2041.96 2004 2033.9 2004 2023.96Z" stroke="#000000" stroke-width="8.00088" stroke-miterlimit="8" fill="#F6C6AD" fill-rule="evenodd"/><text fill="#13501B" font-family="Arial Nova,Arial Nova_MSFontService,sans-serif" font-weight="400" font-size="37.3367" transform="matrix(1 0 0 0.999979 2035.25 1995)">Buffer</text><text fill="#13501B" font-family="Arial Nova,Arial Nova_MSFontService,sans-serif" font-weight="400" font-size="37.3367" transform="matrix(1 0 0 0.999979 2145.23 1995)">3</text><g><g><g><path d="M73.625 17.4375C73.625 21.7177 61.4807 25.1875 46.5 25.1875 31.5193 25.1875 19.375 21.7177 19.375 17.4375 19.375 13.1573 31.5193 9.6875 46.5 9.6875 61.4807 9.6875 73.625 13.1573 73.625 17.4375Z" transform="matrix(1 0 0 1.03224 2401 1940.96)"/><path d="M65.875 36.8125C64.7125 36.8125 63.9375 36.0375 63.9375 34.875 63.9375 33.7125 64.7125 32.9375 65.875 32.9375 67.0375 32.9375 67.8125 33.7125 67.8125 34.875 67.8125 36.0375 67.0375 36.8125 65.875 36.8125ZM46.5 29.0625C31.5813 29.0625 19.375 25.575 19.375 21.3125L19.375 36.8125C19.375 41.075 31.5813 44.5625 46.5 44.5625 61.4188 44.5625 73.625 41.075 73.625 36.8125L73.625 21.3125C73.625 25.575 61.4188 29.0625 46.5 29.0625Z" transform="matrix(1 0 0 1.03224 2401 1940.96)"/><path d="M65.875 56.1875C64.7125 56.1875 63.9375 55.4125 63.9375 54.25 63.9375 53.0875 64.7125 52.3125 65.875 52.3125 67.0375 52.3125 67.8125 53.0875 67.8125 54.25 67.8125 55.4125 67.0375 56.1875 65.875 56.1875ZM46.5 48.4375C31.5813 48.4375 19.375 44.95 19.375 40.6875L19.375 56.1875C19.375 60.45 31.5813 63.9375 46.5 63.9375 61.4188 63.9375 73.625 60.45 73.625 56.1875L73.625 40.6875C73.625 44.95 61.4188 48.4375 46.5 48.4375Z" transform="matrix(1 0 0 1.03224 2401 1940.96)"/><path d="M65.875 75.5625C64.7125 75.5625 63.9375 74.7875 63.9375 73.625 63.9375 72.4625 64.7125 71.6875 65.875 71.6875 67.0375 71.6875 67.8125 72.4625 67.8125 73.625 67.8125 74.7875 67.0375 75.5625 65.875 75.5625ZM46.5 67.8125C31.5813 67.8125 19.375 64.325 19.375 60.0625L19.375 75.5625C19.375 79.825 31.5813 83.3125 46.5 83.3125 61.4188 83.3125 73.625 79.825 73.625 75.5625L73.625 60.0625C73.625 64.325 61.4188 67.8125 46.5 67.8125Z" transform="matrix(1 0 0 1.03224 2401 1940.96)"/></g></g></g><path d="M2007 2192.95C2007 2183.01 2015.06 2174.95 2025 2174.95L2496 2174.95C2505.94 2174.95 2514 2183.01 2514 2192.95L2514 2264.95C2514 2274.89 2505.94 2282.95 2496 2282.95L2025 2282.95C2015.06 2282.95 2007 2274.89 2007 2264.95Z" stroke="#000000" stroke-width="8.00088" stroke-miterlimit="8" fill="#F6C6AD" fill-rule="evenodd"/><text fill="#13501B" font-family="Arial Nova,Arial Nova_MSFontService,sans-serif" font-weight="400" font-size="37.3367" transform="matrix(1 0 0 0.999979 2038.82 2236)">Buffer</text><text fill="#13501B" font-family="Arial Nova,Arial Nova_MSFontService,sans-serif" font-weight="400" font-size="37.3367" transform="matrix(1 0 0 0.999979 2148.8 2236)">N</text><g><g><g><path d="M73.625 17.4375C73.625 21.7177 61.4807 25.1875 46.5 25.1875 31.5193 25.1875 19.375 21.7177 19.375 17.4375 19.375 13.1573 31.5193 9.6875 46.5 9.6875 61.4807 9.6875 73.625 13.1573 73.625 17.4375Z" transform="matrix(1 0 0 1.02148 2405 2181.95)"/><path d="M65.875 36.8125C64.7125 36.8125 63.9375 36.0375 63.9375 34.875 63.9375 33.7125 64.7125 32.9375 65.875 32.9375 67.0375 32.9375 67.8125 33.7125 67.8125 34.875 67.8125 36.0375 67.0375 36.8125 65.875 36.8125ZM46.5 29.0625C31.5813 29.0625 19.375 25.575 19.375 21.3125L19.375 36.8125C19.375 41.075 31.5813 44.5625 46.5 44.5625 61.4188 44.5625 73.625 41.075 73.625 36.8125L73.625 21.3125C73.625 25.575 61.4188 29.0625 46.5 29.0625Z" transform="matrix(1 0 0 1.02148 2405 2181.95)"/><path d="M65.875 56.1875C64.7125 56.1875 63.9375 55.4125 63.9375 54.25 63.9375 53.0875 64.7125 52.3125 65.875 52.3125 67.0375 52.3125 67.8125 53.0875 67.8125 54.25 67.8125 55.4125 67.0375 56.1875 65.875 56.1875ZM46.5 48.4375C31.5813 48.4375 19.375 44.95 19.375 40.6875L19.375 56.1875C19.375 60.45 31.5813 63.9375 46.5 63.9375 61.4188 63.9375 73.625 60.45 73.625 56.1875L73.625 40.6875C73.625 44.95 61.4188 48.4375 46.5 48.4375Z" transform="matrix(1 0 0 1.02148 2405 2181.95)"/><path d="M65.875 75.5625C64.7125 75.5625 63.9375 74.7875 63.9375 73.625 63.9375 72.4625 64.7125 71.6875 65.875 71.6875 67.0375 71.6875 67.8125 72.4625 67.8125 73.625 67.8125 74.7875 67.0375 75.5625 65.875 75.5625ZM46.5 67.8125C31.5813 67.8125 19.375 64.325 19.375 60.0625L19.375 75.5625C19.375 79.825 31.5813 83.3125 46.5 83.3125 61.4188 83.3125 73.625 79.825 73.625 75.5625L73.625 60.0625C73.625 64.325 61.4188 67.8125 46.5 67.8125Z" transform="matrix(1 0 0 1.02148 2405 2181.95)"/></g></g></g><text font-family="Arial Nova,Arial Nova_MSFontService,sans-serif" font-weight="700" font-size="80.0071" transform="matrix(1 0 0 0.999979 715.445 3481)">Request next</text><text font-family="Arial Nova,Arial Nova_MSFontService,sans-serif" font-weight="700" font-size="80.0071" transform="matrix(1 0 0 0.999979 715.445 3577)">batch</text><path d="M2.52032e-06-10.6676 85.3409-10.6676 85.3409 10.6676-2.52032e-06 10.6676ZM149.347-10.6676 234.688-10.6676 234.688 10.6677 149.347 10.6677ZM298.693-10.6675 384.034-10.6675 384.034 10.6677 298.693 10.6677ZM380.406-32.0028 444.412 0.000104996 380.406 32.0029Z" fill="#0B3041" transform="matrix(-1.00002 0 0 1 643.921 3487.43)"/><path d="M87.5 3356.93C87.5 3320.76 116.826 3291.43 153.002 3291.43L4407 3291.43C4443.17 3291.43 4472.5 3320.76 4472.5 3356.93L4472.5 3618.92C4472.5 3655.1 4443.17 3684.42 4407 3684.42L153.002 3684.42C116.826 3684.42 87.5 3655.1 87.5 3618.92Z" stroke="#042433" stroke-width="13.3348" stroke-miterlimit="8" fill="none" fill-rule="evenodd"/><path d="M2.46333e-06-10.6676 401.356-10.6675 401.356 10.6677-2.46333e-06 10.6676ZM390.688-32.0028 454.694 0.000104996 390.688 32.0029Z" fill="#0D3512" transform="matrix(-1.00002 0 0 1 2016.2 3490.43)"/><text font-family="Arial Nova,Arial Nova_MSFontService,sans-serif" font-weight="700" font-size="80.0071" transform="matrix(1 0 0 0.999979 2044.43 3475)">Synchronous</text><text font-family="Arial Nova,Arial Nova_MSFontService,sans-serif" font-weight="700" font-size="80.0071" transform="matrix(1 0 0 0.999979 2044.43 3571)">data flow</text><path d="M2.45648e-06-10.6676 402.624-10.6675 402.624 10.6677-2.45648e-06 10.6676ZM391.956-32.0028 455.962 0.000104996 391.956 32.0029Z" fill="#80350E" transform="matrix(-1.00002 0 0 1 3316.47 3483.43)"/><text font-family="Arial Nova,Arial Nova_MSFontService,sans-serif" font-weight="700" font-size="80.0071" transform="matrix(1 0 0 0.999979 3361.33 3463)">Asynchronous</text><text font-family="Arial Nova,Arial Nova_MSFontService,sans-serif" font-weight="700" font-size="80.0071" transform="matrix(1 0 0 0.999979 3361.33 3559)">refill</text></g></svg>