<svg width="1561" height="3882" xmlns="http://www.w3.org/2000/svg" xmlns:xlink="http://www.w3.org/1999/xlink" overflow="hidden"><defs><clipPath id="clip0"><rect x="0" y="0" width="1561" height="3882"/></clipPath></defs><g clip-path="url(#clip0)"><rect x="0" y="0" width="1561" height="3882.5" fill="#FFFFFF"/><path d="M403 2091.27C403 2022.23 458.966 1966.25 528.003 1966.25L1028 1966.25C1097.03 1966.25 1153 2022.23 1153 2091.27L1153 3230.41C1153 3299.46 1097.03 3355.43 1028 3355.43L528.003 3355.43C458.966 3355.43 403 3299.46 403 3230.41Z" stroke="#000000" stroke-width="4" stroke-miterlimit="8" stroke-dasharray="32 12" fill="#FFFFFF" fill-rule="evenodd"/><path d="M400 1329.84C400 1261.53 455.369 1206.16 523.67 1206.16L1026.33 1206.16C1094.63 1206.16 1150 1261.53 1150 1329.84L1150 1824.57C1150 1892.88 1094.63 1948.26 1026.33 1948.26L523.67 1948.26C455.369 1948.26 400 1892.88 400 1824.57Z" stroke="#000000" stroke-width="4" stroke-miterlimit="8" stroke-dasharray="32 12" fill="#FFFFFF" fill-rule="evenodd"/><path d="M403 387.052C403 318.007 458.966 262.034 528.003 262.034L1028 262.034C1097.03 262.034 1153 318.007 1153 387.052L1153 1066.13C1153 1135.18 1097.03 1191.15 1028 1191.15L528.003 1191.15C458.966 1191.15 403 1135.18 403 1066.13Z" stroke="#000000" stroke-width="4" stroke-miterlimit="8" stroke-dasharray="32 12" fill="#FFFFFF" fill-rule="evenodd"/><path d="M515.5 358.38C515.5 339.692 530.648 324.542 549.334 324.542L1012.67 324.542C1031.35 324.542 1046.5 339.692 1046.5 358.38L1046.5 493.73C1046.5 512.418 1031.35 527.568 1012.67 527.568L549.334 527.568C530.648 527.568 515.5 512.418 515.5 493.73Z" stroke="#000000" stroke-width="3" stroke-miterlimit="8" fill="#F6C6AD" fill-rule="evenodd"/><text font-family="Arial Nova,Arial Nova_MSFontService,sans-serif" font-weight="400" font-size="48.0062" transform="matrix(1 0 0 1.00013 608.091 376)">Encoder block 1</text><text font-family="Arial Nova,Arial Nova_MSFontService,sans-serif" font-weight="400" font-size="32.0041" transform="matrix(1 0 0 1.00013 559.681 500)">Output shape: (B, H/2, W/2, 32)</text><path d="M515.5 112.681C515.5 100.99 524.977 91.5118 536.667 91.5118L1025.33 91.5118C1037.02 91.5118 1046.5 100.99 1046.5 112.681L1046.5 197.359C1046.5 209.05 1037.02 218.528 1025.33 218.528L536.667 218.528C524.977 218.528 515.5 209.05 515.5 197.359Z" stroke="#000000" stroke-width="3" stroke-miterlimit="8" fill="#C2F1C8" fill-rule="evenodd"/><text font-family="Arial Nova,Arial Nova_MSFontService,sans-serif" font-weight="400" font-size="53.3402" transform="matrix(1 0 0 1.00013 721.248 144)">Input</text><text font-family="Arial Nova,Arial Nova_MSFontService,sans-serif" font-weight="400" font-size="32.0041" transform="matrix(1 0 0 1.00013 559.681 196)">Output shape: (B, H/2, W/2, 32)</text><path d="M785 219.028 785 308.646 777 308.646 777 219.028ZM793 304.646 781 328.649 769 304.646Z"/><path d="M785 527.068 785 616.686 777 616.686 777 527.068ZM793 612.685 781 636.688 769 612.685Z"/><text font-family="Arial Nova,Arial Nova_MSFontService,sans-serif" font-weight="400" font-size="24.0031" transform="matrix(1 0 0 1.00013 674.023 408)">Conv 3</text><text font-family="Arial Nova,Arial Nova_MSFontService,sans-serif" font-weight="400" font-size="24.0031" transform="matrix(1 0 0 1.00013 749.69 408)">×</text><text font-family="Arial Nova,Arial Nova_MSFontService,sans-serif" font-weight="400" font-size="24.0031" transform="matrix(1 0 0 1.00013 763.69 408)">3, 32,</text><text font-family="Arial Nova,Arial Nova_MSFontService,sans-serif" font-weight="400" font-size="24.0031" transform="matrix(1 0 0 1.00013 829.023 408)">ReLU</text><text font-family="Arial Nova,Arial Nova_MSFontService,sans-serif" font-weight="400" font-size="24.0031" transform="matrix(1 0 0 1.00013 674.023 437)">Conv 3</text><text font-family="Arial Nova,Arial Nova_MSFontService,sans-serif" font-weight="400" font-size="24.0031" transform="matrix(1 0 0 1.00013 749.69 437)">×</text><text font-family="Arial Nova,Arial Nova_MSFontService,sans-serif" font-weight="400" font-size="24.0031" transform="matrix(1 0 0 1.00013 763.69 437)">3, 32,</text><text font-family="Arial Nova,Arial Nova_MSFontService,sans-serif" font-weight="400" font-size="24.0031" transform="matrix(1 0 0 1.00013 829.023 437)">ReLU</text><text font-family="Arial Nova,Arial Nova_MSFontService,sans-serif" font-weight="400" font-size="24.0031" transform="matrix(1 0 0 1.00013 711.25 466)">MaxPool</text><text font-family="Arial Nova,Arial Nova_MSFontService,sans-serif" font-weight="400" font-size="24.0031" transform="matrix(1 0 0 1.00013 809.077 466)">2</text><text font-family="Arial Nova,Arial Nova_MSFontService,sans-serif" font-weight="400" font-size="24.0031" transform="matrix(1 0 0 1.00013 822.41 466)">×</text><text font-family="Arial Nova,Arial Nova_MSFontService,sans-serif" font-weight="400" font-size="24.0031" transform="matrix(1 0 0 1.00013 836.41 466)">2</text><path d="M515.5 671.42C515.5 652.732 530.648 637.582 549.334 637.582L1012.67 637.582C1031.35 637.582 1046.5 652.732 1046.5 671.42L1046.5 806.77C1046.5 825.458 1031.35 840.608 1012.67 840.608L549.334 840.608C530.648 840.608 515.5 825.458 515.5 806.77Z" stroke="#000000" stroke-width="3" stroke-miterlimit="8" fill="#F6C6AD" fill-rule="evenodd"/><text font-family="Arial Nova,Arial Nova_MSFontService,sans-serif" font-weight="400" font-size="48.0062" transform="matrix(1 0 0 1.00013 608.091 689)">Encoder block 2</text><text font-family="Arial Nova,Arial Nova_MSFontService,sans-serif" font-weight="400" font-size="32.0041" transform="matrix(1 0 0 1.00013 559.681 813)">Output shape: (B, H/4, W/4, 64)</text><path d="M785 840.108 785 929.726 777 929.726 777 840.108ZM793 925.726 781 949.729 769 925.726Z"/><text font-family="Arial Nova,Arial Nova_MSFontService,sans-serif" font-weight="400" font-size="24.0031" transform="matrix(1 0 0 1.00013 674.023 721)">Conv 3</text><text font-family="Arial Nova,Arial Nova_MSFontService,sans-serif" font-weight="400" font-size="24.0031" transform="matrix(1 0 0 1.00013 749.69 721)">×</text><text font-family="Arial Nova,Arial Nova_MSFontService,sans-serif" font-weight="400" font-size="24.0031" transform="matrix(1 0 0 1.00013 763.69 721)">3, 64,</text><text font-family="Arial Nova,Arial Nova_MSFontService,sans-serif" font-weight="400" font-size="24.0031" transform="matrix(1 0 0 1.00013 829.023 721)">ReLU</text><text font-family="Arial Nova,Arial Nova_MSFontService,sans-serif" font-weight="400" font-size="24.0031" transform="matrix(1 0 0 1.00013 674.023 750)">Conv 3</text><text font-family="Arial Nova,Arial Nova_MSFontService,sans-serif" font-weight="400" font-size="24.0031" transform="matrix(1 0 0 1.00013 749.69 750)">×</text><text font-family="Arial Nova,Arial Nova_MSFontService,sans-serif" font-weight="400" font-size="24.0031" transform="matrix(1 0 0 1.00013 763.69 750)">3, 64,</text><text font-family="Arial Nova,Arial Nova_MSFontService,sans-serif" font-weight="400" font-size="24.0031" transform="matrix(1 0 0 1.00013 829.023 750)">ReLU</text><text font-family="Arial Nova,Arial Nova_MSFontService,sans-serif" font-weight="400" font-size="24.0031" transform="matrix(1 0 0 1.00013 711.25 779)">MaxPool</text><text font-family="Arial Nova,Arial Nova_MSFontService,sans-serif" font-weight="400" font-size="24.0031" transform="matrix(1 0 0 1.00013 809.077 779)">2</text><text font-family="Arial Nova,Arial Nova_MSFontService,sans-serif" font-weight="400" font-size="24.0031" transform="matrix(1 0 0 1.00013 822.41 779)">×</text><text font-family="Arial Nova,Arial Nova_MSFontService,sans-serif" font-weight="400" font-size="24.0031" transform="matrix(1 0 0 1.00013 836.41 779)">2</text><path d="M515.5 983.461C515.5 964.772 530.648 949.622 549.334 949.622L1012.67 949.622C1031.35 949.622 1046.5 964.772 1046.5 983.461L1046.5 1118.81C1046.5 1137.5 1031.35 1152.65 1012.67 1152.65L549.334 1152.65C530.648 1152.65 515.5 1137.5 515.5 1118.81Z" stroke="#000000" stroke-width="3" stroke-miterlimit="8" fill="#F6C6AD" fill-rule="evenodd"/><text font-family="Arial Nova,Arial Nova_MSFontService,sans-serif" font-weight="400" font-size="48.0062" transform="matrix(1 0 0 1.00013 608.091 1001)">Encoder block 3</text><text font-family="Arial Nova,Arial Nova_MSFontService,sans-serif" font-weight="400" font-size="32.0041" transform="matrix(1 0 0 1.00013 564.945 1126)">Output shape: (B, H/8, W/8, 128)</text><path d="M785 1152.15 785 1241.77 777 1241.77 777 1152.15ZM793 1237.77 781 1261.77 769 1237.77Z"/><text font-family="Arial Nova,Arial Nova_MSFontService,sans-serif" font-weight="400" font-size="24.0031" transform="matrix(1 0 0 1.00013 667.357 1034)">Conv 3</text><text font-family="Arial Nova,Arial Nova_MSFontService,sans-serif" font-weight="400" font-size="24.0031" transform="matrix(1 0 0 1.00013 743.023 1034)">×</text><text font-family="Arial Nova,Arial Nova_MSFontService,sans-serif" font-weight="400" font-size="24.0031" transform="matrix(1 0 0 1.00013 757.023 1034)">3, 128,</text><text font-family="Arial Nova,Arial Nova_MSFontService,sans-serif" font-weight="400" font-size="24.0031" transform="matrix(1 0 0 1.00013 835.69 1034)">ReLU</text><text font-family="Arial Nova,Arial Nova_MSFontService,sans-serif" font-weight="400" font-size="24.0031" transform="matrix(1 0 0 1.00013 667.357 1063)">Conv 3</text><text font-family="Arial Nova,Arial Nova_MSFontService,sans-serif" font-weight="400" font-size="24.0031" transform="matrix(1 0 0 1.00013 743.023 1063)">×</text><text font-family="Arial Nova,Arial Nova_MSFontService,sans-serif" font-weight="400" font-size="24.0031" transform="matrix(1 0 0 1.00013 757.023 1063)">3, 128,</text><text font-family="Arial Nova,Arial Nova_MSFontService,sans-serif" font-weight="400" font-size="24.0031" transform="matrix(1 0 0 1.00013 835.69 1063)">ReLU</text><text font-family="Arial Nova,Arial Nova_MSFontService,sans-serif" font-weight="400" font-size="24.0031" transform="matrix(1 0 0 1.00013 711.25 1092)">MaxPool</text><text font-family="Arial Nova,Arial Nova_MSFontService,sans-serif" font-weight="400" font-size="24.0031" transform="matrix(1 0 0 1.00013 809.077 1092)">2</text><text font-family="Arial Nova,Arial Nova_MSFontService,sans-serif" font-weight="400" font-size="24.0031" transform="matrix(1 0 0 1.00013 822.41 1092)">×</text><text font-family="Arial Nova,Arial Nova_MSFontService,sans-serif" font-weight="400" font-size="24.0031" transform="matrix(1 0 0 1.00013 836.41 1092)">2</text><path d="M512.5 1307.34C512.5 1282.66 532.498 1262.66 557.167 1262.66L999.833 1262.66C1024.5 1262.66 1044.5 1282.66 1044.5 1307.34L1044.5 1486.02C1044.5 1510.7 1024.5 1530.7 999.833 1530.7L557.167 1530.7C532.498 1530.7 512.5 1510.7 512.5 1486.02Z" stroke="#000000" stroke-width="3" stroke-miterlimit="8" fill="#46B1E1" fill-rule="evenodd"/><text font-family="Arial Nova,Arial Nova_MSFontService,sans-serif" font-weight="400" font-size="48.0062" transform="matrix(1 0 0 1.00013 603.511 1322)">Conv Bottleneck</text><text font-family="Arial Nova,Arial Nova_MSFontService,sans-serif" font-weight="400" font-size="24.0031" transform="matrix(1 0 0 1.00013 665.438 1361)">Conv 3</text><text font-family="Arial Nova,Arial Nova_MSFontService,sans-serif" font-weight="400" font-size="24.0031" transform="matrix(1 0 0 1.00013 741.104 1361)">×</text><text font-family="Arial Nova,Arial Nova_MSFontService,sans-serif" font-weight="400" font-size="24.0031" transform="matrix(1 0 0 1.00013 755.104 1361)">3, 256,</text><text font-family="Arial Nova,Arial Nova_MSFontService,sans-serif" font-weight="400" font-size="24.0031" transform="matrix(1 0 0 1.00013 833.771 1361)">ReLU</text><text font-family="Arial Nova,Arial Nova_MSFontService,sans-serif" font-weight="400" font-size="24.0031" transform="matrix(1 0 0 1.00013 598.404 1390)">Dilated Conv 3</text><text font-family="Arial Nova,Arial Nova_MSFontService,sans-serif" font-weight="400" font-size="24.0031" transform="matrix(1 0 0 1.00013 754.471 1390)">×</text><text font-family="Arial Nova,Arial Nova_MSFontService,sans-serif" font-weight="400" font-size="24.0031" transform="matrix(1 0 0 1.00013 768.471 1390)">3, d=2, 256,</text><text font-family="Arial Nova,Arial Nova_MSFontService,sans-serif" font-weight="400" font-size="24.0031" transform="matrix(1 0 0 1.00013 900.804 1390)">ReLU</text><text font-family="Arial Nova,Arial Nova_MSFontService,sans-serif" font-weight="400" font-size="24.0031" transform="matrix(1 0 0 1.00013 598.404 1419)">Dilated Conv 3</text><text font-family="Arial Nova,Arial Nova_MSFontService,sans-serif" font-weight="400" font-size="24.0031" transform="matrix(1 0 0 1.00013 754.471 1419)">×</text><text font-family="Arial Nova,Arial Nova_MSFontService,sans-serif" font-weight="400" font-size="24.0031" transform="matrix(1 0 0 1.00013 768.471 1419)">3, d=4, 256,</text><text font-family="Arial Nova,Arial Nova_MSFontService,sans-serif" font-weight="400" font-size="24.0031" transform="matrix(1 0 0 1.00013 900.804 1419)">ReLU</text><text font-family="Arial Nova,Arial Nova_MSFontService,sans-serif" font-weight="400" font-size="24.0031" transform="matrix(1 0 0 1.00013 709.338 1448)">MaxPool</text><text font-family="Arial Nova,Arial Nova_MSFontService,sans-serif" font-weight="400" font-size="24.0031" transform="matrix(1 0 0 1.00013 807.164 1448)">2</text><text font-family="Arial Nova,Arial Nova_MSFontService,sans-serif" font-weight="400" font-size="24.0031" transform="matrix(1 0 0 1.00013 820.498 1448)">×</text><text font-family="Arial Nova,Arial Nova_MSFontService,sans-serif" font-weight="400" font-size="24.0031" transform="matrix(1 0 0 1.00013 834.498 1448)">2</text><text font-family="Arial Nova,Arial Nova_MSFontService,sans-serif" font-weight="400" font-size="32.0041" transform="matrix(1 0 0 1.00013 530.931 1499)">Output shape: (B, H/16, W/16, 256)</text><path d="M512.5 1686.38C512.5 1661.71 532.498 1641.71 557.167 1641.71L999.833 1641.71C1024.5 1641.71 1044.5 1661.71 1044.5 1686.38L1044.5 1865.07C1044.5 1889.75 1024.5 1909.75 999.833 1909.75L557.167 1909.75C532.498 1909.75 512.5 1889.75 512.5 1865.07Z" stroke="#000000" stroke-width="3" stroke-miterlimit="8" fill="#46B1E1" fill-rule="evenodd"/><path d="M784 1529.2 784 1618.81 776 1618.81 776 1529.2ZM792 1614.81 780 1638.82 768 1614.81Z"/><text font-family="Arial Nova,Arial Nova_MSFontService,sans-serif" font-weight="400" font-size="48.0062" transform="matrix(1 0 0 1.00013 532.957 1696)">Transformer Bottleneck</text><text font-family="Arial Nova,Arial Nova_MSFontService,sans-serif" font-weight="400" font-size="24.0031" transform="matrix(1 0 0 1.00013 702.249 1733)">Flatten spatial</text><text font-family="Arial Nova,Arial Nova_MSFontService,sans-serif" font-weight="400" font-size="24.0031" transform="matrix(1 0 0 1.00013 643.496 1762)">2D positional embedding</text><text font-family="Arial Nova,Arial Nova_MSFontService,sans-serif" font-weight="400" font-size="24.0031" transform="matrix(1 0 0 1.00013 664.009 1791)">Transformer encoder</text><text font-family="Arial Nova,Arial Nova_MSFontService,sans-serif" font-weight="400" font-size="24.0031" transform="matrix(1 0 0 1.00013 690.196 1820)">Unflatten spatial</text><text font-family="Arial Nova,Arial Nova_MSFontService,sans-serif" font-weight="400" font-size="32.0041" transform="matrix(1 0 0 1.00013 527.679 1863)">Output shape: (B, H/16, W/16, 256)</text><path d="M786 1909.25 786 1995.37 778 1995.37 778 1909.25ZM794 1991.37 782 2015.38 770 1991.37Z"/><path d="M516.5 2057.43C516.5 2034.97 534.707 2016.76 557.167 2016.76L1007.83 2016.76C1030.29 2016.76 1048.5 2034.97 1048.5 2057.43L1048.5 2220.12C1048.5 2242.58 1030.29 2260.79 1007.83 2260.79L557.167 2260.79C534.707 2260.79 516.5 2242.58 516.5 2220.12Z" stroke="#000000" stroke-width="3" stroke-miterlimit="8" fill="#F2AA84" fill-rule="evenodd"/><text font-family="Arial Nova,Arial Nova_MSFontService,sans-serif" font-weight="400" font-size="48.0062" transform="matrix(1 0 0 1.00013 592.738 2068)">Decoder block 4</text><text font-family="Arial Nova,Arial Nova_MSFontService,sans-serif" font-weight="400" font-size="32.0041" transform="matrix(1 0 0 1.00013 551.935 2231)">Output shape: (B, H/8, W/8, 256)</text><text font-family="Arial Nova,Arial Nova_MSFontService,sans-serif" font-weight="400" font-size="24.0031" transform="matrix(1 0 0 1.00013 646.32 2101)">Bilinear</text><text font-family="Arial Nova,Arial Nova_MSFontService,sans-serif" font-weight="400" font-size="24.0031" transform="matrix(1 0 0 1.00013 732.32 2101)">upsampling</text><text font-family="Arial Nova,Arial Nova_MSFontService,sans-serif" font-weight="400" font-size="24.0031" transform="matrix(1 0 0 1.00013 861.32 2101)">×</text><text font-family="Arial Nova,Arial Nova_MSFontService,sans-serif" font-weight="400" font-size="24.0031" transform="matrix(1 0 0 1.00013 875.32 2101)">2</text><text font-family="Arial Nova,Arial Nova_MSFontService,sans-serif" font-weight="400" font-size="24.0031" transform="matrix(1 0 0 1.00013 631.907 2130)">Concat</text><text font-family="Arial Nova,Arial Nova_MSFontService,sans-serif" font-weight="400" font-size="24.0031" transform="matrix(1 0 0 1.00013 714.407 2130)">skip from layer 11</text><text font-family="Arial Nova,Arial Nova_MSFontService,sans-serif" font-weight="400" font-size="24.0031" transform="matrix(1 0 0 1.00013 654.347 2159)">Conv 3</text><text font-family="Arial Nova,Arial Nova_MSFontService,sans-serif" font-weight="400" font-size="24.0031" transform="matrix(1 0 0 1.00013 730.014 2159)">×</text><text font-family="Arial Nova,Arial Nova_MSFontService,sans-serif" font-weight="400" font-size="24.0031" transform="matrix(1 0 0 1.00013 744.014 2159)">3, 256,</text><text font-family="Arial Nova,Arial Nova_MSFontService,sans-serif" font-weight="400" font-size="24.0031" transform="matrix(1 0 0 1.00013 822.68 2159)">ReLU</text><text font-family="Arial Nova,Arial Nova_MSFontService,sans-serif" font-weight="400" font-size="24.0031" transform="matrix(1 0 0 1.00013 654.347 2187)">Conv 3</text><text font-family="Arial Nova,Arial Nova_MSFontService,sans-serif" font-weight="400" font-size="24.0031" transform="matrix(1 0 0 1.00013 730.014 2187)">×</text><text font-family="Arial Nova,Arial Nova_MSFontService,sans-serif" font-weight="400" font-size="24.0031" transform="matrix(1 0 0 1.00013 744.014 2187)">3, 256,</text><text font-family="Arial Nova,Arial Nova_MSFontService,sans-serif" font-weight="400" font-size="24.0031" transform="matrix(1 0 0 1.00013 822.68 2187)">ReLU</text><path d="M782 2260.29 782 2349.91 774 2349.91 774 2260.29ZM790 2345.91 778 2369.91 766 2345.91Z"/><path d="M512.5 2412.31C512.5 2389.94 530.633 2371.81 553.001 2371.81L1004 2371.81C1026.37 2371.81 1044.5 2389.94 1044.5 2412.31L1044.5 2574.33C1044.5 2596.7 1026.37 2614.84 1004 2614.84L553.001 2614.84C530.633 2614.84 512.5 2596.7 512.5 2574.33Z" stroke="#000000" stroke-width="3" stroke-miterlimit="8" fill="#F2AA84" fill-rule="evenodd"/><text font-family="Arial Nova,Arial Nova_MSFontService,sans-serif" font-weight="400" font-size="48.0062" transform="matrix(1 0 0 1.00013 588.901 2423)">Decoder block 3</text><text font-family="Arial Nova,Arial Nova_MSFontService,sans-serif" font-weight="400" font-size="32.0041" transform="matrix(1 0 0 1.00013 548.098 2586)">Output shape: (B, H/4, W/4, 128)</text><text font-family="Arial Nova,Arial Nova_MSFontService,sans-serif" font-weight="400" font-size="24.0031" transform="matrix(1 0 0 1.00013 642.483 2455)">Bilinear</text><text font-family="Arial Nova,Arial Nova_MSFontService,sans-serif" font-weight="400" font-size="24.0031" transform="matrix(1 0 0 1.00013 728.483 2455)">upsampling</text><text font-family="Arial Nova,Arial Nova_MSFontService,sans-serif" font-weight="400" font-size="24.0031" transform="matrix(1 0 0 1.00013 857.483 2455)">×</text><text font-family="Arial Nova,Arial Nova_MSFontService,sans-serif" font-weight="400" font-size="24.0031" transform="matrix(1 0 0 1.00013 871.483 2455)">2</text><text font-family="Arial Nova,Arial Nova_MSFontService,sans-serif" font-weight="400" font-size="24.0031" transform="matrix(1 0 0 1.00013 634.736 2484)">Concat</text><text font-family="Arial Nova,Arial Nova_MSFontService,sans-serif" font-weight="400" font-size="24.0031" transform="matrix(1 0 0 1.00013 717.236 2484)">skip from layer 7</text><text font-family="Arial Nova,Arial Nova_MSFontService,sans-serif" font-weight="400" font-size="24.0031" transform="matrix(1 0 0 1.00013 650.51 2513)">Conv 3</text><text font-family="Arial Nova,Arial Nova_MSFontService,sans-serif" font-weight="400" font-size="24.0031" transform="matrix(1 0 0 1.00013 726.176 2513)">×</text><text font-family="Arial Nova,Arial Nova_MSFontService,sans-serif" font-weight="400" font-size="24.0031" transform="matrix(1 0 0 1.00013 740.176 2513)">3, 128,</text><text font-family="Arial Nova,Arial Nova_MSFontService,sans-serif" font-weight="400" font-size="24.0031" transform="matrix(1 0 0 1.00013 818.843 2513)">ReLU</text><text font-family="Arial Nova,Arial Nova_MSFontService,sans-serif" font-weight="400" font-size="24.0031" transform="matrix(1 0 0 1.00013 650.51 2541)">Conv 3</text><text font-family="Arial Nova,Arial Nova_MSFontService,sans-serif" font-weight="400" font-size="24.0031" transform="matrix(1 0 0 1.00013 726.176 2541)">×</text><text font-family="Arial Nova,Arial Nova_MSFontService,sans-serif" font-weight="400" font-size="24.0031" transform="matrix(1 0 0 1.00013 740.176 2541)">3, 128,</text><text font-family="Arial Nova,Arial Nova_MSFontService,sans-serif" font-weight="400" font-size="24.0031" transform="matrix(1 0 0 1.00013 818.843 2541)">ReLU</text><path d="M779 2615.34 779 2704.95 771 2704.95 771 2615.34ZM787 2700.95 775 2724.96 763 2700.95Z"/><path d="M509.5 2767.36C509.5 2744.99 527.633 2726.85 550.001 2726.85L1001 2726.85C1023.37 2726.85 1041.5 2744.99 1041.5 2767.36L1041.5 2929.38C1041.5 2951.75 1023.37 2969.88 1001 2969.88L550.001 2969.88C527.633 2969.88 509.5 2951.75 509.5 2929.38Z" stroke="#000000" stroke-width="3" stroke-miterlimit="8" fill="#F2AA84" fill-rule="evenodd"/><text font-family="Arial Nova,Arial Nova_MSFontService,sans-serif" font-weight="400" font-size="48.0062" transform="matrix(1 0 0 1.00013 586.315 2778)">Decoder block 2</text><text font-family="Arial Nova,Arial Nova_MSFontService,sans-serif" font-weight="400" font-size="32.0041" transform="matrix(1 0 0 1.00013 554.429 2941)">Output shape: (B, H/2, W/2, 64)</text><text font-family="Arial Nova,Arial Nova_MSFontService,sans-serif" font-weight="400" font-size="24.0031" transform="matrix(1 0 0 1.00013 639.898 2810)">Bilinear</text><text font-family="Arial Nova,Arial Nova_MSFontService,sans-serif" font-weight="400" font-size="24.0031" transform="matrix(1 0 0 1.00013 725.898 2810)">upsampling</text><text font-family="Arial Nova,Arial Nova_MSFontService,sans-serif" font-weight="400" font-size="24.0031" transform="matrix(1 0 0 1.00013 854.898 2810)">×</text><text font-family="Arial Nova,Arial Nova_MSFontService,sans-serif" font-weight="400" font-size="24.0031" transform="matrix(1 0 0 1.00013 868.898 2810)">2</text><text font-family="Arial Nova,Arial Nova_MSFontService,sans-serif" font-weight="400" font-size="24.0031" transform="matrix(1 0 0 1.00013 632.151 2839)">Concat</text><text font-family="Arial Nova,Arial Nova_MSFontService,sans-serif" font-weight="400" font-size="24.0031" transform="matrix(1 0 0 1.00013 714.651 2839)">skip from layer 4</text><text font-family="Arial Nova,Arial Nova_MSFontService,sans-serif" font-weight="400" font-size="24.0031" transform="matrix(1 0 0 1.00013 654.591 2868)">Conv 3</text><text font-family="Arial Nova,Arial Nova_MSFontService,sans-serif" font-weight="400" font-size="24.0031" transform="matrix(1 0 0 1.00013 730.258 2868)">×</text><text font-family="Arial Nova,Arial Nova_MSFontService,sans-serif" font-weight="400" font-size="24.0031" transform="matrix(1 0 0 1.00013 744.258 2868)">3, 64,</text><text font-family="Arial Nova,Arial Nova_MSFontService,sans-serif" font-weight="400" font-size="24.0031" transform="matrix(1 0 0 1.00013 809.591 2868)">ReLU</text><text font-family="Arial Nova,Arial Nova_MSFontService,sans-serif" font-weight="400" font-size="24.0031" transform="matrix(1 0 0 1.00013 654.591 2896)">Conv 3</text><text font-family="Arial Nova,Arial Nova_MSFontService,sans-serif" font-weight="400" font-size="24.0031" transform="matrix(1 0 0 1.00013 730.258 2896)">×</text><text font-family="Arial Nova,Arial Nova_MSFontService,sans-serif" font-weight="400" font-size="24.0031" transform="matrix(1 0 0 1.00013 744.258 2896)">3, 64,</text><text font-family="Arial Nova,Arial Nova_MSFontService,sans-serif" font-weight="400" font-size="24.0031" transform="matrix(1 0 0 1.00013 809.591 2896)">ReLU</text><path d="M779 2968.38 779 3058 771 3058 771 2968.38ZM787 3054 775 3078 763 3054Z"/><path d="M509.5 3119.57C509.5 3097.11 527.707 3078.9 550.167 3078.9L1000.83 3078.9C1023.29 3078.9 1041.5 3097.11 1041.5 3119.57L1041.5 3282.26C1041.5 3304.72 1023.29 3322.93 1000.83 3322.93L550.167 3322.93C527.707 3322.93 509.5 3304.72 509.5 3282.26Z" stroke="#000000" stroke-width="3" stroke-miterlimit="8" fill="#F2AA84" fill-rule="evenodd"/><text font-family="Arial Nova,Arial Nova_MSFontService,sans-serif" font-weight="400" font-size="48.0062" transform="matrix(1 0 0 1.00013 586.315 3131)">Decoder block 1</text><text font-family="Arial Nova,Arial Nova_MSFontService,sans-serif" font-weight="400" font-size="32.0041" transform="matrix(1 0 0 1.00013 582.092 3294)">Output shape: (B, H, W, 32)</text><text font-family="Arial Nova,Arial Nova_MSFontService,sans-serif" font-weight="400" font-size="24.0031" transform="matrix(1 0 0 1.00013 639.897 3163)">Bilinear</text><text font-family="Arial Nova,Arial Nova_MSFontService,sans-serif" font-weight="400" font-size="24.0031" transform="matrix(1 0 0 1.00013 725.897 3163)">upsampling</text><text font-family="Arial Nova,Arial Nova_MSFontService,sans-serif" font-weight="400" font-size="24.0031" transform="matrix(1 0 0 1.00013 854.897 3163)">×</text><text font-family="Arial Nova,Arial Nova_MSFontService,sans-serif" font-weight="400" font-size="24.0031" transform="matrix(1 0 0 1.00013 868.897 3163)">2</text><text font-family="Arial Nova,Arial Nova_MSFontService,sans-serif" font-weight="400" font-size="24.0031" transform="matrix(1 0 0 1.00013 632.151 3192)">Concat</text><text font-family="Arial Nova,Arial Nova_MSFontService,sans-serif" font-weight="400" font-size="24.0031" transform="matrix(1 0 0 1.00013 714.651 3192)">skip from layer 1</text><text font-family="Arial Nova,Arial Nova_MSFontService,sans-serif" font-weight="400" font-size="24.0031" transform="matrix(1 0 0 1.00013 654.591 3221)">Conv 3</text><text font-family="Arial Nova,Arial Nova_MSFontService,sans-serif" font-weight="400" font-size="24.0031" transform="matrix(1 0 0 1.00013 730.258 3221)">×</text><text font-family="Arial Nova,Arial Nova_MSFontService,sans-serif" font-weight="400" font-size="24.0031" transform="matrix(1 0 0 1.00013 744.258 3221)">3, 32,</text><text font-family="Arial Nova,Arial Nova_MSFontService,sans-serif" font-weight="400" font-size="24.0031" transform="matrix(1 0 0 1.00013 809.591 3221)">ReLU</text><text font-family="Arial Nova,Arial Nova_MSFontService,sans-serif" font-weight="400" font-size="24.0031" transform="matrix(1 0 0 1.00013 654.591 3249)">Conv 3</text><text font-family="Arial Nova,Arial Nova_MSFontService,sans-serif" font-weight="400" font-size="24.0031" transform="matrix(1 0 0 1.00013 730.258 3249)">×</text><text font-family="Arial Nova,Arial Nova_MSFontService,sans-serif" font-weight="400" font-size="24.0031" transform="matrix(1 0 0 1.00013 744.258 3249)">3, 32,</text><text font-family="Arial Nova,Arial Nova_MSFontService,sans-serif" font-weight="400" font-size="24.0031" transform="matrix(1 0 0 1.00013 809.591 3249)">ReLU</text><path d="M779 3321.43 779 3411.05 771 3411.05 771 3321.43ZM787 3407.04 775 3431.05 763 3407.05Z"/><path d="M509.5 3454.95C509.5 3443.35 518.902 3433.94 530.5 3433.94L1020.5 3433.94C1032.1 3433.94 1041.5 3443.35 1041.5 3454.95L1041.5 3538.96C1041.5 3550.56 1032.1 3559.96 1020.5 3559.96L530.5 3559.96C518.902 3559.96 509.5 3550.56 509.5 3538.96Z" stroke="#000000" stroke-width="3" stroke-miterlimit="8" fill="#C2F1C8" fill-rule="evenodd"/><text font-family="Arial Nova,Arial Nova_MSFontService,sans-serif" font-weight="400" font-size="53.3402" transform="matrix(1 0 0 1.00013 694.244 3486)">Output</text><text font-family="Arial Nova,Arial Nova_MSFontService,sans-serif" font-weight="400" font-size="32.0041" transform="matrix(1 0 0 1.00013 591.09 3539)">Output shape: (B, H, W, 2)</text><path d="M2.03927e-06-4.83333 224.666-4.83324 224.666 4.83343-2.03927e-06 4.83333ZM219.832-14.4999 248.832 0.000104987 219.832 14.5001Z" transform="matrix(-1 0 0 1.00013 1296.83 2140.28)"/><path d="M1292 1380.18 1292 2144.5" stroke="#000000" stroke-width="9.66667" stroke-miterlimit="8" fill="none" fill-rule="evenodd"/><path d="M0 0 242.751 0.000104987" stroke="#000000" stroke-width="9.66667" stroke-miterlimit="8" fill="none" fill-rule="evenodd" transform="matrix(-1 0 0 1.00013 1288.75 1384.18)"/><path d="M1.6535e-06-4.83333 282.719-4.83324 282.719 4.83343-1.6535e-06 4.83333ZM277.886-14.4999 306.886 0.000104987 277.886 14.5001Z" transform="matrix(-1 0 0 1.00013 1351.89 2473.32)"/><path d="M1337 1051.14 1346.91 2477.6" stroke="#000000" stroke-width="9.66667" stroke-miterlimit="8" fill="none" fill-rule="evenodd"/><path d="M0 0 290.04 0.000104987" stroke="#000000" stroke-width="9.66667" stroke-miterlimit="8" fill="none" fill-rule="evenodd" transform="matrix(-1 0 0 1.00013 1337.04 1056.14)"/><path d="M1.39853e-06-4.83333 338.668-4.83324 338.668 4.83343-1.39853e-06 4.83333ZM333.835-14.4999 362.835 0.000104987 333.835 14.5001Z" transform="matrix(-1 0 0 1.00013 1402.83 2848.37)"/><path d="M1389 738.095 1400.47 2852.5" stroke="#000000" stroke-width="9.66667" stroke-miterlimit="8" fill="none" fill-rule="evenodd"/><path d="M0 0 348.211 0.000104987" stroke="#000000" stroke-width="9.66667" stroke-miterlimit="8" fill="none" fill-rule="evenodd" transform="matrix(-1 0 0 1.00013 1394.21 738.095)"/><path d="M1.21251e-06-4.83333 394.333-4.83323 394.333 4.83343-1.21251e-06 4.83333ZM389.5-14.4999 418.5 0.000104987 389.5 14.5001Z" transform="matrix(-1 0 0 1.00013 1458.5 3205.41)"/><path d="M1438 431.056 1456.18 3209.89" stroke="#000000" stroke-width="9.66667" stroke-miterlimit="8" fill="none" fill-rule="evenodd"/><path d="M0 0 394.828 0.000104987" stroke="#000000" stroke-width="9.66667" stroke-miterlimit="8" fill="none" fill-rule="evenodd" transform="matrix(-1 0 0 1.00013 1442.83 427.055)"/></g></svg>