<svg xmlns="http://www.w3.org/2000/svg" xmlns:xlink="http://www.w3.org/1999/xlink" xmlns:inkscape="http://www.inkscape.org/namespaces/inkscape" version="1.1" width="1170.72" height="2911.08" viewBox="0 0 1170.72 2911.08">
<defs>
<clipPath id="clip_1">
<path transform="matrix(1,0,0,-1,0,2911.08)" d="M0 .00073242H1170.72V2911.0809H0Z" clip-rule="evenodd"/>
</clipPath>
<clipPath id="clip_2">
<path transform="matrix(1,0,0,-1,0,2911.08)" d="M-.000030518 .00073242H1170.72V2911.0809H-.000030518Z" clip-rule="evenodd"/>
</clipPath>
<clipPath id="clip_3">
<path transform="matrix(1,0,0,-1,0,2911.08)" d="M-.000030518 .00073242H1170.72V2911.0809H-.000030518Z" clip-rule="evenodd"/>
</clipPath>
<clipPath id="clip_4">
<path transform="matrix(1,0,0,-1,0,2911.08)" d="M0 .00073242H1170.72V2911.0809H0Z" clip-rule="evenodd"/>
</clipPath>
<clipPath id="clip_5">
<path transform="matrix(1,0,0,-1,0,2911.08)" d="M0 .00073242H1170.72V2911.0809H0Z" clip-rule="evenodd"/>
</clipPath>
<clipPath id="clip_6">
<path transform="matrix(1,0,0,-1,0,2911.08)" d="M-.000030518 .0014648H1170.72V2911.0816H-.000030518Z" clip-rule="evenodd"/>
</clipPath>
<clipPath id="clip_7">
<path transform="matrix(1,0,0,-1,0,2911.08)" d="M-.000030518 .0014648H1170.72V2911.0816H-.000030518Z" clip-rule="evenodd"/>
</clipPath>
<clipPath id="clip_8">
<path transform="matrix(1,0,0,-1,0,2911.08)" d="M0 .001709H1170.72V2911.0819H0Z" clip-rule="evenodd"/>
</clipPath>
<clipPath id="clip_9">
<path transform="matrix(1,0,0,-1,0,2911.08)" d="M0 .001709H1170.72V2911.0819H0Z" clip-rule="evenodd"/>
</clipPath>
<clipPath id="clip_10">
<path transform="matrix(1,0,0,-1,0,2911.08)" d="M.000017445 0H1170.72V2911.08H.000017445Z" clip-rule="evenodd"/>
</clipPath>
<clipPath id="clip_11">
<path transform="matrix(1,0,0,-1,0,2911.08)" d="M.000017445 0H1170.72V2911.08H.000017445Z" clip-rule="evenodd"/>
</clipPath>
<clipPath id="clip_12">
<path transform="matrix(1,0,0,-1,0,2911.08)" d="M0 .0012207H1170.72V2911.0814H0Z" clip-rule="evenodd"/>
</clipPath>
<clipPath id="clip_13">
<path transform="matrix(1,0,0,-1,0,2911.08)" d="M0 .0012207H1170.72V2911.0814H0Z" clip-rule="evenodd"/>
</clipPath>
<clipPath id="clip_14">
<path transform="matrix(1,0,0,-1,0,2911.08)" d="M.000017445 0H1170.72V2911.08H.000017445Z" clip-rule="evenodd"/>
</clipPath>
<clipPath id="clip_15">
<path transform="matrix(1,0,0,-1,0,2911.08)" d="M.000017445 0H1170.72V2911.08H.000017445Z" clip-rule="evenodd"/>
</clipPath>
<clipPath id="clip_16">
<path transform="matrix(1,0,0,-1,0,2911.08)" d="M0 .0014648H1170.72V2911.0816H0Z" clip-rule="evenodd"/>
</clipPath>
<clipPath id="clip_17">
<path transform="matrix(1,0,0,-1,0,2911.08)" d="M0 .0012207H1170.72V2911.0814H0Z" clip-rule="evenodd"/>
</clipPath>
<clipPath id="clip_18">
<path transform="matrix(1,0,0,-1,0,2911.08)" d="M.000017445 0H1170.72V2911.08H.000017445Z" clip-rule="evenodd"/>
</clipPath>
<clipPath id="clip_19">
<path transform="matrix(1,0,0,-1,0,2911.08)" d="M.000017445 0H1170.72V2911.08H.000017445Z" clip-rule="evenodd"/>
</clipPath>
<clipPath id="clip_20">
<path transform="matrix(1,0,0,-1,0,2911.08)" d="M.000017445 0H1170.72V2911.08H.000017445Z" clip-rule="evenodd"/>
</clipPath>
<clipPath id="clip_21">
<path transform="matrix(1,0,0,-1,0,2911.08)" d="M.000017445 0H1170.72V2911.08H.000017445Z" clip-rule="evenodd"/>
</clipPath>
<clipPath id="clip_22">
<path transform="matrix(1,0,0,-1,0,2911.08)" d="M.000017445 0H1170.72V2911.08H.000017445Z" clip-rule="evenodd"/>
</clipPath>
<clipPath id="clip_23">
<path transform="matrix(1,0,0,-1,0,2911.08)" d="M.000017445 0H1170.72V2911.08H.000017445Z" clip-rule="evenodd"/>
</clipPath>
<clipPath id="clip_24">
<path transform="matrix(1,0,0,-1,0,2911.08)" d="M.000017445 0H1170.72V2911.08H.000017445Z" clip-rule="evenodd"/>
</clipPath>
<clipPath id="clip_25">
<path transform="matrix(1,0,0,-1,0,2911.08)" d="M.000017445 0H1170.72V2911.08H.000017445Z" clip-rule="evenodd"/>
</clipPath>
<clipPath id="clip_26">
<path transform="matrix(1,0,0,-1,0,2911.08)" d="M.000017445 0H1170.72V2911.08H.000017445Z" clip-rule="evenodd"/>
</clipPath>
<clipPath id="clip_27">
<path transform="matrix(1,0,0,-1,0,2911.08)" d="M.000017445 0H1170.72V2911.08H.000017445Z" clip-rule="evenodd"/>
</clipPath>
<clipPath id="clip_28">
<path transform="matrix(1,0,0,-1,0,2911.08)" d="M.000017445 0H1170.72V2911.08H.000017445Z" clip-rule="evenodd"/>
</clipPath>
<clipPath id="clip_29">
<path transform="matrix(1,0,0,-1,0,2911.08)" d="M.000017445 0H1170.72V2911.08H.000017445Z" clip-rule="evenodd"/>
</clipPath>
<clipPath id="clip_30">
<path transform="matrix(1,0,0,-1,0,2911.08)" d="M.000017445 0H1170.72V2911.08H.000017445Z" clip-rule="evenodd"/>
</clipPath>
<clipPath id="clip_31">
<path transform="matrix(1,0,0,-1,0,2911.08)" d="M.000030518 .0014648H1170.72V2911.0816H.000030518Z" clip-rule="evenodd"/>
</clipPath>
<clipPath id="clip_32">
<path transform="matrix(1,0,0,-1,0,2911.08)" d="M.000030518 .0014648H1170.72V2911.0816H.000030518Z" clip-rule="evenodd"/>
</clipPath>
<clipPath id="clip_33">
<path transform="matrix(1,0,0,-1,0,2911.08)" d="M.000017445 0H1170.72V2911.08H.000017445Z" clip-rule="evenodd"/>
</clipPath>
<clipPath id="clip_34">
<path transform="matrix(1,0,0,-1,0,2911.08)" d="M.000017445 0H1170.72V2911.08H.000017445Z" clip-rule="evenodd"/>
</clipPath>
<clipPath id="clip_35">
<path transform="matrix(1,0,0,-1,0,2911.08)" d="M-.000061035 .0012207H1170.72V2911.0814H-.000061035Z" clip-rule="evenodd"/>
</clipPath>
<clipPath id="clip_36">
<path transform="matrix(1,0,0,-1,0,2911.08)" d="M.000017445 0H1170.72V2911.08H.000017445Z" clip-rule="evenodd"/>
</clipPath>
<clipPath id="clip_37">
<path transform="matrix(1,0,0,-1,0,2911.08)" d="M.000017445 0H1170.72V2911.08H.000017445Z" clip-rule="evenodd"/>
</clipPath>
<clipPath id="clip_38">
<path transform="matrix(1,0,0,-1,0,2911.08)" d="M.000017445 0H1170.72V2911.08H.000017445Z" clip-rule="evenodd"/>
</clipPath>
<clipPath id="clip_39">
<path transform="matrix(1,0,0,-1,0,2911.08)" d="M.000017445 0H1170.72V2911.08H.000017445Z" clip-rule="evenodd"/>
</clipPath>
<clipPath id="clip_40">
<path transform="matrix(1,0,0,-1,0,2911.08)" d="M.000017445 0H1170.72V2911.08H.000017445Z" clip-rule="evenodd"/>
</clipPath>
<clipPath id="clip_41">
<path transform="matrix(1,0,0,-1,0,2911.08)" d="M.000017445 0H1170.72V2911.08H.000017445Z" clip-rule="evenodd"/>
</clipPath>
<clipPath id="clip_42">
<path transform="matrix(1,0,0,-1,0,2911.08)" d="M.000017445 0H1170.72V2911.08H.000017445Z" clip-rule="evenodd"/>
</clipPath>
<clipPath id="clip_43">
<path transform="matrix(1,0,0,-1,0,2911.08)" d="M.000017445 0H1170.72V2911.08H.000017445Z" clip-rule="evenodd"/>
</clipPath>
<clipPath id="clip_44">
<path transform="matrix(1,0,0,-1,0,2911.08)" d="M.000017445 0H1170.72V2911.08H.000017445Z" clip-rule="evenodd"/>
</clipPath>
<clipPath id="clip_45">
<path transform="matrix(1,0,0,-1,0,2911.08)" d="M.000017445 0H1170.72V2911.08H.000017445Z" clip-rule="evenodd"/>
</clipPath>
<clipPath id="clip_46">
<path transform="matrix(1,0,0,-1,0,2911.08)" d="M.000017445 0H1170.72V2911.08H.000017445Z" clip-rule="evenodd"/>
</clipPath>
<clipPath id="clip_47">
<path transform="matrix(1,0,0,-1,0,2911.08)" d="M.000017445 0H1170.72V2911.08H.000017445Z" clip-rule="evenodd"/>
</clipPath>
<clipPath id="clip_48">
<path transform="matrix(1,0,0,-1,0,2911.08)" d="M.000017445 0H1170.72V2911.08H.000017445Z" clip-rule="evenodd"/>
</clipPath>
<clipPath id="clip_49">
<path transform="matrix(1,0,0,-1,0,2911.08)" d="M.000030518 .0012207H1170.72V2911.0814H.000030518Z" clip-rule="evenodd"/>
</clipPath>
<clipPath id="clip_50">
<path transform="matrix(1,0,0,-1,0,2911.08)" d="M.000030518 .0012207H1170.72V2911.0814H.000030518Z" clip-rule="evenodd"/>
</clipPath>
<clipPath id="clip_51">
<path transform="matrix(1,0,0,-1,0,2911.08)" d="M.000017445 0H1170.72V2911.08H.000017445Z" clip-rule="evenodd"/>
</clipPath>
<clipPath id="clip_52">
<path transform="matrix(1,0,0,-1,0,2911.08)" d="M.000017445 0H1170.72V2911.08H.000017445Z" clip-rule="evenodd"/>
</clipPath>
<clipPath id="clip_53">
<path transform="matrix(1,0,0,-1,0,2911.08)" d="M-.000061035 .0012207H1170.72V2911.0814H-.000061035Z" clip-rule="evenodd"/>
</clipPath>
<clipPath id="clip_54">
<path transform="matrix(1,0,0,-1,0,2911.08)" d="M.000017445 0H1170.72V2911.08H.000017445Z" clip-rule="evenodd"/>
</clipPath>
<clipPath id="clip_55">
<path transform="matrix(1,0,0,-1,0,2911.08)" d="M.000017445 0H1170.72V2911.08H.000017445Z" clip-rule="evenodd"/>
</clipPath>
<clipPath id="clip_56">
<path transform="matrix(1,0,0,-1,0,2911.08)" d="M.000017445 0H1170.72V2911.08H.000017445Z" clip-rule="evenodd"/>
</clipPath>
<clipPath id="clip_57">
<path transform="matrix(1,0,0,-1,0,2911.08)" d="M.000017445 0H1170.72V2911.08H.000017445Z" clip-rule="evenodd"/>
</clipPath>
<clipPath id="clip_58">
<path transform="matrix(1,0,0,-1,0,2911.08)" d="M.000017445 0H1170.72V2911.08H.000017445Z" clip-rule="evenodd"/>
</clipPath>
<clipPath id="clip_59">
<path transform="matrix(1,0,0,-1,0,2911.08)" d="M.000017445 0H1170.72V2911.08H.000017445Z" clip-rule="evenodd"/>
</clipPath>
<clipPath id="clip_60">
<path transform="matrix(1,0,0,-1,0,2911.08)" d="M.000017445 0H1170.72V2911.08H.000017445Z" clip-rule="evenodd"/>
</clipPath>
<clipPath id="clip_61">
<path transform="matrix(1,0,0,-1,0,2911.08)" d="M.000017445 0H1170.72V2911.08H.000017445Z" clip-rule="evenodd"/>
</clipPath>
<clipPath id="clip_62">
<path transform="matrix(1,0,0,-1,0,2911.08)" d="M.000017445 0H1170.72V2911.08H.000017445Z" clip-rule="evenodd"/>
</clipPath>
<clipPath id="clip_63">
<path transform="matrix(1,0,0,-1,0,2911.08)" d="M.000017445 0H1170.72V2911.08H.000017445Z" clip-rule="evenodd"/>
</clipPath>
<clipPath id="clip_64">
<path transform="matrix(1,0,0,-1,0,2911.08)" d="M.000017445 0H1170.72V2911.08H.000017445Z" clip-rule="evenodd"/>
</clipPath>
<clipPath id="clip_65">
<path transform="matrix(1,0,0,-1,0,2911.08)" d="M.000017445 0H1170.72V2911.08H.000017445Z" clip-rule="evenodd"/>
</clipPath>
<clipPath id="clip_66">
<path transform="matrix(1,0,0,-1,0,2911.08)" d="M.000017445 0H1170.72V2911.08H.000017445Z" clip-rule="evenodd"/>
</clipPath>
<clipPath id="clip_67">
<path transform="matrix(1,0,0,-1,0,2911.08)" d="M.000030518 .00073242H1170.72V2911.0809H.000030518Z" clip-rule="evenodd"/>
</clipPath>
<clipPath id="clip_68">
<path transform="matrix(1,0,0,-1,0,2911.08)" d="M.000030518 .00073242H1170.72V2911.0809H.000030518Z" clip-rule="evenodd"/>
</clipPath>
<clipPath id="clip_69">
<path transform="matrix(1,0,0,-1,0,2911.08)" d="M.000017445 0H1170.72V2911.08H.000017445Z" clip-rule="evenodd"/>
</clipPath>
<clipPath id="clip_70">
<path transform="matrix(1,0,0,-1,0,2911.08)" d="M.000017445 0H1170.72V2911.08H.000017445Z" clip-rule="evenodd"/>
</clipPath>
<clipPath id="clip_71">
<path transform="matrix(1,0,0,-1,0,2911.08)" d="M.000017445 0H1170.72V2911.08H.000017445Z" clip-rule="evenodd"/>
</clipPath>
<clipPath id="clip_72">
<path transform="matrix(1,0,0,-1,0,2911.08)" d="M.000017445 0H1170.72V2911.08H.000017445Z" clip-rule="evenodd"/>
</clipPath>
<clipPath id="clip_73">
<path transform="matrix(1,0,0,-1,0,2911.08)" d="M.000017445 0H1170.72V2911.08H.000017445Z" clip-rule="evenodd"/>
</clipPath>
<clipPath id="clip_74">
<path transform="matrix(1,0,0,-1,0,2911.08)" d="M.000017445 0H1170.72V2911.08H.000017445Z" clip-rule="evenodd"/>
</clipPath>
<clipPath id="clip_75">
<path transform="matrix(1,0,0,-1,0,2911.08)" d="M.000017445 0H1170.72V2911.08H.000017445Z" clip-rule="evenodd"/>
</clipPath>
<clipPath id="clip_76">
<path transform="matrix(1,0,0,-1,0,2911.08)" d="M.000017445 0H1170.72V2911.08H.000017445Z" clip-rule="evenodd"/>
</clipPath>
<clipPath id="clip_77">
<path transform="matrix(1,0,0,-1,0,2911.08)" d="M.000017445 0H1170.72V2911.08H.000017445Z" clip-rule="evenodd"/>
</clipPath>
<clipPath id="clip_78">
<path transform="matrix(1,0,0,-1,0,2911.08)" d="M.000017445 0H1170.72V2911.08H.000017445Z" clip-rule="evenodd"/>
</clipPath>
<clipPath id="clip_79">
<path transform="matrix(1,0,0,-1,0,2911.08)" d="M.000017445 0H1170.72V2911.08H.000017445Z" clip-rule="evenodd"/>
</clipPath>
<clipPath id="clip_80">
<path transform="matrix(1,0,0,-1,0,2911.08)" d="M.000017445 0H1170.72V2911.08H.000017445Z" clip-rule="evenodd"/>
</clipPath>
<clipPath id="clip_81">
<path transform="matrix(1,0,0,-1,0,2911.08)" d="M.000017445 0H1170.72V2911.08H.000017445Z" clip-rule="evenodd"/>
</clipPath>
<clipPath id="clip_82">
<path transform="matrix(1,0,0,-1,0,2911.08)" d="M.000017445 0H1170.72V2911.08H.000017445Z" clip-rule="evenodd"/>
</clipPath>
<clipPath id="clip_83">
<path transform="matrix(1,0,0,-1,0,2911.08)" d="M.000017445 0H1170.72V2911.08H.000017445Z" clip-rule="evenodd"/>
</clipPath>
<clipPath id="clip_84">
<path transform="matrix(1,0,0,-1,0,2911.08)" d="M.000017445 0H1170.72V2911.08H.000017445Z" clip-rule="evenodd"/>
</clipPath>
<clipPath id="clip_85">
<path transform="matrix(1,0,0,-1,0,2911.08)" d="M.000017445 0H1170.72V2911.08H.000017445Z" clip-rule="evenodd"/>
</clipPath>
<clipPath id="clip_86">
<path transform="matrix(1,0,0,-1,0,2911.08)" d="M.000017445 0H1170.72V2911.08H.000017445Z" clip-rule="evenodd"/>
</clipPath>
<clipPath id="clip_87">
<path transform="matrix(1,0,0,-1,0,2911.08)" d="M.000017445 0H1170.72V2911.08H.000017445Z" clip-rule="evenodd"/>
</clipPath>
<clipPath id="clip_88">
<path transform="matrix(1,0,0,-1,0,2911.08)" d="M0 .00097656H1170.72V2911.081H0Z" clip-rule="evenodd"/>
</clipPath>
<clipPath id="clip_89">
<path transform="matrix(1,0,0,-1,0,2911.08)" d="M0 .00097656H1170.72V2911.081H0Z" clip-rule="evenodd"/>
</clipPath>
<clipPath id="clip_90">
<path transform="matrix(1,0,0,-1,0,2911.08)" d="M-.000061035 .00073242H1170.72V2911.0809H-.000061035Z" clip-rule="evenodd"/>
</clipPath>
<clipPath id="clip_91">
<path transform="matrix(1,0,0,-1,0,2911.08)" d="M.000017445 0H1170.72V2911.08H.000017445Z" clip-rule="evenodd"/>
</clipPath>
<clipPath id="clip_92">
<path transform="matrix(1,0,0,-1,0,2911.08)" d="M.000017445 0H1170.72V2911.08H.000017445Z" clip-rule="evenodd"/>
</clipPath>
<clipPath id="clip_93">
<path transform="matrix(1,0,0,-1,0,2911.08)" d="M.000017445 0H1170.72V2911.08H.000017445Z" clip-rule="evenodd"/>
</clipPath>
<clipPath id="clip_94">
<path transform="matrix(1,0,0,-1,0,2911.08)" d="M.000017445 0H1170.72V2911.08H.000017445Z" clip-rule="evenodd"/>
</clipPath>
<clipPath id="clip_95">
<path transform="matrix(1,0,0,-1,0,2911.08)" d="M.000017445 0H1170.72V2911.08H.000017445Z" clip-rule="evenodd"/>
</clipPath>
<clipPath id="clip_96">
<path transform="matrix(1,0,0,-1,0,2911.08)" d="M.000017445 0H1170.72V2911.08H.000017445Z" clip-rule="evenodd"/>
</clipPath>
<clipPath id="clip_97">
<path transform="matrix(1,0,0,-1,0,2911.08)" d="M-.000061035 .00073242H1170.72V2911.0809H-.000061035Z" clip-rule="evenodd"/>
</clipPath>
<clipPath id="clip_98">
<path transform="matrix(1,0,0,-1,0,2911.08)" d="M0 .00073242H1170.72V2911.0809H0Z" clip-rule="evenodd"/>
</clipPath>
<clipPath id="clip_99">
<path transform="matrix(1,0,0,-1,0,2911.08)" d="M0 .00073242H1170.72V2911.0809H0Z" clip-rule="evenodd"/>
</clipPath>
<clipPath id="clip_100">
<path transform="matrix(1,0,0,-1,0,2911.08)" d="M.000017445 0H1170.72V2911.08H.000017445Z" clip-rule="evenodd"/>
</clipPath>
<clipPath id="clip_101">
<path transform="matrix(1,0,0,-1,0,2911.08)" d="M.000017445 0H1170.72V2911.08H.000017445Z" clip-rule="evenodd"/>
</clipPath>
<clipPath id="clip_102">
<path transform="matrix(1,0,0,-1,0,2911.08)" d="M.000017445 0H1170.72V2911.08H.000017445Z" clip-rule="evenodd"/>
</clipPath>
<clipPath id="clip_103">
<path transform="matrix(1,0,0,-1,0,2911.08)" d="M.000017445 0H1170.72V2911.08H.000017445Z" clip-rule="evenodd"/>
</clipPath>
<clipPath id="clip_104">
<path transform="matrix(1,0,0,-1,0,2911.08)" d="M.000017445 0H1170.72V2911.08H.000017445Z" clip-rule="evenodd"/>
</clipPath>
<clipPath id="clip_105">
<path transform="matrix(1,0,0,-1,0,2911.08)" d="M.000017445 0H1170.72V2911.08H.000017445Z" clip-rule="evenodd"/>
</clipPath>
<clipPath id="clip_106">
<path transform="matrix(1,0,0,-1,0,2911.08)" d="M.000017445 0H1170.72V2911.08H.000017445Z" clip-rule="evenodd"/>
</clipPath>
<clipPath id="clip_107">
<path transform="matrix(1,0,0,-1,0,2911.08)" d="M.000017445 0H1170.72V2911.08H.000017445Z" clip-rule="evenodd"/>
</clipPath>
<clipPath id="clip_108">
<path transform="matrix(1,0,0,-1,0,2911.08)" d="M.000017445 0H1170.72V2911.08H.000017445Z" clip-rule="evenodd"/>
</clipPath>
<clipPath id="clip_109">
<path transform="matrix(1,0,0,-1,0,2911.08)" d="M.000017445 0H1170.72V2911.08H.000017445Z" clip-rule="evenodd"/>
</clipPath>
<clipPath id="clip_110">
<path transform="matrix(1,0,0,-1,0,2911.08)" d="M.000017445 0H1170.72V2911.08H.000017445Z" clip-rule="evenodd"/>
</clipPath>
<clipPath id="clip_111">
<path transform="matrix(1,0,0,-1,0,2911.08)" d="M.000017445 0H1170.72V2911.08H.000017445Z" clip-rule="evenodd"/>
</clipPath>
<clipPath id="clip_112">
<path transform="matrix(1,0,0,-1,0,2911.08)" d="M.000017445 0H1170.72V2911.08H.000017445Z" clip-rule="evenodd"/>
</clipPath>
<clipPath id="clip_113">
<path transform="matrix(1,0,0,-1,0,2911.08)" d="M.000017445 0H1170.72V2911.08H.000017445Z" clip-rule="evenodd"/>
</clipPath>
<clipPath id="clip_114">
<path transform="matrix(1,0,0,-1,0,2911.08)" d="M.000017445 0H1170.72V2911.08H.000017445Z" clip-rule="evenodd"/>
</clipPath>
<clipPath id="clip_115">
<path transform="matrix(1,0,0,-1,0,2911.08)" d="M.000017445 0H1170.72V2911.08H.000017445Z" clip-rule="evenodd"/>
</clipPath>
<clipPath id="clip_116">
<path transform="matrix(1,0,0,-1,0,2911.08)" d="M.000017445 0H1170.72V2911.08H.000017445Z" clip-rule="evenodd"/>
</clipPath>
<clipPath id="clip_117">
<path transform="matrix(1,0,0,-1,0,2911.08)" d="M.000017445 0H1170.72V2911.08H.000017445Z" clip-rule="evenodd"/>
</clipPath>
<clipPath id="clip_118">
<path transform="matrix(1,0,0,-1,0,2911.08)" d="M-.000061035 .00073242H1170.72V2911.0809H-.000061035Z" clip-rule="evenodd"/>
</clipPath>
<clipPath id="clip_119">
<path transform="matrix(1,0,0,-1,0,2911.08)" d="M0 .00073242H1170.72V2911.0809H0Z" clip-rule="evenodd"/>
</clipPath>
<clipPath id="clip_120">
<path transform="matrix(1,0,0,-1,0,2911.08)" d="M0 .00073242H1170.72V2911.0809H0Z" clip-rule="evenodd"/>
</clipPath>
<clipPath id="clip_121">
<path transform="matrix(1,0,0,-1,0,2911.08)" d="M.000017445 0H1170.72V2911.08H.000017445Z" clip-rule="evenodd"/>
</clipPath>
<clipPath id="clip_122">
<path transform="matrix(1,0,0,-1,0,2911.08)" d="M.000017445 0H1170.72V2911.08H.000017445Z" clip-rule="evenodd"/>
</clipPath>
<clipPath id="clip_123">
<path transform="matrix(1,0,0,-1,0,2911.08)" d="M.000017445 0H1170.72V2911.08H.000017445Z" clip-rule="evenodd"/>
</clipPath>
<clipPath id="clip_124">
<path transform="matrix(1,0,0,-1,0,2911.08)" d="M.000017445 0H1170.72V2911.08H.000017445Z" clip-rule="evenodd"/>
</clipPath>
<clipPath id="clip_125">
<path transform="matrix(1,0,0,-1,0,2911.08)" d="M.000017445 0H1170.72V2911.08H.000017445Z" clip-rule="evenodd"/>
</clipPath>
<clipPath id="clip_126">
<path transform="matrix(1,0,0,-1,0,2911.08)" d="M.000017445 0H1170.72V2911.08H.000017445Z" clip-rule="evenodd"/>
</clipPath>
<clipPath id="clip_127">
<path transform="matrix(1,0,0,-1,0,2911.08)" d="M.000017445 0H1170.72V2911.08H.000017445Z" clip-rule="evenodd"/>
</clipPath>
<clipPath id="clip_128">
<path transform="matrix(1,0,0,-1,0,2911.08)" d="M.000017445 0H1170.72V2911.08H.000017445Z" clip-rule="evenodd"/>
</clipPath>
<clipPath id="clip_129">
<path transform="matrix(1,0,0,-1,0,2911.08)" d="M.000017445 0H1170.72V2911.08H.000017445Z" clip-rule="evenodd"/>
</clipPath>
<clipPath id="clip_130">
<path transform="matrix(1,0,0,-1,0,2911.08)" d="M.000017445 0H1170.72V2911.08H.000017445Z" clip-rule="evenodd"/>
</clipPath>
<clipPath id="clip_131">
<path transform="matrix(1,0,0,-1,0,2911.08)" d="M.000017445 0H1170.72V2911.08H.000017445Z" clip-rule="evenodd"/>
</clipPath>
<clipPath id="clip_132">
<path transform="matrix(1,0,0,-1,0,2911.08)" d="M.000017445 0H1170.72V2911.08H.000017445Z" clip-rule="evenodd"/>
</clipPath>
<clipPath id="clip_133">
<path transform="matrix(1,0,0,-1,0,2911.08)" d="M.000017445 0H1170.72V2911.08H.000017445Z" clip-rule="evenodd"/>
</clipPath>
<clipPath id="clip_134">
<path transform="matrix(1,0,0,-1,0,2911.08)" d="M.000017445 0H1170.72V2911.08H.000017445Z" clip-rule="evenodd"/>
</clipPath>
<clipPath id="clip_135">
<path transform="matrix(1,0,0,-1,0,2911.08)" d="M.000017445 0H1170.72V2911.08H.000017445Z" clip-rule="evenodd"/>
</clipPath>
<clipPath id="clip_136">
<path transform="matrix(1,0,0,-1,0,2911.08)" d="M.000017445 0H1170.72V2911.08H.000017445Z" clip-rule="evenodd"/>
</clipPath>
<clipPath id="clip_137">
<path transform="matrix(1,0,0,-1,0,2911.08)" d="M.000017445 0H1170.72V2911.08H.000017445Z" clip-rule="evenodd"/>
</clipPath>
<clipPath id="clip_138">
<path transform="matrix(1,0,0,-1,0,2911.08)" d="M.000017445 0H1170.72V2911.08H.000017445Z" clip-rule="evenodd"/>
</clipPath>
<clipPath id="clip_139">
<path transform="matrix(1,0,0,-1,0,2911.08)" d="M0 .00097656H1170.72V2911.081H0Z" clip-rule="evenodd"/>
</clipPath>
<clipPath id="clip_140">
<path transform="matrix(1,0,0,-1,0,2911.08)" d="M0 .00073242H1170.72V2911.0809H0Z" clip-rule="evenodd"/>
</clipPath>
<clipPath id="clip_141">
<path transform="matrix(1,0,0,-1,0,2911.08)" d="M0 .00073242H1170.72V2911.0809H0Z" clip-rule="evenodd"/>
</clipPath>
<clipPath id="clip_142">
<path transform="matrix(1,0,0,-1,0,2911.08)" d="M.000017445 0H1170.72V2911.08H.000017445Z" clip-rule="evenodd"/>
</clipPath>
<clipPath id="clip_143">
<path transform="matrix(1,0,0,-1,0,2911.08)" d="M.000017445 0H1170.72V2911.08H.000017445Z" clip-rule="evenodd"/>
</clipPath>
<clipPath id="clip_144">
<path transform="matrix(1,0,0,-1,0,2911.08)" d="M.000017445 0H1170.72V2911.08H.000017445Z" clip-rule="evenodd"/>
</clipPath>
<clipPath id="clip_145">
<path transform="matrix(1,0,0,-1,0,2911.08)" d="M.000017445 0H1170.72V2911.08H.000017445Z" clip-rule="evenodd"/>
</clipPath>
<clipPath id="clip_146">
<path transform="matrix(1,0,0,-1,0,2911.08)" d="M.000017445 0H1170.72V2911.08H.000017445Z" clip-rule="evenodd"/>
</clipPath>
<clipPath id="clip_147">
<path transform="matrix(1,0,0,-1,0,2911.08)" d="M.000017445 0H1170.72V2911.08H.000017445Z" clip-rule="evenodd"/>
</clipPath>
<clipPath id="clip_148">
<path transform="matrix(1,0,0,-1,0,2911.08)" d="M.000017445 0H1170.72V2911.08H.000017445Z" clip-rule="evenodd"/>
</clipPath>
<clipPath id="clip_149">
<path transform="matrix(1,0,0,-1,0,2911.08)" d="M.000017445 0H1170.72V2911.08H.000017445Z" clip-rule="evenodd"/>
</clipPath>
<clipPath id="clip_150">
<path transform="matrix(1,0,0,-1,0,2911.08)" d="M.000017445 0H1170.72V2911.08H.000017445Z" clip-rule="evenodd"/>
</clipPath>
<clipPath id="clip_151">
<path transform="matrix(1,0,0,-1,0,2911.08)" d="M.000017445 0H1170.72V2911.08H.000017445Z" clip-rule="evenodd"/>
</clipPath>
<clipPath id="clip_152">
<path transform="matrix(1,0,0,-1,0,2911.08)" d="M.000017445 0H1170.72V2911.08H.000017445Z" clip-rule="evenodd"/>
</clipPath>
<clipPath id="clip_153">
<path transform="matrix(1,0,0,-1,0,2911.08)" d="M.000017445 0H1170.72V2911.08H.000017445Z" clip-rule="evenodd"/>
</clipPath>
<clipPath id="clip_154">
<path transform="matrix(1,0,0,-1,0,2911.08)" d="M.000017445 0H1170.72V2911.08H.000017445Z" clip-rule="evenodd"/>
</clipPath>
<clipPath id="clip_155">
<path transform="matrix(1,0,0,-1,0,2911.08)" d="M.000017445 0H1170.72V2911.08H.000017445Z" clip-rule="evenodd"/>
</clipPath>
<clipPath id="clip_156">
<path transform="matrix(1,0,0,-1,0,2911.08)" d="M.000017445 0H1170.72V2911.08H.000017445Z" clip-rule="evenodd"/>
</clipPath>
<clipPath id="clip_157">
<path transform="matrix(1,0,0,-1,0,2911.08)" d="M.000017445 0H1170.72V2911.08H.000017445Z" clip-rule="evenodd"/>
</clipPath>
<clipPath id="clip_158">
<path transform="matrix(1,0,0,-1,0,2911.08)" d="M.000017445 0H1170.72V2911.08H.000017445Z" clip-rule="evenodd"/>
</clipPath>
<clipPath id="clip_159">
<path transform="matrix(1,0,0,-1,0,2911.08)" d="M.000017445 0H1170.72V2911.08H.000017445Z" clip-rule="evenodd"/>
</clipPath>
<clipPath id="clip_160">
<path transform="matrix(1,0,0,-1,0,2911.08)" d="M0 .00048828H1170.72V2911.0806H0Z" clip-rule="evenodd"/>
</clipPath>
<clipPath id="clip_161">
<path transform="matrix(1,0,0,-1,0,2911.08)" d="M0 .00073242H1170.72V2911.0809H0Z" clip-rule="evenodd"/>
</clipPath>
<clipPath id="clip_162">
<path transform="matrix(1,0,0,-1,0,2911.08)" d="M0 .00073242H1170.72V2911.0809H0Z" clip-rule="evenodd"/>
</clipPath>
<clipPath id="clip_163">
<path transform="matrix(1,0,0,-1,0,2911.08)" d="M.000017445 0H1170.72V2911.08H.000017445Z" clip-rule="evenodd"/>
</clipPath>
<clipPath id="clip_164">
<path transform="matrix(1,0,0,-1,0,2911.08)" d="M.000017445 0H1170.72V2911.08H.000017445Z" clip-rule="evenodd"/>
</clipPath>
<clipPath id="clip_165">
<path transform="matrix(1,0,0,-1,0,2911.08)" d="M.000017445 0H1170.72V2911.08H.000017445Z" clip-rule="evenodd"/>
</clipPath>
<clipPath id="clip_166">
<path transform="matrix(1,0,0,-1,0,2911.08)" d="M.000017445 0H1170.72V2911.08H.000017445Z" clip-rule="evenodd"/>
</clipPath>
<clipPath id="clip_167">
<path transform="matrix(1,0,0,-1,0,2911.08)" d="M.000017445 0H1170.72V2911.08H.000017445Z" clip-rule="evenodd"/>
</clipPath>
<clipPath id="clip_168">
<path transform="matrix(1,0,0,-1,0,2911.08)" d="M.000017445 0H1170.72V2911.08H.000017445Z" clip-rule="evenodd"/>
</clipPath>
<clipPath id="clip_169">
<path transform="matrix(1,0,0,-1,0,2911.08)" d="M.000017445 0H1170.72V2911.08H.000017445Z" clip-rule="evenodd"/>
</clipPath>
<clipPath id="clip_170">
<path transform="matrix(1,0,0,-1,0,2911.08)" d="M.000017445 0H1170.72V2911.08H.000017445Z" clip-rule="evenodd"/>
</clipPath>
<clipPath id="clip_171">
<path transform="matrix(1,0,0,-1,0,2911.08)" d="M.000017445 0H1170.72V2911.08H.000017445Z" clip-rule="evenodd"/>
</clipPath>
<clipPath id="clip_172">
<path transform="matrix(1,0,0,-1,0,2911.08)" d="M.000017445 0H1170.72V2911.08H.000017445Z" clip-rule="evenodd"/>
</clipPath>
<clipPath id="clip_173">
<path transform="matrix(1,0,0,-1,0,2911.08)" d="M.000017445 0H1170.72V2911.08H.000017445Z" clip-rule="evenodd"/>
</clipPath>
<clipPath id="clip_174">
<path transform="matrix(1,0,0,-1,0,2911.08)" d="M.000017445 0H1170.72V2911.08H.000017445Z" clip-rule="evenodd"/>
</clipPath>
<clipPath id="clip_175">
<path transform="matrix(1,0,0,-1,0,2911.08)" d="M.000017445 0H1170.72V2911.08H.000017445Z" clip-rule="evenodd"/>
</clipPath>
<clipPath id="clip_176">
<path transform="matrix(1,0,0,-1,0,2911.08)" d="M.000017445 0H1170.72V2911.08H.000017445Z" clip-rule="evenodd"/>
</clipPath>
<clipPath id="clip_177">
<path transform="matrix(1,0,0,-1,0,2911.08)" d="M.000017445 0H1170.72V2911.08H.000017445Z" clip-rule="evenodd"/>
</clipPath>
<clipPath id="clip_178">
<path transform="matrix(1,0,0,-1,0,2911.08)" d="M.000017445 0H1170.72V2911.08H.000017445Z" clip-rule="evenodd"/>
</clipPath>
<clipPath id="clip_179">
<path transform="matrix(1,0,0,-1,0,2911.08)" d="M.000017445 0H1170.72V2911.08H.000017445Z" clip-rule="evenodd"/>
</clipPath>
<clipPath id="clip_180">
<path transform="matrix(1,0,0,-1,0,2911.08)" d="M.000017445 0H1170.72V2911.08H.000017445Z" clip-rule="evenodd"/>
</clipPath>
<clipPath id="clip_181">
<path transform="matrix(1,0,0,-1,0,2911.08)" d="M0 .00048828H1170.72V2911.0806H0Z" clip-rule="evenodd"/>
</clipPath>
<clipPath id="clip_182">
<path transform="matrix(1,0,0,-1,0,2911.08)" d="M.000030518 .00073242H1170.72V2911.0809H.000030518Z" clip-rule="evenodd"/>
</clipPath>
<clipPath id="clip_183">
<path transform="matrix(1,0,0,-1,0,2911.08)" d="M.000030518 .00073242H1170.72V2911.0809H.000030518Z" clip-rule="evenodd"/>
</clipPath>
<clipPath id="clip_184">
<path transform="matrix(1,0,0,-1,0,2911.08)" d="M.000017445 0H1170.72V2911.08H.000017445Z" clip-rule="evenodd"/>
</clipPath>
<clipPath id="clip_185">
<path transform="matrix(1,0,0,-1,0,2911.08)" d="M.000017445 0H1170.72V2911.08H.000017445Z" clip-rule="evenodd"/>
</clipPath>
<clipPath id="clip_186">
<path transform="matrix(1,0,0,-1,0,2911.08)" d="M0 .00097656H1170.72V2911.081H0Z" clip-rule="evenodd"/>
</clipPath>
<clipPath id="clip_187">
<path transform="matrix(1,0,0,-1,0,2911.08)" d="M0 .0014648H1170.72V2911.0816H0Z" clip-rule="evenodd"/>
</clipPath>
<clipPath id="clip_188">
<path transform="matrix(1,0,0,-1,0,2911.08)" d="M-.000061035 .0014648H1170.72V2911.0816H-.000061035Z" clip-rule="evenodd"/>
</clipPath>
<clipPath id="clip_189">
<path transform="matrix(1,0,0,-1,0,2911.08)" d="M0 .0014648H1170.72V2911.0816H0Z" clip-rule="evenodd"/>
</clipPath>
<clipPath id="clip_190">
<path transform="matrix(1,0,0,-1,0,2911.08)" d="M0 .0014648H1170.72V2911.0816H0Z" clip-rule="evenodd"/>
</clipPath>
<clipPath id="clip_191">
<path transform="matrix(1,0,0,-1,0,2911.08)" d="M0 .0014648H1170.72V2911.0816H0Z" clip-rule="evenodd"/>
</clipPath>
<clipPath id="clip_192">
<path transform="matrix(1,0,0,-1,0,2911.08)" d="M-.00012207 .00097656H1170.7199V2911.081H-.00012207Z" clip-rule="evenodd"/>
</clipPath>
<clipPath id="clip_193">
<path transform="matrix(1,0,0,-1,0,2911.08)" d="M-.00012207 .0014648H1170.7199V2911.0816H-.00012207Z" clip-rule="evenodd"/>
</clipPath>
<clipPath id="clip_194">
<path transform="matrix(1,0,0,-1,0,2911.08)" d="M0 .00097656H1170.72V2911.081H0Z" clip-rule="evenodd"/>
</clipPath>
<clipPath id="clip_195">
<path transform="matrix(1,0,0,-1,0,2911.08)" d="M-.00012207 .00073242H1170.7199V2911.0809H-.00012207Z" clip-rule="evenodd"/>
</clipPath>
<clipPath id="clip_196">
<path transform="matrix(1,0,0,-1,0,2911.08)" d="M-.00012207 .0012207H1170.7199V2911.0814H-.00012207Z" clip-rule="evenodd"/>
</clipPath>
<clipPath id="clip_197">
<path transform="matrix(1,0,0,-1,0,2911.08)" d="M-.00012207 .0014648H1170.7199V2911.0816H-.00012207Z" clip-rule="evenodd"/>
</clipPath>
</defs>
<g>
<g clip-path="url(#clip_1)">
<path transform="matrix(1,0,0,-1,0,2911.08)" d="M0-.044678H1170.75V2911.0755H0Z" fill="#ffffff" fill-rule="evenodd"/>
</g>
<g clip-path="url(#clip_2)">
<path transform="matrix(1,0,0,-1,0,2911.08)" d="M302.44 1342.68C302.44 1394.45 344.41 1436.43 396.19 1436.43H771.18C822.96 1436.43 864.94 1394.45 864.94 1342.68V488.95C864.94 437.18 822.96 395.2 771.18 395.2H396.19C344.41 395.2 302.44 437.18 302.44 488.95Z" fill="#ffffff" fill-rule="evenodd"/>
</g>
<g clip-path="url(#clip_3)">
<path transform="matrix(1,0,0,-1,0,2911.08)" stroke-width="3" stroke-linecap="butt" stroke-dasharray="24,9" stroke-miterlimit="10" stroke-linejoin="miter" fill="none" stroke="#000000" d="M302.44 1342.68C302.44 1394.45 344.41 1436.43 396.19 1436.43H771.18C822.96 1436.43 864.94 1394.45 864.94 1342.68V488.95C864.94 437.18 822.96 395.2 771.18 395.2H396.19C344.41 395.2 302.44 437.18 302.44 488.95Z"/>
</g>
<g clip-path="url(#clip_4)">
<path transform="matrix(1,0,0,-1,0,2911.08)" d="M300.25 1914.08C300.25 1965.3 341.77 2006.82 392.99 2006.82H770C821.22 2006.82 862.75 1965.3 862.75 1914.08V1543.12C862.75 1491.9 821.22 1450.37 770 1450.37H392.99C341.77 1450.37 300.25 1491.9 300.25 1543.12Z" fill="#ffffff" fill-rule="evenodd"/>
</g>
<g clip-path="url(#clip_5)">
<path transform="matrix(1,0,0,-1,0,2911.08)" stroke-width="3" stroke-linecap="butt" stroke-dasharray="24,9" stroke-miterlimit="10" stroke-linejoin="miter" fill="none" stroke="#000000" d="M300.25 1914.08C300.25 1965.3 341.77 2006.82 392.99 2006.82H770C821.22 2006.82 862.75 1965.3 862.75 1914.08V1543.12C862.75 1491.9 821.22 1450.37 770 1450.37H392.99C341.77 1450.37 300.25 1491.9 300.25 1543.12Z"/>
</g>
<g clip-path="url(#clip_6)">
<path transform="matrix(1,0,0,-1,0,2911.08)" d="M302.44 2620.77C302.44 2672.54 344.41 2714.52 396.19 2714.52H771.18C822.96 2714.52 864.94 2672.54 864.94 2620.77V2111.45C864.94 2059.67 822.96 2017.69 771.18 2017.69H396.19C344.41 2017.69 302.44 2059.67 302.44 2111.45Z" fill="#ffffff" fill-rule="evenodd"/>
</g>
<g clip-path="url(#clip_7)">
<path transform="matrix(1,0,0,-1,0,2911.08)" stroke-width="3" stroke-linecap="butt" stroke-dasharray="24,9" stroke-miterlimit="10" stroke-linejoin="miter" fill="none" stroke="#000000" d="M302.44 2620.77C302.44 2672.54 344.41 2714.52 396.19 2714.52H771.18C822.96 2714.52 864.94 2672.54 864.94 2620.77V2111.45C864.94 2059.67 822.96 2017.69 771.18 2017.69H396.19C344.41 2017.69 302.44 2059.67 302.44 2111.45Z"/>
</g>
<g clip-path="url(#clip_8)">
<path transform="matrix(1,0,0,-1,0,2911.08)" d="M385.94 2642.79C385.94 2656.81 397.31 2668.18 411.33 2668.18H759.42C773.44 2668.18 784.81 2656.81 784.81 2642.79V2541.22C784.81 2527.2 773.44 2515.83 759.42 2515.83H411.33C397.31 2515.83 385.94 2527.2 385.94 2541.22Z" fill="#f6c6ad" fill-rule="evenodd"/>
</g>
<g clip-path="url(#clip_9)">
<path transform="matrix(1,0,0,-1,0,2911.08)" stroke-width="2.25" stroke-linecap="butt" stroke-miterlimit="10" stroke-linejoin="miter" fill="none" stroke="#000000" d="M385.94 2642.79C385.94 2656.81 397.31 2668.18 411.33 2668.18H759.42C773.44 2668.18 784.81 2656.81 784.81 2642.79V2541.22C784.81 2527.2 773.44 2515.83 759.42 2515.83H411.33C397.31 2515.83 385.94 2527.2 385.94 2541.22Z"/>
</g>
<g clip-path="url(#clip_10)">
<text xml:space="preserve" transform="matrix(1 0 -0 1 0 2911.08)" font-size="36" font-family="Arial Nova"><tspan y="-2629.54" x="456.14 477.38 497.396 516.26 536.276 556.868 576.596 589.592 599.492 620.084 628.148 648.164 667.028 685.028 694.82009">Encoder block 1</tspan></text>
</g>
<g clip-path="url(#clip_11)">
<text xml:space="preserve" transform="matrix(1 0 -0 1 0 2911.08)" font-size="24" font-family="Arial Nova"><tspan y="-2536.03" x="419.76 438.40803 451.68003 458.66404 472.32005 485.66404 492.64805 499.53605 510.96006 524.3041 536.8561 550.5841 563.2561 569.2561 575.7361 583.7281 599.4481 605.4481 612.0481 628.87216 635.73617 649.08016 655.08016 661.6801 683.40017 690.26419 703.51217 709.51217 716.3281 729.6721 743.0161">Output shape: (B, H/2, W/2, 32)</tspan></text>
</g>
<g clip-path="url(#clip_12)">
<path transform="matrix(1,0,0,-1,0,2911.08)" d="M385.94 2826.83C385.94 2835.56 393.02 2842.64 401.75 2842.64H769C777.73 2842.64 784.81 2835.56 784.81 2826.83V2763.57C784.81 2754.84 777.73 2747.76 769 2747.76H401.75C393.02 2747.76 385.94 2754.84 385.94 2763.57Z" fill="#c2f1c8" fill-rule="evenodd"/>
</g>
<g clip-path="url(#clip_13)">
<path transform="matrix(1,0,0,-1,0,2911.08)" stroke-width="2.25" stroke-linecap="butt" stroke-miterlimit="10" stroke-linejoin="miter" fill="none" stroke="#000000" d="M385.94 2826.83C385.94 2835.56 393.02 2842.64 401.75 2842.64H769C777.73 2842.64 784.81 2835.56 784.81 2826.83V2763.57C784.81 2754.84 777.73 2747.76 769 2747.76H401.75C393.02 2747.76 385.94 2754.84 385.94 2763.57Z"/>
</g>
<g clip-path="url(#clip_14)">
<text xml:space="preserve" transform="matrix(1 0 -0 1 0 2911.08)" font-size="39.96" font-family="Arial Nova"><tspan y="-2803.08" x="540.96 550.99 573.20779 596.0649 618.28268">Input</tspan></text>
</g>
<g clip-path="url(#clip_15)">
<text xml:space="preserve" transform="matrix(1 0 -0 1 0 2911.08)" font-size="24" font-family="Arial Nova"><tspan y="-2763.62" x="419.83 438.478 451.75 458.734 472.39 485.734 492.71803 499.60603 511.03004 524.374 536.926 550.65408 563.32608 569.32608 575.806 583.79806 599.51809 605.51809 612.11807 628.9421 635.8061 649.1501 655.1501 661.75009 683.4701 690.3341 703.5821 709.5821 716.3981 729.74209 743.08609">Output shape: (B, H/2, W/2, 32)</tspan></text>
</g>
<g clip-path="url(#clip_16)">
<path transform="matrix(1,0,0,-1,0,2911.08)" d="M588.66 2747.07V2679.86H582.66V2747.07ZM594.66 2682.86 585.66 2664.86 576.66 2682.86Z"/>
</g>
<g clip-path="url(#clip_17)">
<path transform="matrix(1,0,0,-1,0,2911.08)" d="M588.66 2515.83V2448.63H582.66V2515.83ZM594.66 2451.63 585.66 2433.63 576.66 2451.63Z"/>
</g>
<g clip-path="url(#clip_18)">
<text xml:space="preserve" transform="matrix(1 0 -0 1 0 2911.08)" font-size="18" font-family="Arial Nova"><tspan y="-2604.86" x="505.63 518.518 528.436 538.444 547.282 552.412">Conv 3</tspan></text>
</g>
<g clip-path="url(#clip_19)">
<text xml:space="preserve" transform="matrix(1 0 -0 1 0 2911.08)" font-size="18" font-family="Arial Nova"><tspan y="-2604.86" x="562.39">&#x00d7;</tspan></text>
</g>
<g clip-path="url(#clip_20)">
<text xml:space="preserve" transform="matrix(1 0 -0 1 0 2911.08)" font-size="18" font-family="Arial Nova"><tspan y="-2604.86" x="572.95 582.958 587.458 592.408 602.344 612.352 616.852">3, 32, </tspan></text>
</g>
<g clip-path="url(#clip_21)">
<text xml:space="preserve" transform="matrix(1 0 -0 1 0 2911.08)" font-size="18" font-family="Arial Nova"><tspan y="-2604.86" x="621.91 633.30398 643.16799 652.618">ReLU</tspan></text>
</g>
<g clip-path="url(#clip_22)">
<text xml:space="preserve" transform="matrix(1 0 -0 1 0 2911.08)" font-size="18" font-family="Arial Nova"><tspan y="-2583.26" x="505.63 518.518 528.436 538.444 547.282 552.412">Conv 3</tspan></text>
</g>
<g clip-path="url(#clip_23)">
<text xml:space="preserve" transform="matrix(1 0 -0 1 0 2911.08)" font-size="18" font-family="Arial Nova"><tspan y="-2583.26" x="562.39">&#x00d7;</tspan></text>
</g>
<g clip-path="url(#clip_24)">
<text xml:space="preserve" transform="matrix(1 0 -0 1 0 2911.08)" font-size="18" font-family="Arial Nova"><tspan y="-2583.26" x="572.95 582.958 587.458 592.408 602.344 612.352 616.852">3, 32, </tspan></text>
</g>
<g clip-path="url(#clip_25)">
<text xml:space="preserve" transform="matrix(1 0 -0 1 0 2911.08)" font-size="18" font-family="Arial Nova"><tspan y="-2583.26" x="621.91 633.30398 643.16799 652.618">ReLU</tspan></text>
</g>
<g clip-path="url(#clip_26)">
<text xml:space="preserve" transform="matrix(1 0 -0 1 0 2911.08)" font-size="18" font-family="Arial Nova"><tspan y="-2561.66" x="533.47 548.53598 558.16598 567.022 577.82199 587.82998 597.7479">MaxPool</tspan></text>
</g>
<g clip-path="url(#clip_27)">
<text xml:space="preserve" transform="matrix(1 0 -0 1 0 2911.08)" font-size="18" font-family="Arial Nova"><tspan y="-2561.66" x="601.87"> </tspan></text>
</g>
<g clip-path="url(#clip_28)">
<text xml:space="preserve" transform="matrix(1 0 -0 1 0 2911.08)" font-size="18" font-family="Arial Nova"><tspan y="-2561.66" x="606.79">2</tspan></text>
</g>
<g clip-path="url(#clip_29)">
<text xml:space="preserve" transform="matrix(1 0 -0 1 0 2911.08)" font-size="18" font-family="Arial Nova"><tspan y="-2561.66" x="616.75">&#x00d7;</tspan></text>
</g>
<g clip-path="url(#clip_30)">
<text xml:space="preserve" transform="matrix(1 0 -0 1 0 2911.08)" font-size="18" font-family="Arial Nova"><tspan y="-2561.66" x="627.31">2</tspan></text>
</g>
<g clip-path="url(#clip_31)">
<path transform="matrix(1,0,0,-1,0,2911.08)" d="M385.94 2408.24C385.94 2422.26 397.31 2433.63 411.33 2433.63H759.42C773.44 2433.63 784.81 2422.26 784.81 2408.24V2306.67C784.81 2292.64 773.44 2281.28 759.42 2281.28H411.33C397.31 2281.28 385.94 2292.64 385.94 2306.67Z" fill="#f6c6ad" fill-rule="evenodd"/>
</g>
<g clip-path="url(#clip_32)">
<path transform="matrix(1,0,0,-1,0,2911.08)" stroke-width="2.25" stroke-linecap="butt" stroke-miterlimit="10" stroke-linejoin="miter" fill="none" stroke="#000000" d="M385.94 2408.24C385.94 2422.26 397.31 2433.63 411.33 2433.63H759.42C773.44 2433.63 784.81 2422.26 784.81 2408.24V2306.67C784.81 2292.64 773.44 2281.28 759.42 2281.28H411.33C397.31 2281.28 385.94 2292.64 385.94 2306.67Z"/>
</g>
<g clip-path="url(#clip_33)">
<text xml:space="preserve" transform="matrix(1 0 -0 1 0 2911.08)" font-size="36" font-family="Arial Nova"><tspan y="-2394.96" x="456.14 477.38 497.396 516.26 536.276 556.868 576.596 589.592 599.492 620.084 628.148 648.164 667.028 685.028 694.82009">Encoder block 2</tspan></text>
</g>
<g clip-path="url(#clip_34)">
<text xml:space="preserve" transform="matrix(1 0 -0 1 0 2911.08)" font-size="24" font-family="Arial Nova"><tspan y="-2301.48" x="419.76 438.40803 451.68003 458.66404 472.32005 485.66404 492.64805 499.53605 510.96006 524.3041 536.8561 550.5841 563.2561 569.2561 575.7361 583.7281 599.4481 605.4481 612.0481 628.87216 635.73617 649.08016 655.08016 661.6801 683.40017 690.26419 703.51217 709.51217 716.3281 729.6721 743.0161">Output shape: (B, H/4, W/4, 64)</tspan></text>
</g>
<g clip-path="url(#clip_35)">
<path transform="matrix(1,0,0,-1,0,2911.08)" d="M588.66 2281.28V2214.08H582.66V2281.28ZM594.66 2217.08 585.66 2199.08 576.66 2217.08Z"/>
</g>
<g clip-path="url(#clip_36)">
<text xml:space="preserve" transform="matrix(1 0 -0 1 0 2911.08)" font-size="18" font-family="Arial Nova"><tspan y="-2370.31" x="505.63 518.518 528.436 538.444 547.282 552.412">Conv 3</tspan></text>
</g>
<g clip-path="url(#clip_37)">
<text xml:space="preserve" transform="matrix(1 0 -0 1 0 2911.08)" font-size="18" font-family="Arial Nova"><tspan y="-2370.31" x="562.39">&#x00d7;</tspan></text>
</g>
<g clip-path="url(#clip_38)">
<text xml:space="preserve" transform="matrix(1 0 -0 1 0 2911.08)" font-size="18" font-family="Arial Nova"><tspan y="-2370.31" x="572.95 582.958 587.458 592.408 602.344 612.352 616.852">3, 64, </tspan></text>
</g>
<g clip-path="url(#clip_39)">
<text xml:space="preserve" transform="matrix(1 0 -0 1 0 2911.08)" font-size="18" font-family="Arial Nova"><tspan y="-2370.31" x="621.91 633.30398 643.16799 652.618">ReLU</tspan></text>
</g>
<g clip-path="url(#clip_40)">
<text xml:space="preserve" transform="matrix(1 0 -0 1 0 2911.08)" font-size="18" font-family="Arial Nova"><tspan y="-2348.71" x="505.63 518.518 528.436 538.444 547.282 552.412">Conv 3</tspan></text>
</g>
<g clip-path="url(#clip_41)">
<text xml:space="preserve" transform="matrix(1 0 -0 1 0 2911.08)" font-size="18" font-family="Arial Nova"><tspan y="-2348.71" x="562.39">&#x00d7;</tspan></text>
</g>
<g clip-path="url(#clip_42)">
<text xml:space="preserve" transform="matrix(1 0 -0 1 0 2911.08)" font-size="18" font-family="Arial Nova"><tspan y="-2348.71" x="572.95 582.958 587.458 592.408 602.344 612.352 616.852">3, 64, </tspan></text>
</g>
<g clip-path="url(#clip_43)">
<text xml:space="preserve" transform="matrix(1 0 -0 1 0 2911.08)" font-size="18" font-family="Arial Nova"><tspan y="-2348.71" x="621.91 633.30398 643.16799 652.618">ReLU</tspan></text>
</g>
<g clip-path="url(#clip_44)">
<text xml:space="preserve" transform="matrix(1 0 -0 1 0 2911.08)" font-size="18" font-family="Arial Nova"><tspan y="-2327.11" x="533.47 548.53598 558.16598 567.022 577.82199 587.82998 597.7479">MaxPool</tspan></text>
</g>
<g clip-path="url(#clip_45)">
<text xml:space="preserve" transform="matrix(1 0 -0 1 0 2911.08)" font-size="18" font-family="Arial Nova"><tspan y="-2327.11" x="601.87"> </tspan></text>
</g>
<g clip-path="url(#clip_46)">
<text xml:space="preserve" transform="matrix(1 0 -0 1 0 2911.08)" font-size="18" font-family="Arial Nova"><tspan y="-2327.11" x="606.79">2</tspan></text>
</g>
<g clip-path="url(#clip_47)">
<text xml:space="preserve" transform="matrix(1 0 -0 1 0 2911.08)" font-size="18" font-family="Arial Nova"><tspan y="-2327.11" x="616.75">&#x00d7;</tspan></text>
</g>
<g clip-path="url(#clip_48)">
<text xml:space="preserve" transform="matrix(1 0 -0 1 0 2911.08)" font-size="18" font-family="Arial Nova"><tspan y="-2327.11" x="627.31">2</tspan></text>
</g>
<g clip-path="url(#clip_49)">
<path transform="matrix(1,0,0,-1,0,2911.08)" d="M385.94 2173.68C385.94 2187.71 397.31 2199.08 411.33 2199.08H759.42C773.44 2199.08 784.81 2187.71 784.81 2173.68V2072.12C784.81 2058.09 773.44 2046.72 759.42 2046.72H411.33C397.31 2046.72 385.94 2058.09 385.94 2072.12Z" fill="#f6c6ad" fill-rule="evenodd"/>
</g>
<g clip-path="url(#clip_50)">
<path transform="matrix(1,0,0,-1,0,2911.08)" stroke-width="2.25" stroke-linecap="butt" stroke-miterlimit="10" stroke-linejoin="miter" fill="none" stroke="#000000" d="M385.94 2173.68C385.94 2187.71 397.31 2199.08 411.33 2199.08H759.42C773.44 2199.08 784.81 2187.71 784.81 2173.68V2072.12C784.81 2058.09 773.44 2046.72 759.42 2046.72H411.33C397.31 2046.72 385.94 2058.09 385.94 2072.12Z"/>
</g>
<g clip-path="url(#clip_51)">
<text xml:space="preserve" transform="matrix(1 0 -0 1 0 2911.08)" font-size="36" font-family="Arial Nova"><tspan y="-2160.41" x="456.14 477.38 497.396 516.26 536.276 556.868 576.596 589.592 599.492 620.084 628.148 648.164 667.028 685.028 694.82009">Encoder block 3</tspan></text>
</g>
<g clip-path="url(#clip_52)">
<text xml:space="preserve" transform="matrix(1 0 -0 1 0 2911.08)" font-size="24" font-family="Arial Nova"><tspan y="-2066.93" x="423.74 442.388 455.66 462.644 476.30003 489.644 496.62803 503.51603 514.94 528.284 540.836 554.564 567.236 573.236 579.716 587.708 603.428 609.428 616.02798 632.852 639.716 653.06 659.06 665.66 687.38 694.244 707.492 713.492 720.308 733.652 746.996 760.26797">Output shape: (B, H/8, W/8, 128)</tspan></text>
</g>
<g clip-path="url(#clip_53)">
<path transform="matrix(1,0,0,-1,0,2911.08)" d="M588.66 2046.73V1979.52H582.66V2046.73ZM594.66 1982.52 585.66 1964.52 576.66 1982.52Z"/>
</g>
<g clip-path="url(#clip_54)">
<text xml:space="preserve" transform="matrix(1 0 -0 1 0 2911.08)" font-size="18" font-family="Arial Nova"><tspan y="-2135.74" x="500.59 513.478 523.396 533.404 542.242 547.372">Conv 3</tspan></text>
</g>
<g clip-path="url(#clip_55)">
<text xml:space="preserve" transform="matrix(1 0 -0 1 0 2911.08)" font-size="18" font-family="Arial Nova"><tspan y="-2135.74" x="557.35">&#x00d7;</tspan></text>
</g>
<g clip-path="url(#clip_56)">
<text xml:space="preserve" transform="matrix(1 0 -0 1 0 2911.08)" font-size="18" font-family="Arial Nova"><tspan y="-2135.74" x="567.91 577.91799 582.41799 587.368 597.30398 607.31198 617.2299 621.7659">3, 128, </tspan></text>
</g>
<g clip-path="url(#clip_57)">
<text xml:space="preserve" transform="matrix(1 0 -0 1 0 2911.08)" font-size="18" font-family="Arial Nova"><tspan y="-2135.74" x="626.83 638.224 648.088 657.538">ReLU</tspan></text>
</g>
<g clip-path="url(#clip_58)">
<text xml:space="preserve" transform="matrix(1 0 -0 1 0 2911.08)" font-size="18" font-family="Arial Nova"><tspan y="-2114.14" x="500.59 513.478 523.396 533.404 542.242 547.372">Conv 3</tspan></text>
</g>
<g clip-path="url(#clip_59)">
<text xml:space="preserve" transform="matrix(1 0 -0 1 0 2911.08)" font-size="18" font-family="Arial Nova"><tspan y="-2114.14" x="557.35">&#x00d7;</tspan></text>
</g>
<g clip-path="url(#clip_60)">
<text xml:space="preserve" transform="matrix(1 0 -0 1 0 2911.08)" font-size="18" font-family="Arial Nova"><tspan y="-2114.14" x="567.91 577.91799 582.41799 587.368 597.30398 607.31198 617.2299 621.7659">3, 128, </tspan></text>
</g>
<g clip-path="url(#clip_61)">
<text xml:space="preserve" transform="matrix(1 0 -0 1 0 2911.08)" font-size="18" font-family="Arial Nova"><tspan y="-2114.14" x="626.83 638.224 648.088 657.538">ReLU</tspan></text>
</g>
<g clip-path="url(#clip_62)">
<text xml:space="preserve" transform="matrix(1 0 -0 1 0 2911.08)" font-size="18" font-family="Arial Nova"><tspan y="-2092.54" x="533.47 548.53598 558.16598 567.022 577.82199 587.82998 597.7479">MaxPool</tspan></text>
</g>
<g clip-path="url(#clip_63)">
<text xml:space="preserve" transform="matrix(1 0 -0 1 0 2911.08)" font-size="18" font-family="Arial Nova"><tspan y="-2092.54" x="601.87"> </tspan></text>
</g>
<g clip-path="url(#clip_64)">
<text xml:space="preserve" transform="matrix(1 0 -0 1 0 2911.08)" font-size="18" font-family="Arial Nova"><tspan y="-2092.54" x="606.79">2</tspan></text>
</g>
<g clip-path="url(#clip_65)">
<text xml:space="preserve" transform="matrix(1 0 -0 1 0 2911.08)" font-size="18" font-family="Arial Nova"><tspan y="-2092.54" x="616.75">&#x00d7;</tspan></text>
</g>
<g clip-path="url(#clip_66)">
<text xml:space="preserve" transform="matrix(1 0 -0 1 0 2911.08)" font-size="18" font-family="Arial Nova"><tspan y="-2092.54" x="627.31">2</tspan></text>
</g>
<g clip-path="url(#clip_67)">
<path transform="matrix(1,0,0,-1,0,2911.08)" d="M384.25 1930.82C384.25 1949.3 399.23 1964.28 417.71 1964.28H749.66C768.14 1964.28 783.12 1949.3 783.12 1930.82V1796.98C783.12 1778.5 768.14 1763.52 749.66 1763.52H417.71C399.23 1763.52 384.25 1778.5 384.25 1796.98Z" fill="#46b1e1" fill-rule="evenodd"/>
</g>
<g clip-path="url(#clip_68)">
<path transform="matrix(1,0,0,-1,0,2911.08)" stroke-width="2.25" stroke-linecap="butt" stroke-miterlimit="10" stroke-linejoin="miter" fill="none" stroke="#000000" d="M384.25 1930.82C384.25 1949.3 399.23 1964.28 417.71 1964.28H749.66C768.14 1964.28 783.12 1949.3 783.12 1930.82V1796.98C783.12 1778.5 768.14 1763.52 749.66 1763.52H417.71C399.23 1763.52 384.25 1778.5 384.25 1796.98Z"/>
</g>
<g clip-path="url(#clip_69)">
<text xml:space="preserve" transform="matrix(1 0 -0 1 0 2911.08)" font-size="36" font-family="Arial Nova"><tspan y="-1919.98" x="452.83 478.606 498.62199 518.638 536.314 546.1061 569.6861 589.3421 600.4661 610.94216 619.00619 638.6262 658.6422 678.37026 697.23428">Conv Bottleneck</tspan></text>
</g>
<g clip-path="url(#clip_70)">
<text xml:space="preserve" transform="matrix(1 0 -0 1 0 2911.08)" font-size="18" font-family="Arial Nova"><tspan y="-1890.12" x="499.18 512.068 521.98599 531.99398 540.832 545.962">Conv 3</tspan></text>
</g>
<g clip-path="url(#clip_71)">
<text xml:space="preserve" transform="matrix(1 0 -0 1 0 2911.08)" font-size="18" font-family="Arial Nova"><tspan y="-1890.12" x="555.94">&#x00d7;</tspan></text>
</g>
<g clip-path="url(#clip_72)">
<text xml:space="preserve" transform="matrix(1 0 -0 1 0 2911.08)" font-size="18" font-family="Arial Nova"><tspan y="-1890.12" x="566.5 576.508 581.008 585.958 595.894 605.902 615.81997 620.35598">3, 256, </tspan></text>
</g>
<g clip-path="url(#clip_73)">
<text xml:space="preserve" transform="matrix(1 0 -0 1 0 2911.08)" font-size="18" font-family="Arial Nova"><tspan y="-1890.12" x="625.42 636.81399 646.678 656.128">ReLU</tspan></text>
</g>
<g clip-path="url(#clip_74)">
<text xml:space="preserve" transform="matrix(1 0 -0 1 0 2911.08)" font-size="18" font-family="Arial Nova"><tspan y="-1868.52" x="448.87 461.686 465.71803 469.82203 479.05604 484.22206 494.08607 504.38206 509.06208 521.9501 531.86807 541.87606 550.71408 555.84408">Dilated Conv 3</tspan></text>
</g>
<g clip-path="url(#clip_75)">
<text xml:space="preserve" transform="matrix(1 0 -0 1 0 2911.08)" font-size="18" font-family="Arial Nova"><tspan y="-1868.52" x="565.9">&#x00d7;</tspan></text>
</g>
<g clip-path="url(#clip_76)">
<text xml:space="preserve" transform="matrix(1 0 -0 1 0 2911.08)" font-size="18" font-family="Arial Nova"><tspan y="-1868.52" x="576.46 586.468 590.968 595.918 606.21408 616.7621 626.7701 631.2701 636.2201 646.15609 656.16409 666.08206 670.61807">3, d=2, 256, </tspan></text>
</g>
<g clip-path="url(#clip_77)">
<text xml:space="preserve" transform="matrix(1 0 -0 1 0 2911.08)" font-size="18" font-family="Arial Nova"><tspan y="-1868.52" x="675.7 687.094 696.958 706.408">ReLU</tspan></text>
</g>
<g clip-path="url(#clip_78)">
<text xml:space="preserve" transform="matrix(1 0 -0 1 0 2911.08)" font-size="18" font-family="Arial Nova"><tspan y="-1846.92" x="448.87 461.686 465.71803 469.82203 479.05604 484.22206 494.08607 504.38206 509.06208 521.9501 531.86807 541.87606 550.71408 555.84408">Dilated Conv 3</tspan></text>
</g>
<g clip-path="url(#clip_79)">
<text xml:space="preserve" transform="matrix(1 0 -0 1 0 2911.08)" font-size="18" font-family="Arial Nova"><tspan y="-1846.92" x="565.9">&#x00d7;</tspan></text>
</g>
<g clip-path="url(#clip_80)">
<text xml:space="preserve" transform="matrix(1 0 -0 1 0 2911.08)" font-size="18" font-family="Arial Nova"><tspan y="-1846.92" x="576.46 586.468 590.968 595.918 606.21408 616.7621 626.7701 631.2701 636.2201 646.15609 656.16409 666.08206 670.61807">3, d=4, 256, </tspan></text>
</g>
<g clip-path="url(#clip_81)">
<text xml:space="preserve" transform="matrix(1 0 -0 1 0 2911.08)" font-size="18" font-family="Arial Nova"><tspan y="-1846.92" x="675.7 687.094 696.958 706.408">ReLU</tspan></text>
</g>
<g clip-path="url(#clip_82)">
<text xml:space="preserve" transform="matrix(1 0 -0 1 0 2911.08)" font-size="18" font-family="Arial Nova"><tspan y="-1825.32" x="532.06 547.126 556.756 565.612 576.412 586.42 596.33798">MaxPool</tspan></text>
</g>
<g clip-path="url(#clip_83)">
<text xml:space="preserve" transform="matrix(1 0 -0 1 0 2911.08)" font-size="18" font-family="Arial Nova"><tspan y="-1825.32" x="600.46"> </tspan></text>
</g>
<g clip-path="url(#clip_84)">
<text xml:space="preserve" transform="matrix(1 0 -0 1 0 2911.08)" font-size="18" font-family="Arial Nova"><tspan y="-1825.32" x="605.38">2</tspan></text>
</g>
<g clip-path="url(#clip_85)">
<text xml:space="preserve" transform="matrix(1 0 -0 1 0 2911.08)" font-size="18" font-family="Arial Nova"><tspan y="-1825.32" x="615.34">&#x00d7;</tspan></text>
</g>
<g clip-path="url(#clip_86)">
<text xml:space="preserve" transform="matrix(1 0 -0 1 0 2911.08)" font-size="18" font-family="Arial Nova"><tspan y="-1825.32" x="625.9">2</tspan></text>
</g>
<g clip-path="url(#clip_87)">
<text xml:space="preserve" transform="matrix(1 0 -0 1 0 2911.08)" font-size="24" font-family="Arial Nova"><tspan y="-1786.94" x="398.28 416.928 430.2 437.18403 450.84004 464.18403 471.16804 478.05604 489.48005 502.82405 515.37606 529.10409 541.77609 547.77609 554.25607 562.24807 577.968 583.968 590.568 607.392 614.25607 627.60006 640.872 646.872 653.568 675.28799 682.152 695.496 708.83999 714.83999 721.5839 734.9279 748.2719 761.5439">Output shape: (B, H/16, W/16, 256)</tspan></text>
</g>
<g clip-path="url(#clip_88)">
<path transform="matrix(1,0,0,-1,0,2911.08)" d="M384 1646.8C384 1665.28 398.98 1680.26 417.46 1680.26H749.41C767.89 1680.26 782.87 1665.28 782.87 1646.8V1512.96C782.87 1494.48 767.89 1479.5 749.41 1479.5H417.46C398.98 1479.5 384 1494.48 384 1512.96Z" fill="#46b1e1" fill-rule="evenodd"/>
</g>
<g clip-path="url(#clip_89)">
<path transform="matrix(1,0,0,-1,0,2911.08)" stroke-width="2.25" stroke-linecap="butt" stroke-miterlimit="10" stroke-linejoin="miter" fill="none" stroke="#000000" d="M384 1646.8C384 1665.28 398.98 1680.26 417.46 1680.26H749.41C767.89 1680.26 782.87 1665.28 782.87 1646.8V1512.96C782.87 1494.48 767.89 1479.5 749.41 1479.5H417.46C398.98 1479.5 384 1494.48 384 1512.96Z"/>
</g>
<g clip-path="url(#clip_90)">
<path transform="matrix(1,0,0,-1,0,2911.08)" d="M588.37 1764.12V1696.92H582.37V1764.12ZM594.37 1699.92 585.37 1681.92 576.37 1699.92Z"/>
</g>
<g clip-path="url(#clip_91)">
<text xml:space="preserve" transform="matrix(1 0 -0 1 0 2911.08)" font-size="36" font-family="Arial Nova"><tspan y="-1639.56" x="399.84 417.372 430.368 449.196 469.212 486.348 495.96 515.976 528.972 559.14 578.7601 591.75607 601.76406 625.34408 644.96408 656.0881 666.5641 674.6281 694.24819 714.26419 733.9922 752.8562">Transformer Bottleneck</tspan></text>
</g>
<g clip-path="url(#clip_92)">
<text xml:space="preserve" transform="matrix(1 0 -0 1 0 2911.08)" font-size="18" font-family="Arial Nova"><tspan y="-1611.38" x="526.61 536.56399 540.59597 549.884 555.49996 560.6659 570.5299 580.4659 585.4879 594.0559 604.3519 613.56796 618.8059 622.9099 632.2699">Flatten spatial</tspan></text>
</g>
<g clip-path="url(#clip_93)">
<text xml:space="preserve" transform="matrix(1 0 -0 1 0 2911.08)" font-size="18" font-family="Arial Nova"><tspan y="-1589.78" x="482.57 492.578 505.01603 510.03804 520.33407 530.34207 538.838 542.87 548.18 552.212 562.22 572.22799 581.534 585.566 590.516 600.38 615.464 625.76 635.624 645.92007 656.2701 660.30209 670.31008">2D positional embedding</tspan></text>
</g>
<g clip-path="url(#clip_94)">
<text xml:space="preserve" transform="matrix(1 0 -0 1 0 2911.08)" font-size="18" font-family="Arial Nova"><tspan y="-1568.18" x="498.05 506.92399 513.422 522.764 532.772 541.24996 546.16397 556.17196 562.5979 577.6819 587.5459 594.0439 599.1739 609.0379 618.9739 628.4059 638.4139 648.7099 658.5739">Transformer encoder</tspan></text>
</g>
<g clip-path="url(#clip_95)">
<text xml:space="preserve" transform="matrix(1 0 -0 1 0 2911.08)" font-size="18" font-family="Arial Nova"><tspan y="-1546.58" x="517.61 530.174 540.182 545.67208 549.70407 558.99209 564.60806 569.774 579.638 589.574 594.524 603.01998 613.316 622.586 627.824 631.928 641.28799">Unflatten spatial</tspan></text>
</g>
<g clip-path="url(#clip_96)">
<text xml:space="preserve" transform="matrix(1 0 -0 1 0 2911.08)" font-size="24" font-family="Arial Nova"><tspan y="-1514.21" x="395.83 414.478 427.75 434.734 448.39 461.734 468.71803 475.60603 487.03004 500.37403 512.926 526.65408 539.32608 545.32608 551.806 559.79806 575.51809 581.51809 588.11807 604.9421 611.8061 625.1501 638.42208 644.42208 651.11807 672.838 679.702 693.046 706.39 712.39 719.134 732.47799 745.82199 759.09396">Output shape: (B, H/16, W/16, 256)</tspan></text>
</g>
<g clip-path="url(#clip_97)">
<path transform="matrix(1,0,0,-1,0,2911.08)" d="M589.31 1479.5V1414.92H583.31V1479.5ZM595.31 1417.92 586.31 1399.92 577.31 1417.92Z"/>
</g>
<g clip-path="url(#clip_98)">
<path transform="matrix(1,0,0,-1,0,2911.08)" d="M386.88 1368.61C386.88 1385.43 400.51 1399.07 417.33 1399.07H755.3C772.12 1399.07 785.75 1385.43 785.75 1368.61V1246.81C785.75 1229.99 772.12 1216.35 755.3 1216.35H417.33C400.51 1216.35 386.88 1229.99 386.88 1246.81Z" fill="#f2aa84" fill-rule="evenodd"/>
</g>
<g clip-path="url(#clip_99)">
<path transform="matrix(1,0,0,-1,0,2911.08)" stroke-width="2.25" stroke-linecap="butt" stroke-miterlimit="10" stroke-linejoin="miter" fill="none" stroke="#000000" d="M386.88 1368.61C386.88 1385.43 400.51 1399.07 417.33 1399.07H755.3C772.12 1399.07 785.75 1385.43 785.75 1368.61V1246.81C785.75 1229.99 772.12 1216.35 755.3 1216.35H417.33C400.51 1216.35 386.88 1229.99 386.88 1246.81Z"/>
</g>
<g clip-path="url(#clip_100)">
<text xml:space="preserve" transform="matrix(1 0 -0 1 0 2911.08)" font-size="36" font-family="Arial Nova"><tspan y="-1360.37" x="444.58 469.636 489.36399 508.228 528.244 548.836 568.564 581.56 591.46 612.052 620.116 640.132 658.99606 676.99606 686.89608">Decoder block 4</tspan></text>
</g>
<g clip-path="url(#clip_101)">
<text xml:space="preserve" transform="matrix(1 0 -0 1 0 2911.08)" font-size="24" font-family="Arial Nova"><tspan y="-1237.75" x="413.98 432.62803 445.90003 452.88404 466.54005 479.88404 486.86805 493.75605 505.18006 518.52407 531.07608 544.8041 557.4761 563.4761 569.95608 577.94808 593.6681 599.6681 606.26809 623.0921 629.9561 643.3001 649.3001 655.9001 677.6201 684.48416 697.7321 703.7321 710.5481 723.8921 737.2361 750.50808">Output shape: (B, H/8, W/8, 256)</tspan></text>
</g>
<g clip-path="url(#clip_102)">
<text xml:space="preserve" transform="matrix(1 0 -0 1 0 2911.08)" font-size="18" font-family="Arial Nova"><tspan y="-1335.72" x="484.7 496.49003 500.52204 504.60804 508.64006 518.6481 528.5121 537.85409 544.35208">Bilinear </tspan></text>
</g>
<g clip-path="url(#clip_103)">
<text xml:space="preserve" transform="matrix(1 0 -0 1 0 2911.08)" font-size="18" font-family="Arial Nova"><tspan y="-1335.72" x="549.14 559.148 569.44406 577.94 587.3 602.384 612.716 616.748 620.852 630.86">upsampling</tspan></text>
</g>
<g clip-path="url(#clip_104)">
<text xml:space="preserve" transform="matrix(1 0 -0 1 0 2911.08)" font-size="18" font-family="Arial Nova"><tspan y="-1335.72" x="641.09"> </tspan></text>
</g>
<g clip-path="url(#clip_105)">
<text xml:space="preserve" transform="matrix(1 0 -0 1 0 2911.08)" font-size="18" font-family="Arial Nova"><tspan y="-1335.72" x="646.01">&#x00d7;</tspan></text>
</g>
<g clip-path="url(#clip_106)">
<text xml:space="preserve" transform="matrix(1 0 -0 1 0 2911.08)" font-size="18" font-family="Arial Nova"><tspan y="-1335.72" x="656.57">2</tspan></text>
</g>
<g clip-path="url(#clip_107)">
<text xml:space="preserve" transform="matrix(1 0 -0 1 0 2911.08)" font-size="18" font-family="Arial Nova"><tspan y="-1314.12" x="474.02 486.908 496.826 506.83399 516.37399 525.608">Concat</tspan></text>
</g>
<g clip-path="url(#clip_108)">
<text xml:space="preserve" transform="matrix(1 0 -0 1 0 2911.08)" font-size="18" font-family="Arial Nova"><tspan y="-1314.12" x="530.9"> </tspan></text>
</g>
<g clip-path="url(#clip_109)">
<text xml:space="preserve" transform="matrix(1 0 -0 1 0 2911.08)" font-size="18" font-family="Arial Nova"><tspan y="-1314.12" x="535.94 544.508 553.562 557.594 567.94406 572.89407 577.8981 584.2701 594.2781 609.36209 614.3121 618.34408 627.2361 636.0021 645.8661 652.3641 657.3141 667.3221">skip from layer 11</tspan></text>
</g>
<g clip-path="url(#clip_110)">
<text xml:space="preserve" transform="matrix(1 0 -0 1 0 2911.08)" font-size="18" font-family="Arial Nova"><tspan y="-1292.52" x="490.82 503.708 513.626 523.634 532.472 537.602">Conv 3</tspan></text>
</g>
<g clip-path="url(#clip_111)">
<text xml:space="preserve" transform="matrix(1 0 -0 1 0 2911.08)" font-size="18" font-family="Arial Nova"><tspan y="-1292.52" x="547.58">&#x00d7;</tspan></text>
</g>
<g clip-path="url(#clip_112)">
<text xml:space="preserve" transform="matrix(1 0 -0 1 0 2911.08)" font-size="18" font-family="Arial Nova"><tspan y="-1292.52" x="558.14 568.148 572.648 577.598 587.534 597.542 607.45999 611.996">3, 256, </tspan></text>
</g>
<g clip-path="url(#clip_113)">
<text xml:space="preserve" transform="matrix(1 0 -0 1 0 2911.08)" font-size="18" font-family="Arial Nova"><tspan y="-1292.52" x="617.06 628.49 638.354 647.858">ReLU</tspan></text>
</g>
<g clip-path="url(#clip_114)">
<text xml:space="preserve" transform="matrix(1 0 -0 1 0 2911.08)" font-size="18" font-family="Arial Nova"><tspan y="-1271.64" x="490.82 503.708 513.626 523.634 532.472 537.602">Conv 3</tspan></text>
</g>
<g clip-path="url(#clip_115)">
<text xml:space="preserve" transform="matrix(1 0 -0 1 0 2911.08)" font-size="18" font-family="Arial Nova"><tspan y="-1271.64" x="547.58">&#x00d7;</tspan></text>
</g>
<g clip-path="url(#clip_116)">
<text xml:space="preserve" transform="matrix(1 0 -0 1 0 2911.08)" font-size="18" font-family="Arial Nova"><tspan y="-1271.64" x="558.14 568.148 572.648 577.598 587.534 597.542 607.45999 611.996">3, 256, </tspan></text>
</g>
<g clip-path="url(#clip_117)">
<text xml:space="preserve" transform="matrix(1 0 -0 1 0 2911.08)" font-size="18" font-family="Arial Nova"><tspan y="-1271.64" x="617.06 628.49 638.354 647.858">ReLU</tspan></text>
</g>
<g clip-path="url(#clip_118)">
<path transform="matrix(1,0,0,-1,0,2911.08)" d="M586.44 1216.04V1148.83H580.44V1216.04ZM592.44 1151.83 583.44 1133.83 574.44 1151.83Z"/>
</g>
<g clip-path="url(#clip_119)">
<path transform="matrix(1,0,0,-1,0,2911.08)" d="M384 1102.53C384 1119.35 397.63 1132.98 414.45 1132.98H752.42C769.24 1132.98 782.87 1119.35 782.87 1102.53V980.72C782.87 963.9 769.24 950.27 752.42 950.27H414.45C397.63 950.27 384 963.9 384 980.72Z" fill="#f2aa84" fill-rule="evenodd"/>
</g>
<g clip-path="url(#clip_120)">
<path transform="matrix(1,0,0,-1,0,2911.08)" stroke-width="2.25" stroke-linecap="butt" stroke-miterlimit="10" stroke-linejoin="miter" fill="none" stroke="#000000" d="M384 1102.53C384 1119.35 397.63 1132.98 414.45 1132.98H752.42C769.24 1132.98 782.87 1119.35 782.87 1102.53V980.72C782.87 963.9 769.24 950.27 752.42 950.27H414.45C397.63 950.27 384 963.9 384 980.72Z"/>
</g>
<g clip-path="url(#clip_121)">
<text xml:space="preserve" transform="matrix(1 0 -0 1 0 2911.08)" font-size="36" font-family="Arial Nova"><tspan y="-1094.28" x="441.7 466.756 486.484 505.34803 525.364 545.956 565.684 578.68 588.58 609.172 617.236 637.252 656.116 674.116 684.01608">Decoder block 3</tspan></text>
</g>
<g clip-path="url(#clip_122)">
<text xml:space="preserve" transform="matrix(1 0 -0 1 0 2911.08)" font-size="24" font-family="Arial Nova"><tspan y="-971.66" x="411.1 429.74803 443.02003 450.00404 463.66004 477.00404 483.98805 490.87605 502.30006 515.64407 528.19607 541.9241 554.59609 560.59609 567.07608 575.06808 590.7881 596.7881 603.38809 620.2121 627.0761 640.4201 646.4201 653.0201 674.7401 681.6041 694.8521 700.8521 707.6681 721.0121 734.3561 747.62808">Output shape: (B, H/4, W/4, 128)</tspan></text>
</g>
<g clip-path="url(#clip_123)">
<text xml:space="preserve" transform="matrix(1 0 -0 1 0 2911.08)" font-size="18" font-family="Arial Nova"><tspan y="-1069.61" x="481.82 493.61003 497.64204 501.72804 505.76005 515.76809 525.6321 534.97409 541.47207">Bilinear </tspan></text>
</g>
<g clip-path="url(#clip_124)">
<text xml:space="preserve" transform="matrix(1 0 -0 1 0 2911.08)" font-size="18" font-family="Arial Nova"><tspan y="-1069.61" x="546.26 556.268 566.564 575.06 584.42 599.50399 609.836 613.868 617.972 627.98">upsampling</tspan></text>
</g>
<g clip-path="url(#clip_125)">
<text xml:space="preserve" transform="matrix(1 0 -0 1 0 2911.08)" font-size="18" font-family="Arial Nova"><tspan y="-1069.61" x="638.21"> </tspan></text>
</g>
<g clip-path="url(#clip_126)">
<text xml:space="preserve" transform="matrix(1 0 -0 1 0 2911.08)" font-size="18" font-family="Arial Nova"><tspan y="-1069.61" x="643.13">&#x00d7;</tspan></text>
</g>
<g clip-path="url(#clip_127)">
<text xml:space="preserve" transform="matrix(1 0 -0 1 0 2911.08)" font-size="18" font-family="Arial Nova"><tspan y="-1069.61" x="653.69">2</tspan></text>
</g>
<g clip-path="url(#clip_128)">
<text xml:space="preserve" transform="matrix(1 0 -0 1 0 2911.08)" font-size="18" font-family="Arial Nova"><tspan y="-1048.01" x="476.06 488.948 498.866 508.874 518.41397 527.64797">Concat</tspan></text>
</g>
<g clip-path="url(#clip_129)">
<text xml:space="preserve" transform="matrix(1 0 -0 1 0 2911.08)" font-size="18" font-family="Arial Nova"><tspan y="-1048.01" x="532.94"> </tspan></text>
</g>
<g clip-path="url(#clip_130)">
<text xml:space="preserve" transform="matrix(1 0 -0 1 0 2911.08)" font-size="18" font-family="Arial Nova"><tspan y="-1048.01" x="537.98 546.548 555.602 559.634 569.984 574.934 579.93807 586.31008 596.31808 611.40206 616.35208 620.38406 629.27609 638.04208 647.90609 654.40408 659.35409">skip from layer 7</tspan></text>
</g>
<g clip-path="url(#clip_131)">
<text xml:space="preserve" transform="matrix(1 0 -0 1 0 2911.08)" font-size="18" font-family="Arial Nova"><tspan y="-1026.41" x="487.94 500.828 510.746 520.754 529.59207 534.72207">Conv 3</tspan></text>
</g>
<g clip-path="url(#clip_132)">
<text xml:space="preserve" transform="matrix(1 0 -0 1 0 2911.08)" font-size="18" font-family="Arial Nova"><tspan y="-1026.41" x="544.7">&#x00d7;</tspan></text>
</g>
<g clip-path="url(#clip_133)">
<text xml:space="preserve" transform="matrix(1 0 -0 1 0 2911.08)" font-size="18" font-family="Arial Nova"><tspan y="-1026.41" x="555.26 565.268 569.768 574.718 584.654 594.662 604.57998 609.11599">3, 128, </tspan></text>
</g>
<g clip-path="url(#clip_134)">
<text xml:space="preserve" transform="matrix(1 0 -0 1 0 2911.08)" font-size="18" font-family="Arial Nova"><tspan y="-1026.41" x="614.21 625.604 635.468 644.918">ReLU</tspan></text>
</g>
<g clip-path="url(#clip_135)">
<text xml:space="preserve" transform="matrix(1 0 -0 1 0 2911.08)" font-size="18" font-family="Arial Nova"><tspan y="-1005.53" x="487.94 500.828 510.746 520.754 529.59207 534.72207">Conv 3</tspan></text>
</g>
<g clip-path="url(#clip_136)">
<text xml:space="preserve" transform="matrix(1 0 -0 1 0 2911.08)" font-size="18" font-family="Arial Nova"><tspan y="-1005.53" x="544.7">&#x00d7;</tspan></text>
</g>
<g clip-path="url(#clip_137)">
<text xml:space="preserve" transform="matrix(1 0 -0 1 0 2911.08)" font-size="18" font-family="Arial Nova"><tspan y="-1005.53" x="555.26 565.268 569.768 574.718 584.654 594.662 604.57998 609.11599">3, 128, </tspan></text>
</g>
<g clip-path="url(#clip_138)">
<text xml:space="preserve" transform="matrix(1 0 -0 1 0 2911.08)" font-size="18" font-family="Arial Nova"><tspan y="-1005.53" x="614.21 625.604 635.468 644.918">ReLU</tspan></text>
</g>
<g clip-path="url(#clip_139)">
<path transform="matrix(1,0,0,-1,0,2911.08)" d="M584.5 949.96V882.75H578.5V949.96ZM590.5 885.75 581.5 867.75 572.5 885.75Z"/>
</g>
<g clip-path="url(#clip_140)">
<path transform="matrix(1,0,0,-1,0,2911.08)" d="M382.06 836.45C382.06 853.27 395.69 866.9 412.51 866.9H750.48C767.3 866.9 780.93 853.27 780.93 836.45V714.64C780.93 697.82 767.3 684.19 750.48 684.19H412.51C395.69 684.19 382.06 697.82 382.06 714.64Z" fill="#f2aa84" fill-rule="evenodd"/>
</g>
<g clip-path="url(#clip_141)">
<path transform="matrix(1,0,0,-1,0,2911.08)" stroke-width="2.25" stroke-linecap="butt" stroke-miterlimit="10" stroke-linejoin="miter" fill="none" stroke="#000000" d="M382.06 836.45C382.06 853.27 395.69 866.9 412.51 866.9H750.48C767.3 866.9 780.93 853.27 780.93 836.45V714.64C780.93 697.82 767.3 684.19 750.48 684.19H412.51C395.69 684.19 382.06 697.82 382.06 714.64Z"/>
</g>
<g clip-path="url(#clip_142)">
<text xml:space="preserve" transform="matrix(1 0 -0 1 0 2911.08)" font-size="36" font-family="Arial Nova"><tspan y="-828.19" x="439.75 464.806 484.534 503.398 523.414 544.11398 563.842 576.83798 586.738 607.402 615.466 635.482 654.346 672.346 682.24606">Decoder block 2</tspan></text>
</g>
<g clip-path="url(#clip_143)">
<text xml:space="preserve" transform="matrix(1 0 -0 1 0 2911.08)" font-size="24" font-family="Arial Nova"><tspan y="-705.55" x="415.87 434.518 447.79 454.77403 468.43003 481.77403 488.75804 495.64604 507.07005 520.41409 532.96609 546.6941 559.3661 565.3661 571.84609 579.8381 595.5581 601.5581 608.1581 624.9821 631.8461 645.1901 651.1901 657.7901 679.51016 686.37417 699.62216 705.62216 712.4381 725.7821 739.1261">Output shape: (B, H/2, W/2, 64)</tspan></text>
</g>
<g clip-path="url(#clip_144)">
<text xml:space="preserve" transform="matrix(1 0 -0 1 0 2911.08)" font-size="18" font-family="Arial Nova"><tspan y="-803.52" x="479.88 491.67 495.70204 499.78804 503.82005 513.82809 523.6921 533.03408 539.53207">Bilinear </tspan></text>
</g>
<g clip-path="url(#clip_145)">
<text xml:space="preserve" transform="matrix(1 0 -0 1 0 2911.08)" font-size="18" font-family="Arial Nova"><tspan y="-803.52" x="544.32 554.328 564.624 573.192 582.606 597.69 608.04006 612.072 616.176 626.184">upsampling</tspan></text>
</g>
<g clip-path="url(#clip_146)">
<text xml:space="preserve" transform="matrix(1 0 -0 1 0 2911.08)" font-size="18" font-family="Arial Nova"><tspan y="-803.52" x="636.26"> </tspan></text>
</g>
<g clip-path="url(#clip_147)">
<text xml:space="preserve" transform="matrix(1 0 -0 1 0 2911.08)" font-size="18" font-family="Arial Nova"><tspan y="-803.52" x="641.18">&#x00d7;</tspan></text>
</g>
<g clip-path="url(#clip_148)">
<text xml:space="preserve" transform="matrix(1 0 -0 1 0 2911.08)" font-size="18" font-family="Arial Nova"><tspan y="-803.52" x="651.74">2</tspan></text>
</g>
<g clip-path="url(#clip_149)">
<text xml:space="preserve" transform="matrix(1 0 -0 1 0 2911.08)" font-size="18" font-family="Arial Nova"><tspan y="-781.92" x="474.12 487.008 496.926 506.934 516.47396 525.70797">Concat</tspan></text>
</g>
<g clip-path="url(#clip_150)">
<text xml:space="preserve" transform="matrix(1 0 -0 1 0 2911.08)" font-size="18" font-family="Arial Nova"><tspan y="-781.92" x="531"> </tspan></text>
</g>
<g clip-path="url(#clip_151)">
<text xml:space="preserve" transform="matrix(1 0 -0 1 0 2911.08)" font-size="18" font-family="Arial Nova"><tspan y="-781.92" x="536.04 544.608 553.662 557.694 568.044 572.994 577.99807 584.37008 594.37808 609.46206 614.41207 618.44406 627.33609 636.10208 645.96609 652.46408 657.41409">skip from layer 4</tspan></text>
</g>
<g clip-path="url(#clip_152)">
<text xml:space="preserve" transform="matrix(1 0 -0 1 0 2911.08)" font-size="18" font-family="Arial Nova"><tspan y="-760.32" x="491.04 503.928 513.846 523.854 532.692 537.822">Conv 3</tspan></text>
</g>
<g clip-path="url(#clip_153)">
<text xml:space="preserve" transform="matrix(1 0 -0 1 0 2911.08)" font-size="18" font-family="Arial Nova"><tspan y="-760.32" x="547.8">&#x00d7;</tspan></text>
</g>
<g clip-path="url(#clip_154)">
<text xml:space="preserve" transform="matrix(1 0 -0 1 0 2911.08)" font-size="18" font-family="Arial Nova"><tspan y="-760.32" x="558.38 568.388 572.888 577.838 587.774 597.782 602.282">3, 64, </tspan></text>
</g>
<g clip-path="url(#clip_155)">
<text xml:space="preserve" transform="matrix(1 0 -0 1 0 2911.08)" font-size="18" font-family="Arial Nova"><tspan y="-760.32" x="607.34 618.734 628.598 638.04806">ReLU</tspan></text>
</g>
<g clip-path="url(#clip_156)">
<text xml:space="preserve" transform="matrix(1 0 -0 1 0 2911.08)" font-size="18" font-family="Arial Nova"><tspan y="-739.44" x="491.04 503.928 513.846 523.854 532.692 537.822">Conv 3</tspan></text>
</g>
<g clip-path="url(#clip_157)">
<text xml:space="preserve" transform="matrix(1 0 -0 1 0 2911.08)" font-size="18" font-family="Arial Nova"><tspan y="-739.44" x="547.8">&#x00d7;</tspan></text>
</g>
<g clip-path="url(#clip_158)">
<text xml:space="preserve" transform="matrix(1 0 -0 1 0 2911.08)" font-size="18" font-family="Arial Nova"><tspan y="-739.44" x="558.38 568.388 572.888 577.838 587.774 597.782 602.282">3, 64, </tspan></text>
</g>
<g clip-path="url(#clip_159)">
<text xml:space="preserve" transform="matrix(1 0 -0 1 0 2911.08)" font-size="18" font-family="Arial Nova"><tspan y="-739.44" x="607.34 618.734 628.598 638.04806">ReLU</tspan></text>
</g>
<g clip-path="url(#clip_160)">
<path transform="matrix(1,0,0,-1,0,2911.08)" d="M584.5 685.3V618.1H578.5V685.3ZM590.5 621.1 581.5 603.1 572.5 621.1Z"/>
</g>
<g clip-path="url(#clip_161)">
<path transform="matrix(1,0,0,-1,0,2911.08)" d="M382.06 571.8C382.06 588.62 395.69 602.25 412.51 602.25H750.48C767.3 602.25 780.93 588.62 780.93 571.8V449.99C780.93 433.17 767.3 419.54 750.48 419.54H412.51C395.69 419.54 382.06 433.17 382.06 449.99Z" fill="#f2aa84" fill-rule="evenodd"/>
</g>
<g clip-path="url(#clip_162)">
<path transform="matrix(1,0,0,-1,0,2911.08)" stroke-width="2.25" stroke-linecap="butt" stroke-miterlimit="10" stroke-linejoin="miter" fill="none" stroke="#000000" d="M382.06 571.8C382.06 588.62 395.69 602.25 412.51 602.25H750.48C767.3 602.25 780.93 588.62 780.93 571.8V449.99C780.93 433.17 767.3 419.54 750.48 419.54H412.51C395.69 419.54 382.06 433.17 382.06 449.99Z"/>
</g>
<g clip-path="url(#clip_163)">
<text xml:space="preserve" transform="matrix(1 0 -0 1 0 2911.08)" font-size="36" font-family="Arial Nova"><tspan y="-563.52" x="439.75 464.806 484.534 503.398 523.414 544.11398 563.842 576.83798 586.738 607.402 615.466 635.482 654.346 672.346 682.24606">Decoder block 1</tspan></text>
</g>
<g clip-path="url(#clip_164)">
<text xml:space="preserve" transform="matrix(1 0 -0 1 0 2911.08)" font-size="24" font-family="Arial Nova"><tspan y="-440.9" x="436.66 455.308 468.58003 475.56404 489.22004 502.56404 509.54804 516.43606 527.86007 541.20407 553.75607 567.4841 580.15609 586.15609 592.63607 600.62808 616.348 622.348 628.948 645.77206 651.77206 658.372 679.132 685.132 691.732 705.076 718.42">Output shape: (B, H, W, 32)</tspan></text>
</g>
<g clip-path="url(#clip_165)">
<text xml:space="preserve" transform="matrix(1 0 -0 1 0 2911.08)" font-size="18" font-family="Arial Nova"><tspan y="-538.87" x="479.88 491.67 495.70204 499.78804 503.82005 513.82809 523.6921 533.03408 539.53207">Bilinear </tspan></text>
</g>
<g clip-path="url(#clip_166)">
<text xml:space="preserve" transform="matrix(1 0 -0 1 0 2911.08)" font-size="18" font-family="Arial Nova"><tspan y="-538.87" x="544.32 554.328 564.624 573.192 582.606 597.69 608.04006 612.072 616.176 626.184">upsampling</tspan></text>
</g>
<g clip-path="url(#clip_167)">
<text xml:space="preserve" transform="matrix(1 0 -0 1 0 2911.08)" font-size="18" font-family="Arial Nova"><tspan y="-538.87" x="636.26"> </tspan></text>
</g>
<g clip-path="url(#clip_168)">
<text xml:space="preserve" transform="matrix(1 0 -0 1 0 2911.08)" font-size="18" font-family="Arial Nova"><tspan y="-538.87" x="641.18">&#x00d7;</tspan></text>
</g>
<g clip-path="url(#clip_169)">
<text xml:space="preserve" transform="matrix(1 0 -0 1 0 2911.08)" font-size="18" font-family="Arial Nova"><tspan y="-538.87" x="651.74">2</tspan></text>
</g>
<g clip-path="url(#clip_170)">
<text xml:space="preserve" transform="matrix(1 0 -0 1 0 2911.08)" font-size="18" font-family="Arial Nova"><tspan y="-517.27" x="474.12 487.008 496.926 506.934 516.47396 525.70797">Concat</tspan></text>
</g>
<g clip-path="url(#clip_171)">
<text xml:space="preserve" transform="matrix(1 0 -0 1 0 2911.08)" font-size="18" font-family="Arial Nova"><tspan y="-517.27" x="531"> </tspan></text>
</g>
<g clip-path="url(#clip_172)">
<text xml:space="preserve" transform="matrix(1 0 -0 1 0 2911.08)" font-size="18" font-family="Arial Nova"><tspan y="-517.27" x="536.04 544.608 553.662 557.694 568.044 572.994 577.99807 584.37008 594.37808 609.46206 614.41207 618.44406 627.33609 636.10208 645.96609 652.46408 657.41409">skip from layer 1</tspan></text>
</g>
<g clip-path="url(#clip_173)">
<text xml:space="preserve" transform="matrix(1 0 -0 1 0 2911.08)" font-size="18" font-family="Arial Nova"><tspan y="-495.67" x="491.04 503.928 513.846 523.854 532.692 537.822">Conv 3</tspan></text>
</g>
<g clip-path="url(#clip_174)">
<text xml:space="preserve" transform="matrix(1 0 -0 1 0 2911.08)" font-size="18" font-family="Arial Nova"><tspan y="-495.67" x="547.8">&#x00d7;</tspan></text>
</g>
<g clip-path="url(#clip_175)">
<text xml:space="preserve" transform="matrix(1 0 -0 1 0 2911.08)" font-size="18" font-family="Arial Nova"><tspan y="-495.67" x="558.38 568.388 572.888 577.838 587.774 597.782 602.282">3, 32, </tspan></text>
</g>
<g clip-path="url(#clip_176)">
<text xml:space="preserve" transform="matrix(1 0 -0 1 0 2911.08)" font-size="18" font-family="Arial Nova"><tspan y="-495.67" x="607.34 618.734 628.598 638.04806">ReLU</tspan></text>
</g>
<g clip-path="url(#clip_177)">
<text xml:space="preserve" transform="matrix(1 0 -0 1 0 2911.08)" font-size="18" font-family="Arial Nova"><tspan y="-474.79" x="491.04 503.928 513.846 523.854 532.692 537.822">Conv 3</tspan></text>
</g>
<g clip-path="url(#clip_178)">
<text xml:space="preserve" transform="matrix(1 0 -0 1 0 2911.08)" font-size="18" font-family="Arial Nova"><tspan y="-474.79" x="547.8">&#x00d7;</tspan></text>
</g>
<g clip-path="url(#clip_179)">
<text xml:space="preserve" transform="matrix(1 0 -0 1 0 2911.08)" font-size="18" font-family="Arial Nova"><tspan y="-474.79" x="558.38 568.388 572.888 577.838 587.774 597.782 602.282">3, 32, </tspan></text>
</g>
<g clip-path="url(#clip_180)">
<text xml:space="preserve" transform="matrix(1 0 -0 1 0 2911.08)" font-size="18" font-family="Arial Nova"><tspan y="-474.79" x="607.34 618.734 628.598 638.04806">ReLU</tspan></text>
</g>
<g clip-path="url(#clip_181)">
<path transform="matrix(1,0,0,-1,0,2911.08)" d="M584.5 420.19V352.98H578.5V420.19ZM590.5 355.98 581.5 337.98 572.5 355.98Z"/>
</g>
<g clip-path="url(#clip_182)">
<path transform="matrix(1,0,0,-1,0,2911.08)" d="M382.06 320.78C382.06 329.51 389.14 336.59 397.87 336.59H765.12C773.85 336.59 780.93 329.51 780.93 320.78V257.52C780.93 248.79 773.85 241.71 765.12 241.71H397.87C389.14 241.71 382.06 248.79 382.06 257.52Z" fill="#c2f1c8" fill-rule="evenodd"/>
</g>
<g clip-path="url(#clip_183)">
<path transform="matrix(1,0,0,-1,0,2911.08)" stroke-width="2.25" stroke-linecap="butt" stroke-miterlimit="10" stroke-linejoin="miter" fill="none" stroke="#000000" d="M382.06 320.78C382.06 329.51 389.14 336.59 397.87 336.59H765.12C773.85 336.59 780.93 329.51 780.93 320.78V257.52C780.93 248.79 773.85 241.71 765.12 241.71H397.87C389.14 241.71 382.06 248.79 382.06 257.52Z"/>
</g>
<g clip-path="url(#clip_184)">
<text xml:space="preserve" transform="matrix(1 0 -0 1 0 2911.08)" font-size="39.96" font-family="Arial Nova"><tspan y="-296.93" x="520.75 551.79898 574.0167 585.6451 608.5022 630.72">Output</tspan></text>
</g>
<g clip-path="url(#clip_185)">
<text xml:space="preserve" transform="matrix(1 0 -0 1 0 2911.08)" font-size="24" font-family="Arial Nova"><tspan y="-257.47" x="443.33 461.978 475.25 482.234 495.89 509.234 516.218 523.106 534.53 547.874 560.426 574.15408 586.82608 592.82608 599.306 607.29806 623.01809 629.01809 635.61807 652.4421 658.4421 665.04208 685.80209 691.80209 698.40206 711.74606">Output shape: (B, H, W, 2)</tspan></text>
</g>
<g clip-path="url(#clip_186)">
<path transform="matrix(1,0,0,-1,0,2911.08)" d="M972.38 1309.71H803.88V1302.46H972.38ZM807.5 1316.96 785.75 1306.08 807.5 1295.21Z"/>
</g>
<g clip-path="url(#clip_187)">
<path transform="matrix(1,0,0,-1,0,2911.08)" stroke-width="7.25" stroke-linecap="butt" stroke-miterlimit="10" stroke-linejoin="miter" fill="none" stroke="#000000" d="M968.87 1876.08V1302.92"/>
</g>
<g clip-path="url(#clip_188)">
<path transform="matrix(1,0,0,-1,0,2911.08)" stroke-width="7.25" stroke-linecap="butt" stroke-miterlimit="10" stroke-linejoin="miter" fill="none" stroke="#000000" d="M966.62 1872.83H784.56"/>
</g>
<g clip-path="url(#clip_189)">
<path transform="matrix(1,0,0,-1,0,2911.08)" d="M1013.66 1060.19H801.63V1052.94H1013.66ZM805.25 1067.44 783.5 1056.57 805.25 1045.69Z"/>
</g>
<g clip-path="url(#clip_190)">
<path transform="matrix(1,0,0,-1,0,2911.08)" stroke-width="7.25" stroke-linecap="butt" stroke-miterlimit="10" stroke-linejoin="miter" fill="none" stroke="#000000" d="M1003.09 2122.9 1010.52 1053.19"/>
</g>
<g clip-path="url(#clip_191)">
<path transform="matrix(1,0,0,-1,0,2911.08)" stroke-width="7.25" stroke-linecap="butt" stroke-miterlimit="10" stroke-linejoin="miter" fill="none" stroke="#000000" d="M1003.09 2119.42H785.56"/>
</g>
<g clip-path="url(#clip_192)">
<path transform="matrix(1,0,0,-1,0,2911.08)" d="M1052.45 778.83H798.45V771.58H1052.45ZM802.08 786.08 780.33 775.2 802.08 764.33Z"/>
</g>
<g clip-path="url(#clip_193)">
<path transform="matrix(1,0,0,-1,0,2911.08)" stroke-width="7.25" stroke-linecap="butt" stroke-miterlimit="10" stroke-linejoin="miter" fill="none" stroke="#000000" d="M1042.1 2357.45 1050.71 771.85"/>
</g>
<g clip-path="url(#clip_194)">
<path transform="matrix(1,0,0,-1,0,2911.08)" stroke-width="7.25" stroke-linecap="butt" stroke-miterlimit="10" stroke-linejoin="miter" fill="none" stroke="#000000" d="M1045.72 2357.45H784.56"/>
</g>
<g clip-path="url(#clip_195)">
<path transform="matrix(1,0,0,-1,0,2911.08)" d="M1093.88 510.77H798.13V503.52H1093.88ZM801.76 518.02 780.01 507.15 801.76 496.27Z"/>
</g>
<g clip-path="url(#clip_196)">
<path transform="matrix(1,0,0,-1,0,2911.08)" stroke-width="7.25" stroke-linecap="butt" stroke-miterlimit="10" stroke-linejoin="miter" fill="none" stroke="#000000" d="M1078.5 2587.98 1092.14 504.13"/>
</g>
<g clip-path="url(#clip_197)">
<path transform="matrix(1,0,0,-1,0,2911.08)" stroke-width="7.25" stroke-linecap="butt" stroke-miterlimit="10" stroke-linejoin="miter" fill="none" stroke="#000000" d="M1082 2591H785.88"/>
</g>
</g>
</svg>
